<svg xmlns="http://www.w3.org/2000/svg" xmlns:xlink="http://www.w3.org/1999/xlink" width="500" zoomAndPan="magnify" viewBox="0 0 375 374.999991" height="500" preserveAspectRatio="xMidYMid meet" version="1.0"><defs><filter x="0%" y="0%" width="100%" height="100%" id="b7dd9bd1e5"><feColorMatrix values="0 0 0 0 1 0 0 0 0 1 0 0 0 0 1 0 0 0 1 0" color-interpolation-filters="sRGB"/></filter><mask id="839060a510"><g filter="url(#b7dd9bd1e5)"><rect x="-37.5" width="450" fill="#000000" y="-37.499999" height="449.999989" fill-opacity="0.1"/></g></mask><clipPath id="d8a793131f"><path d="M 39 22 L 333 22 L 333 346 L 39 346 Z M 39 22 " clip-rule="nonzero"/></clipPath><clipPath id="5cd6ea585c"><path d="M 414.351562 259.933594 L 124.953125 435.039062 L -39.667969 162.964844 L 249.730469 -12.140625 Z M 414.351562 259.933594 " clip-rule="nonzero"/></clipPath><clipPath id="45cd8a7cb9"><path d="M 414.351562 259.933594 L 124.953125 435.039062 L -39.667969 162.964844 L 249.730469 -12.140625 Z M 414.351562 259.933594 " clip-rule="nonzero"/></clipPath><clipPath id="81fff7fac6"><rect x="0" width="375" y="0" height="375"/></clipPath><clipPath id="2c361bea9d"><path d="M 102 4.789062 L 355 4.789062 L 355 316 L 102 316 Z M 102 4.789062 " clip-rule="nonzero"/></clipPath><clipPath id="e1c70708a1"><path d="M 34 109 L 315 109 L 315 370.039062 L 34 370.039062 Z M 34 109 " clip-rule="nonzero"/></clipPath></defs><g mask="url(#839060a510)"><g transform="matrix(1, 0, 0, 1, 0, 0)"><g clip-path="url(#81fff7fac6)"><g clip-path="url(#d8a793131f)"><g clip-path="url(#5cd6ea585c)"><g clip-path="url(#45cd8a7cb9)"><path fill="#ffdb6e" d="M 41.6875 284.558594 C 45.8125 300.710938 55.839844 316.308594 70.386719 324.15625 C 67.730469 326.703125 63.503906 333.09375 63.648438 332.910156 C 66.082031 329.894531 68.863281 327.246094 71.988281 324.960938 C 72.554688 325.238281 73.109375 325.527344 73.6875 325.78125 C 92.285156 333.929688 111.320312 327.214844 128.667969 322.515625 C 133.597656 321.160156 138.589844 320.066406 143.636719 319.242188 C 150.089844 321.070312 156.503906 323.234375 162.871094 325.539062 C 184.378906 333.335938 205.867188 342.359375 228.234375 344.523438 C 237.589844 345.445312 246.914062 345.207031 256.210938 343.808594 C 265.503906 342.410156 274.488281 339.894531 283.15625 336.261719 C 299.9375 329.160156 315.167969 317.921875 324.648438 301.675781 C 327.007812 297.707031 328.863281 293.519531 330.21875 289.109375 C 331.574219 284.695312 332.386719 280.1875 332.664062 275.582031 C 333.140625 266.34375 330.949219 257.121094 327.03125 248.421875 C 319.175781 230.992188 306.125 215.9375 301.871094 197.085938 C 297.464844 177.550781 301.789062 157.976562 304.617188 139.304688 C 307.410156 120.894531 309.425781 101.367188 302.917969 82.550781 C 297.421875 66.671875 286.789062 52.855469 273.871094 42.53125 C 260.566406 31.890625 244.839844 24.988281 228.875 22.800781 C 211.972656 20.488281 195.152344 24.175781 180.625 31.511719 C 165.734375 39.03125 152.957031 50.613281 143.234375 64.453125 C 138.097656 71.773438 133.828125 79.570312 130.425781 87.835938 C 126.136719 98.210938 122.933594 109.117188 119.355469 119.832031 C 115.816406 130.425781 111.808594 140.789062 106.28125 150.261719 C 100.953125 159.394531 94.527344 167.679688 87.871094 175.707031 C 74.503906 191.816406 60.03125 207.148438 50.144531 226.171875 C 41.152344 243.472656 36.390625 263.828125 41.6875 284.558594 Z M 41.6875 284.558594 " fill-opacity="1" fill-rule="nonzero"/></g></g></g></g></g></g><path fill="#ffdb6e" d="M 99.714844 146.957031 C 83.441406 146.957031 70.023438 159.804688 70.023438 175.792969 C 70.023438 191.777344 83.15625 204.625 99.714844 204.625 C 116.269531 204.625 129.402344 191.777344 129.402344 175.792969 C 129.402344 159.804688 115.984375 146.957031 99.714844 146.957031 Z M 99.714844 193.492188 C 89.722656 193.492188 81.441406 185.5 81.441406 176.078125 C 81.441406 166.65625 89.722656 158.664062 99.714844 158.664062 C 109.707031 158.664062 117.984375 166.65625 117.984375 176.078125 C 117.984375 185.5 109.707031 193.492188 99.714844 193.492188 Z M 99.714844 193.492188 " fill-opacity="1" fill-rule="nonzero"/><path fill="#ffdb6e" d="M 90.863281 251.445312 C 90.863281 267.429688 103.996094 280.277344 120.554688 280.277344 C 137.109375 280.277344 150.242188 267.429688 150.242188 251.445312 C 150.242188 235.457031 137.109375 222.609375 120.554688 222.609375 C 103.996094 222.609375 90.863281 235.457031 90.863281 251.445312 Z M 138.824219 251.445312 C 138.824219 261.148438 130.546875 268.859375 120.554688 268.859375 C 110.5625 268.859375 102.28125 260.863281 102.28125 251.445312 C 102.28125 242.023438 110.5625 234.03125 120.554688 234.03125 C 130.546875 234.03125 138.824219 241.738281 138.824219 251.445312 Z M 138.824219 251.445312 " fill-opacity="1" fill-rule="nonzero"/><path fill="#ffdb6e" d="M 212.761719 300.546875 C 212.761719 284.558594 199.632812 271.714844 183.074219 271.714844 C 166.515625 271.714844 153.382812 284.558594 153.382812 300.546875 C 153.382812 316.535156 166.515625 329.378906 183.074219 329.378906 C 199.632812 329.378906 212.761719 316.535156 212.761719 300.546875 Z M 165.089844 300.546875 C 165.089844 290.839844 173.367188 283.132812 183.359375 283.132812 C 193.351562 283.132812 201.628906 291.125 201.628906 300.546875 C 201.628906 309.96875 193.351562 317.960938 183.359375 317.960938 C 173.082031 318.246094 165.089844 310.253906 165.089844 300.546875 Z M 165.089844 300.546875 " fill-opacity="1" fill-rule="nonzero"/><path fill="#ffdb6e" d="M 159.09375 120.695312 C 162.804688 115.839844 165.089844 109.847656 165.089844 103.28125 C 165.089844 87.292969 151.957031 74.445312 135.398438 74.445312 C 127.691406 74.445312 120.839844 77.300781 115.414062 82.15625 C 119.410156 82.441406 123.121094 84.4375 125.976562 87.292969 L 126.832031 88.148438 C 129.402344 86.722656 132.257812 86.152344 135.398438 86.152344 C 145.390625 86.152344 153.667969 94.144531 153.667969 103.566406 C 153.667969 106.992188 152.527344 110.132812 151.101562 112.699219 Z M 159.09375 120.695312 " fill-opacity="1" fill-rule="nonzero"/><path fill="#ffdb6e" d="M 17.496094 20.492188 C 14.355469 20.777344 12.355469 23.632812 12.640625 26.769531 C 12.925781 29.625 15.496094 31.625 18.351562 31.625 C 31.769531 36.761719 36.90625 51.894531 42.617188 67.59375 C 50.039062 88.148438 58.890625 113.273438 90.292969 113.273438 C 90.863281 113.273438 91.71875 113.273438 92.289062 113.273438 C 92.003906 113.84375 92.003906 114.699219 92.003906 115.269531 C 92.003906 116.699219 92.578125 118.125 93.71875 119.265625 L 336.089844 357.070312 C 339.515625 360.496094 344.085938 362.210938 348.082031 362.210938 C 351.507812 362.210938 354.933594 361.066406 357.214844 358.5 C 362.640625 353.074219 362.070312 343.652344 355.789062 337.085938 L 117.699219 95 C 116.84375 93.859375 115.414062 93.289062 113.703125 93.289062 C 113.417969 93.289062 112.84375 93.289062 112.558594 93.289062 C 101.996094 46.46875 61.171875 14.210938 17.496094 20.492188 Z M 175.652344 170.082031 L 347.507812 345.082031 C 349.507812 347.078125 349.792969 349.648438 349.222656 350.503906 C 348.367188 351.363281 346.082031 351.078125 343.796875 349.078125 L 168.800781 176.933594 Z M 113.703125 107.277344 L 167.65625 162.089844 L 160.519531 169.226562 L 105.707031 115.269531 Z M 53.179688 63.882812 C 49.183594 52.464844 44.902344 40.472656 37.191406 31.910156 C 68.882812 36.191406 96.003906 63.882812 102.28125 100.425781 C 68.882812 107.277344 62.03125 87.863281 53.179688 63.882812 Z M 53.179688 63.882812 " fill-opacity="1" fill-rule="nonzero"/><g clip-path="url(#2c361bea9d)"><path fill="#ffdb6e" d="M 304.402344 147.816406 C 304.6875 147.816406 304.972656 147.816406 305.257812 147.816406 L 309.828125 146.671875 C 311.253906 146.386719 312.679688 145.246094 313.539062 144.101562 L 328.382812 118.980469 C 336.089844 105.847656 344.082031 92.433594 342.085938 75.015625 C 340.371094 60.457031 331.238281 46.46875 316.105469 35.050781 C 291.269531 16.207031 255.300781 4.789062 221.898438 4.789062 C 176.792969 4.789062 135.113281 20.492188 102.855469 46.46875 C 105.136719 49.324219 107.421875 52.464844 109.417969 55.890625 C 139.964844 31.054688 179.363281 16.207031 221.898438 16.207031 C 253.015625 16.207031 286.132812 26.769531 308.683594 43.898438 C 317.535156 50.464844 328.382812 61.601562 330.382812 76.160156 C 332.09375 89.578125 325.8125 100.425781 318.390625 112.984375 L 304.972656 136.109375 L 302.976562 136.679688 C 286.132812 138.109375 270.714844 146.101562 260.4375 158.378906 C 251.304688 169.226562 247.019531 182.644531 248.164062 196.347656 C 249.019531 205.195312 252.160156 213.476562 257.011719 220.328125 L 270.714844 234.03125 C 281.5625 242.023438 295.550781 246.304688 310.398438 245.734375 L 313.253906 249.160156 C 315.820312 252.585938 318.960938 256.296875 322.101562 260.007812 C 331.238281 270.855469 342.65625 284.273438 342.65625 295.121094 C 342.65625 299.117188 342.371094 302.832031 341.515625 306.257812 L 350.648438 315.675781 C 352.933594 309.394531 354.074219 302.542969 354.074219 295.121094 C 354.074219 279.992188 341.515625 265.433594 330.667969 252.585938 C 327.527344 248.875 324.386719 245.164062 322.101562 242.023438 C 322.101562 242.023438 321.816406 241.738281 321.816406 241.738281 L 316.679688 236.027344 C 315.535156 234.601562 313.824219 234.03125 311.824219 234.03125 C 284.988281 236.3125 261.292969 218.613281 259.296875 194.917969 C 258.441406 184.355469 261.867188 173.792969 269.003906 165.230469 C 277.566406 155.523438 290.414062 148.957031 304.402344 147.816406 Z M 304.402344 147.816406 " fill-opacity="1" fill-rule="nonzero"/></g><g clip-path="url(#e1c70708a1)"><path fill="#ffdb6e" d="M 52.324219 109.558594 C 40.90625 133.253906 34.339844 159.519531 34.339844 187.496094 C 34.339844 288.269531 118.554688 370.203125 222.183594 370.203125 C 241.597656 370.203125 283.277344 368.207031 314.964844 352.503906 L 306.402344 343.9375 C 276.140625 357.640625 236.457031 358.785156 222.46875 358.785156 C 125.121094 358.785156 46.042969 281.988281 46.042969 187.496094 C 46.042969 162.375 51.753906 138.394531 61.746094 116.984375 C 58.035156 114.699219 54.894531 112.414062 52.324219 109.558594 Z M 52.324219 109.558594 " fill-opacity="1" fill-rule="nonzero"/></g></svg>