<svg width="42" height="42" viewBox="0 0 42 42" fill="none" xmlns="http://www.w3.org/2000/svg">
<g clip-path="url(#clip0_875_19294)">
<g opacity="0.15">
<rect x="1" y="2" width="3" height="22" rx="1.5" fill="#D9D9D9"/>
<rect x="1" y="2" width="3" height="22" rx="1.5" fill="url(#paint0_linear_875_19294)"/>
<rect y="28" width="22" height="13" rx="1" fill="#D9D9D9"/>
<rect y="28" width="22" height="13" rx="1" fill="url(#paint1_linear_875_19294)"/>
<rect x="27" y="16" width="15" height="9" rx="1" fill="#D9D9D9"/>
<rect x="27" y="16" width="15" height="9" rx="1" fill="url(#paint2_linear_875_19294)"/>
<path d="M7 2C7 1.44771 7.44772 1 8 1H33C33.5523 1 34 1.44772 34 2V19.5V28.75V32.5858C34 32.851 33.8946 33.1054 33.7071 33.2929L29.2929 37.7071C29.1054 37.8946 28.851 38 28.5858 38H20.5H8C7.44772 38 7 37.5523 7 37V2Z" fill="#D9D9D9"/>
<path d="M7 2C7 1.44771 7.44772 1 8 1H33C33.5523 1 34 1.44772 34 2V19.5V28.75V32.5858C34 32.851 33.8946 33.1054 33.7071 33.2929L29.2929 37.7071C29.1054 37.8946 28.851 38 28.5858 38H20.5H8C7.44772 38 7 37.5523 7 37V2Z" fill="url(#paint3_linear_875_19294)"/>
</g>
<path d="M6.67781 27.2319C6.67781 27.01 6.67781 26.833 6.67781 26.6548C6.67781 18.6409 6.67781 10.6271 6.68005 2.61319C6.68005 2.37673 6.68566 2.13355 6.74057 1.90606C6.85264 1.44658 7.15971 1.15185 7.62254 1.05211C7.83883 1.00504 8.06633 1.00168 8.28934 1.00168C16.6092 0.99944 24.9291 0.99944 33.2501 1.00168C33.4586 1.00168 33.6715 1.00728 33.8755 1.04539C34.354 1.13392 34.7025 1.49589 34.7753 1.97554C34.8067 2.18174 34.809 2.39354 34.809 2.60311C34.8112 6.78542 34.8101 10.9666 34.8101 15.1489C34.8101 15.3294 34.8101 15.5098 34.8101 15.7462H35.2875C37.1613 15.7462 39.035 15.7462 40.9088 15.7462C41.7078 15.7462 41.9981 16.0331 41.9981 16.8299C42.0003 19.5711 42.0003 22.3122 41.9981 25.0534C41.9981 25.8176 41.6955 26.1236 40.9301 26.1258C39.0563 26.1303 37.1826 26.1281 35.3088 26.1281C35.1564 26.1281 35.0051 26.1281 34.7933 26.1281C34.7933 26.3264 34.7933 26.4889 34.7933 26.6525C34.8 28.7784 34.8112 30.9032 34.8022 33.0291C34.8022 33.1995 34.6947 33.4079 34.5703 33.5334C32.9285 35.1942 31.28 36.8483 29.6147 38.4856C29.4701 38.6279 29.1978 38.7019 28.9848 38.7042C26.7625 38.7198 24.5391 38.7142 22.2507 38.7142C22.2507 39.158 22.2507 39.5861 22.2507 40.0142C22.2507 40.4479 22.2507 40.8816 22.2507 41.3153C22.2507 41.6907 22.0579 41.8835 21.6859 41.898C21.5738 41.9025 21.4617 41.9003 21.3508 41.9003C14.527 41.9003 7.70323 41.9003 0.879443 41.9003C0.0860056 41.9003 0.00979866 41.8252 0.00979866 41.0463C0.00755732 36.641 0.00531515 32.2357 0.00195312 27.8304C0.00195312 27.3742 0.134197 27.2353 0.601518 27.2342C2.46184 27.2342 4.32103 27.2342 6.18134 27.2353C6.33152 27.2353 6.48169 27.2353 6.68005 27.2353L6.67781 27.2319ZM33.8485 15.744C33.8485 15.5535 33.8485 15.4157 33.8485 15.2778C33.8485 11.0271 33.8485 6.77534 33.8485 2.52466C33.8485 2.15484 33.6636 1.96956 33.2938 1.96881C24.947 1.96881 16.5991 1.96881 8.25236 1.96881C7.84892 1.96881 7.64682 2.16941 7.64607 2.57061C7.64607 10.6259 7.64607 18.6801 7.64607 26.7355V27.233C7.85228 27.233 8.01702 27.233 8.18064 27.233C12.6544 27.233 17.1292 27.233 21.603 27.233C22.1106 27.233 22.2563 27.3776 22.2563 27.8673C22.2541 31.0276 22.2529 34.1879 22.2529 37.3482C22.2529 37.4692 22.2686 37.5891 22.2776 37.7112H28.7316C28.7316 36.483 28.7293 35.2828 28.7316 34.0825C28.7338 33.1378 29.2336 32.6369 30.1851 32.6324C31.2475 32.6279 32.3099 32.6313 33.3734 32.6313C33.5202 32.6313 33.6681 32.6313 33.8205 32.6313V26.1314C32.9352 26.1314 32.0723 26.1314 31.2094 26.1314C30.0069 26.1303 28.8044 26.1382 27.603 26.1225C26.9553 26.1135 26.6348 25.7717 26.6336 25.1172C26.6303 22.3346 26.6303 19.5509 26.6336 16.7683C26.6336 16.069 26.9631 15.7518 27.6692 15.7462C28.0042 15.7429 28.3404 15.7462 28.6755 15.7462C30.3801 15.7462 32.0835 15.7462 33.8485 15.7462V15.744ZM21.26 28.6137C21.0729 28.728 20.9339 28.8098 20.7994 28.8961C17.7579 30.8539 14.713 32.8072 11.6794 34.7785C11.2871 35.0329 10.9902 35.0542 10.5845 34.7897C7.54185 32.8072 4.48465 30.8472 1.43193 28.8815C1.29521 28.7941 1.15625 28.7101 0.98703 28.6047V40.8984H21.26V28.6148V28.6137ZM41.0321 16.7324H31.5187V25.1318H41.0321V16.7324ZM2.19511 28.1957C2.27468 28.2697 2.30046 28.3033 2.3352 28.3257C5.18731 30.1625 8.04166 31.9959 10.8893 33.8394C11.0977 33.975 11.2311 33.9189 11.4082 33.8046C14.1874 32.0104 16.9712 30.2219 19.7538 28.431C19.8424 28.3739 19.9231 28.3066 20.071 28.1957H2.19623H2.19511ZM27.6266 25.1374H30.4955V16.738H27.6266V25.1374ZM29.6965 36.8808C30.8003 35.7837 31.8986 34.6911 32.9935 33.604C32.0297 33.604 31.0267 33.5928 30.0248 33.6197C29.9127 33.6231 29.7144 33.8349 29.711 33.9548C29.6853 34.9454 29.6965 35.9361 29.6965 36.882V36.8808Z" fill="url(#paint4_linear_875_19294)"/>
<path d="M6.67781 27.2319C6.67781 27.01 6.67781 26.833 6.67781 26.6548C6.67781 18.6409 6.67781 10.6271 6.68005 2.61319C6.68005 2.37673 6.68566 2.13355 6.74057 1.90606C6.85264 1.44658 7.15971 1.15185 7.62254 1.05211C7.83883 1.00504 8.06633 1.00168 8.28934 1.00168C16.6092 0.99944 24.9291 0.99944 33.2501 1.00168C33.4586 1.00168 33.6715 1.00728 33.8755 1.04539C34.354 1.13392 34.7025 1.49589 34.7753 1.97554C34.8067 2.18174 34.809 2.39354 34.809 2.60311C34.8112 6.78542 34.8101 10.9666 34.8101 15.1489C34.8101 15.3294 34.8101 15.5098 34.8101 15.7462H35.2875C37.1613 15.7462 39.035 15.7462 40.9088 15.7462C41.7078 15.7462 41.9981 16.0331 41.9981 16.8299C42.0003 19.5711 42.0003 22.3122 41.9981 25.0534C41.9981 25.8176 41.6955 26.1236 40.9301 26.1258C39.0563 26.1303 37.1826 26.1281 35.3088 26.1281C35.1564 26.1281 35.0051 26.1281 34.7933 26.1281C34.7933 26.3264 34.7933 26.4889 34.7933 26.6525C34.8 28.7784 34.8112 30.9032 34.8022 33.0291C34.8022 33.1995 34.6947 33.4079 34.5703 33.5334C32.9285 35.1942 31.28 36.8483 29.6147 38.4856C29.4701 38.6279 29.1978 38.7019 28.9848 38.7042C26.7625 38.7198 24.5391 38.7142 22.2507 38.7142C22.2507 39.158 22.2507 39.5861 22.2507 40.0142C22.2507 40.4479 22.2507 40.8816 22.2507 41.3153C22.2507 41.6907 22.0579 41.8835 21.6859 41.898C21.5738 41.9025 21.4617 41.9003 21.3508 41.9003C14.527 41.9003 7.70323 41.9003 0.879443 41.9003C0.0860056 41.9003 0.00979866 41.8252 0.00979866 41.0463C0.00755732 36.641 0.00531515 32.2357 0.00195312 27.8304C0.00195312 27.3742 0.134197 27.2353 0.601518 27.2342C2.46184 27.2342 4.32103 27.2342 6.18134 27.2353C6.33152 27.2353 6.48169 27.2353 6.68005 27.2353L6.67781 27.2319ZM33.8485 15.744C33.8485 15.5535 33.8485 15.4157 33.8485 15.2778C33.8485 11.0271 33.8485 6.77534 33.8485 2.52466C33.8485 2.15484 33.6636 1.96956 33.2938 1.96881C24.947 1.96881 16.5991 1.96881 8.25236 1.96881C7.84892 1.96881 7.64682 2.16941 7.64607 2.57061C7.64607 10.6259 7.64607 18.6801 7.64607 26.7355V27.233C7.85228 27.233 8.01702 27.233 8.18064 27.233C12.6544 27.233 17.1292 27.233 21.603 27.233C22.1106 27.233 22.2563 27.3776 22.2563 27.8673C22.2541 31.0276 22.2529 34.1879 22.2529 37.3482C22.2529 37.4692 22.2686 37.5891 22.2776 37.7112H28.7316C28.7316 36.483 28.7293 35.2828 28.7316 34.0825C28.7338 33.1378 29.2336 32.6369 30.1851 32.6324C31.2475 32.6279 32.3099 32.6313 33.3734 32.6313C33.5202 32.6313 33.6681 32.6313 33.8205 32.6313V26.1314C32.9352 26.1314 32.0723 26.1314 31.2094 26.1314C30.0069 26.1303 28.8044 26.1382 27.603 26.1225C26.9553 26.1135 26.6348 25.7717 26.6336 25.1172C26.6303 22.3346 26.6303 19.5509 26.6336 16.7683C26.6336 16.069 26.9631 15.7518 27.6692 15.7462C28.0042 15.7429 28.3404 15.7462 28.6755 15.7462C30.3801 15.7462 32.0835 15.7462 33.8485 15.7462V15.744ZM21.26 28.6137C21.0729 28.728 20.9339 28.8098 20.7994 28.8961C17.7579 30.8539 14.713 32.8072 11.6794 34.7785C11.2871 35.0329 10.9902 35.0542 10.5845 34.7897C7.54185 32.8072 4.48465 30.8472 1.43193 28.8815C1.29521 28.7941 1.15625 28.7101 0.98703 28.6047V40.8984H21.26V28.6148V28.6137ZM41.0321 16.7324H31.5187V25.1318H41.0321V16.7324ZM2.19511 28.1957C2.27468 28.2697 2.30046 28.3033 2.3352 28.3257C5.18731 30.1625 8.04166 31.9959 10.8893 33.8394C11.0977 33.975 11.2311 33.9189 11.4082 33.8046C14.1874 32.0104 16.9712 30.2219 19.7538 28.431C19.8424 28.3739 19.9231 28.3066 20.071 28.1957H2.19623H2.19511ZM27.6266 25.1374H30.4955V16.738H27.6266V25.1374ZM29.6965 36.8808C30.8003 35.7837 31.8986 34.6911 32.9935 33.604C32.0297 33.604 31.0267 33.5928 30.0248 33.6197C29.9127 33.6231 29.7144 33.8349 29.711 33.9548C29.6853 34.9454 29.6965 35.9361 29.6965 36.882V36.8808Z" stroke="#303030" stroke-width="0.3"/>
<path d="M6.67781 27.2319C6.67781 27.01 6.67781 26.833 6.67781 26.6548C6.67781 18.6409 6.67781 10.6271 6.68005 2.61319C6.68005 2.37673 6.68566 2.13355 6.74057 1.90606C6.85264 1.44658 7.15971 1.15185 7.62254 1.05211C7.83883 1.00504 8.06633 1.00168 8.28934 1.00168C16.6092 0.99944 24.9291 0.99944 33.2501 1.00168C33.4586 1.00168 33.6715 1.00728 33.8755 1.04539C34.354 1.13392 34.7025 1.49589 34.7753 1.97554C34.8067 2.18174 34.809 2.39354 34.809 2.60311C34.8112 6.78542 34.8101 10.9666 34.8101 15.1489C34.8101 15.3294 34.8101 15.5098 34.8101 15.7462H35.2875C37.1613 15.7462 39.035 15.7462 40.9088 15.7462C41.7078 15.7462 41.9981 16.0331 41.9981 16.8299C42.0003 19.5711 42.0003 22.3122 41.9981 25.0534C41.9981 25.8176 41.6955 26.1236 40.9301 26.1258C39.0563 26.1303 37.1826 26.1281 35.3088 26.1281C35.1564 26.1281 35.0051 26.1281 34.7933 26.1281C34.7933 26.3264 34.7933 26.4889 34.7933 26.6525C34.8 28.7784 34.8112 30.9032 34.8022 33.0291C34.8022 33.1995 34.6947 33.4079 34.5703 33.5334C32.9285 35.1942 31.28 36.8483 29.6147 38.4856C29.4701 38.6279 29.1978 38.7019 28.9848 38.7042C26.7625 38.7198 24.5391 38.7142 22.2507 38.7142C22.2507 39.158 22.2507 39.5861 22.2507 40.0142C22.2507 40.4479 22.2507 40.8816 22.2507 41.3153C22.2507 41.6907 22.0579 41.8835 21.6859 41.898C21.5738 41.9025 21.4617 41.9003 21.3508 41.9003C14.527 41.9003 7.70323 41.9003 0.879443 41.9003C0.0860056 41.9003 0.00979866 41.8252 0.00979866 41.0463C0.00755732 36.641 0.00531515 32.2357 0.00195312 27.8304C0.00195312 27.3742 0.134197 27.2353 0.601518 27.2342C2.46184 27.2342 4.32103 27.2342 6.18134 27.2353C6.33152 27.2353 6.48169 27.2353 6.68005 27.2353L6.67781 27.2319ZM33.8485 15.744C33.8485 15.5535 33.8485 15.4157 33.8485 15.2778C33.8485 11.0271 33.8485 6.77534 33.8485 2.52466C33.8485 2.15484 33.6636 1.96956 33.2938 1.96881C24.947 1.96881 16.5991 1.96881 8.25236 1.96881C7.84892 1.96881 7.64682 2.16941 7.64607 2.57061C7.64607 10.6259 7.64607 18.6801 7.64607 26.7355V27.233C7.85228 27.233 8.01702 27.233 8.18064 27.233C12.6544 27.233 17.1292 27.233 21.603 27.233C22.1106 27.233 22.2563 27.3776 22.2563 27.8673C22.2541 31.0276 22.2529 34.1879 22.2529 37.3482C22.2529 37.4692 22.2686 37.5891 22.2776 37.7112H28.7316C28.7316 36.483 28.7293 35.2828 28.7316 34.0825C28.7338 33.1378 29.2336 32.6369 30.1851 32.6324C31.2475 32.6279 32.3099 32.6313 33.3734 32.6313C33.5202 32.6313 33.6681 32.6313 33.8205 32.6313V26.1314C32.9352 26.1314 32.0723 26.1314 31.2094 26.1314C30.0069 26.1303 28.8044 26.1382 27.603 26.1225C26.9553 26.1135 26.6348 25.7717 26.6336 25.1172C26.6303 22.3346 26.6303 19.5509 26.6336 16.7683C26.6336 16.069 26.9631 15.7518 27.6692 15.7462C28.0042 15.7429 28.3404 15.7462 28.6755 15.7462C30.3801 15.7462 32.0835 15.7462 33.8485 15.7462V15.744ZM21.26 28.6137C21.0729 28.728 20.9339 28.8098 20.7994 28.8961C17.7579 30.8539 14.713 32.8072 11.6794 34.7785C11.2871 35.0329 10.9902 35.0542 10.5845 34.7897C7.54185 32.8072 4.48465 30.8472 1.43193 28.8815C1.29521 28.7941 1.15625 28.7101 0.98703 28.6047V40.8984H21.26V28.6148V28.6137ZM41.0321 16.7324H31.5187V25.1318H41.0321V16.7324ZM2.19511 28.1957C2.27468 28.2697 2.30046 28.3033 2.3352 28.3257C5.18731 30.1625 8.04166 31.9959 10.8893 33.8394C11.0977 33.975 11.2311 33.9189 11.4082 33.8046C14.1874 32.0104 16.9712 30.2219 19.7538 28.431C19.8424 28.3739 19.9231 28.3066 20.071 28.1957H2.19623H2.19511ZM27.6266 25.1374H30.4955V16.738H27.6266V25.1374ZM29.6965 36.8808C30.8003 35.7837 31.8986 34.6911 32.9935 33.604C32.0297 33.604 31.0267 33.5928 30.0248 33.6197C29.9127 33.6231 29.7144 33.8349 29.711 33.9548C29.6853 34.9454 29.6965 35.9361 29.6965 36.882V36.8808Z" stroke="url(#paint5_linear_875_19294)" stroke-width="0.3"/>
<path d="M0.0101742 12.8753C0.0101742 10.1633 0.0124134 7.45244 0.00793067 4.74043C0.00793067 4.36613 0.0225044 4.01873 0.363189 3.76434C0.438274 3.7083 0.450601 3.54469 0.460687 3.42814C0.486463 3.1222 0.460685 2.80953 0.514478 2.51031C0.678096 1.58801 1.50179 0.945868 2.40057 1.00975C3.36659 1.07811 4.0928 1.81886 4.13538 2.78376C4.14211 2.92384 4.14434 3.06392 4.13649 3.20288C4.12192 3.48417 4.16228 3.70942 4.38753 3.94476C4.55115 4.11622 4.59598 4.45466 4.5971 4.71802C4.61055 7.56899 4.60382 10.4211 4.60606 13.272C4.6083 15.9426 4.61839 18.612 4.61839 21.2825C4.61839 21.4159 4.57692 21.5593 4.51864 21.6815C3.95943 22.838 3.4047 23.9957 2.81747 25.1376C2.71773 25.3315 2.47118 25.5724 2.29523 25.5691C2.11816 25.5657 1.8817 25.3203 1.78084 25.1242C1.20145 23.9945 0.652321 22.8481 0.10207 21.7039C0.0381919 21.5717 0.00457221 21.4114 0.00457221 21.2646C-0.00103116 18.4686 9.19725e-05 15.6725 9.19725e-05 12.8764C0.00345399 12.8764 0.00569042 12.8764 0.00905244 12.8764L0.0101742 12.8753ZM3.61651 20.8813V7.71467H0.975073V20.8802H3.61651V20.8813ZM3.62996 4.64518H0.977317V6.69599H3.62996V4.64518ZM1.43679 3.62089H3.18504C3.15926 3.0572 3.33633 2.47333 2.76703 2.10239C2.46109 1.90291 2.12265 1.9074 1.81894 2.11584C1.25524 2.50247 1.47489 3.08297 1.43679 3.62089ZM2.30531 24.0349C2.67626 23.2684 3.0035 22.5915 3.3453 21.8843H1.26085C1.60602 22.596 1.93213 23.2672 2.30419 24.0349H2.30531Z" fill="url(#paint6_linear_875_19294)"/>
<path d="M0.0101742 12.8753C0.0101742 10.1633 0.0124134 7.45244 0.00793067 4.74043C0.00793067 4.36613 0.0225044 4.01873 0.363189 3.76434C0.438274 3.7083 0.450601 3.54469 0.460687 3.42814C0.486463 3.1222 0.460685 2.80953 0.514478 2.51031C0.678096 1.58801 1.50179 0.945868 2.40057 1.00975C3.36659 1.07811 4.0928 1.81886 4.13538 2.78376C4.14211 2.92384 4.14434 3.06392 4.13649 3.20288C4.12192 3.48417 4.16228 3.70942 4.38753 3.94476C4.55115 4.11622 4.59598 4.45466 4.5971 4.71802C4.61055 7.56899 4.60382 10.4211 4.60606 13.272C4.6083 15.9426 4.61839 18.612 4.61839 21.2825C4.61839 21.4159 4.57692 21.5593 4.51864 21.6815C3.95943 22.838 3.4047 23.9957 2.81747 25.1376C2.71773 25.3315 2.47118 25.5724 2.29523 25.5691C2.11816 25.5657 1.8817 25.3203 1.78084 25.1242C1.20145 23.9945 0.652321 22.8481 0.10207 21.7039C0.0381919 21.5717 0.00457221 21.4114 0.00457221 21.2646C-0.00103116 18.4686 9.19725e-05 15.6725 9.19725e-05 12.8764C0.00345399 12.8764 0.00569042 12.8764 0.00905244 12.8764L0.0101742 12.8753ZM3.61651 20.8813V7.71467H0.975073V20.8802H3.61651V20.8813ZM3.62996 4.64518H0.977317V6.69599H3.62996V4.64518ZM1.43679 3.62089H3.18504C3.15926 3.0572 3.33633 2.47333 2.76703 2.10239C2.46109 1.90291 2.12265 1.9074 1.81894 2.11584C1.25524 2.50247 1.47489 3.08297 1.43679 3.62089ZM2.30531 24.0349C2.67626 23.2684 3.0035 22.5915 3.3453 21.8843H1.26085C1.60602 22.596 1.93213 23.2672 2.30419 24.0349H2.30531Z" stroke="#303030" stroke-width="0.3"/>
<path d="M0.0101742 12.8753C0.0101742 10.1633 0.0124134 7.45244 0.00793067 4.74043C0.00793067 4.36613 0.0225044 4.01873 0.363189 3.76434C0.438274 3.7083 0.450601 3.54469 0.460687 3.42814C0.486463 3.1222 0.460685 2.80953 0.514478 2.51031C0.678096 1.58801 1.50179 0.945868 2.40057 1.00975C3.36659 1.07811 4.0928 1.81886 4.13538 2.78376C4.14211 2.92384 4.14434 3.06392 4.13649 3.20288C4.12192 3.48417 4.16228 3.70942 4.38753 3.94476C4.55115 4.11622 4.59598 4.45466 4.5971 4.71802C4.61055 7.56899 4.60382 10.4211 4.60606 13.272C4.6083 15.9426 4.61839 18.612 4.61839 21.2825C4.61839 21.4159 4.57692 21.5593 4.51864 21.6815C3.95943 22.838 3.4047 23.9957 2.81747 25.1376C2.71773 25.3315 2.47118 25.5724 2.29523 25.5691C2.11816 25.5657 1.8817 25.3203 1.78084 25.1242C1.20145 23.9945 0.652321 22.8481 0.10207 21.7039C0.0381919 21.5717 0.00457221 21.4114 0.00457221 21.2646C-0.00103116 18.4686 9.19725e-05 15.6725 9.19725e-05 12.8764C0.00345399 12.8764 0.00569042 12.8764 0.00905244 12.8764L0.0101742 12.8753ZM3.61651 20.8813V7.71467H0.975073V20.8802H3.61651V20.8813ZM3.62996 4.64518H0.977317V6.69599H3.62996V4.64518ZM1.43679 3.62089H3.18504C3.15926 3.0572 3.33633 2.47333 2.76703 2.10239C2.46109 1.90291 2.12265 1.9074 1.81894 2.11584C1.25524 2.50247 1.47489 3.08297 1.43679 3.62089ZM2.30531 24.0349C2.67626 23.2684 3.0035 22.5915 3.3453 21.8843H1.26085C1.60602 22.596 1.93213 23.2672 2.30419 24.0349H2.30531Z" stroke="url(#paint7_linear_875_19294)" stroke-width="0.3"/>
<path d="M13.3816 11.7905C12.7114 11.7905 12.0401 11.7939 11.3699 11.7905C10.8567 11.7872 10.702 11.6303 10.6998 11.108C10.6964 10.0176 10.6964 8.92835 10.6998 7.83794C10.7009 7.30339 10.8421 7.15098 11.3599 7.14873C12.7148 7.14313 14.0708 7.14313 15.4257 7.14873C15.9367 7.15098 16.0622 7.2877 16.0645 7.80656C16.0678 8.92499 16.0678 10.0423 16.0645 11.1607C16.0622 11.6325 15.9087 11.7872 15.4369 11.7905C14.7521 11.7961 14.0674 11.7916 13.3827 11.7916L13.3816 11.7905ZM15.1052 8.12371H11.6983V10.7909H15.1052V8.12371Z" fill="url(#paint8_linear_875_19294)"/>
<path d="M13.3816 11.7905C12.7114 11.7905 12.0401 11.7939 11.3699 11.7905C10.8567 11.7872 10.702 11.6303 10.6998 11.108C10.6964 10.0176 10.6964 8.92835 10.6998 7.83794C10.7009 7.30339 10.8421 7.15098 11.3599 7.14873C12.7148 7.14313 14.0708 7.14313 15.4257 7.14873C15.9367 7.15098 16.0622 7.2877 16.0645 7.80656C16.0678 8.92499 16.0678 10.0423 16.0645 11.1607C16.0622 11.6325 15.9087 11.7872 15.4369 11.7905C14.7521 11.7961 14.0674 11.7916 13.3827 11.7916L13.3816 11.7905ZM15.1052 8.12371H11.6983V10.7909H15.1052V8.12371Z" stroke="#303030" stroke-width="0.3"/>
<path d="M13.3816 11.7905C12.7114 11.7905 12.0401 11.7939 11.3699 11.7905C10.8567 11.7872 10.702 11.6303 10.6998 11.108C10.6964 10.0176 10.6964 8.92835 10.6998 7.83794C10.7009 7.30339 10.8421 7.15098 11.3599 7.14873C12.7148 7.14313 14.0708 7.14313 15.4257 7.14873C15.9367 7.15098 16.0622 7.2877 16.0645 7.80656C16.0678 8.92499 16.0678 10.0423 16.0645 11.1607C16.0622 11.6325 15.9087 11.7872 15.4369 11.7905C14.7521 11.7961 14.0674 11.7916 13.3827 11.7916L13.3816 11.7905ZM15.1052 8.12371H11.6983V10.7909H15.1052V8.12371Z" stroke="url(#paint9_linear_875_19294)" stroke-width="0.3"/>
<path d="M25.0344 11.7906C23.1494 11.7906 21.2644 11.7906 19.3795 11.7906C19.2539 11.7906 19.0926 11.8309 19.0108 11.7682C18.8505 11.646 18.6309 11.4656 18.6309 11.3076C18.6309 11.1541 18.8539 10.9759 19.0141 10.856C19.0971 10.7932 19.2573 10.828 19.3828 10.828C23.1528 10.828 26.9227 10.828 30.6927 10.828C30.7487 10.828 30.8047 10.828 30.8608 10.828C31.1824 10.828 31.4559 10.9064 31.4872 11.2885C31.513 11.5978 31.2743 11.7884 30.8574 11.7895C28.9164 11.7928 26.9754 11.7906 25.0344 11.7906Z" fill="url(#paint10_linear_875_19294)"/>
<path d="M25.0344 11.7906C23.1494 11.7906 21.2644 11.7906 19.3795 11.7906C19.2539 11.7906 19.0926 11.8309 19.0108 11.7682C18.8505 11.646 18.6309 11.4656 18.6309 11.3076C18.6309 11.1541 18.8539 10.9759 19.0141 10.856C19.0971 10.7932 19.2573 10.828 19.3828 10.828C23.1528 10.828 26.9227 10.828 30.6927 10.828C30.7487 10.828 30.8047 10.828 30.8608 10.828C31.1824 10.828 31.4559 10.9064 31.4872 11.2885C31.513 11.5978 31.2743 11.7884 30.8574 11.7895C28.9164 11.7928 26.9754 11.7906 25.0344 11.7906Z" stroke="#303030" stroke-width="0.3"/>
<path d="M25.0344 11.7906C23.1494 11.7906 21.2644 11.7906 19.3795 11.7906C19.2539 11.7906 19.0926 11.8309 19.0108 11.7682C18.8505 11.646 18.6309 11.4656 18.6309 11.3076C18.6309 11.1541 18.8539 10.9759 19.0141 10.856C19.0971 10.7932 19.2573 10.828 19.3828 10.828C23.1528 10.828 26.9227 10.828 30.6927 10.828C30.7487 10.828 30.8047 10.828 30.8608 10.828C31.1824 10.828 31.4559 10.9064 31.4872 11.2885C31.513 11.5978 31.2743 11.7884 30.8574 11.7895C28.9164 11.7928 26.9754 11.7906 25.0344 11.7906Z" stroke="url(#paint11_linear_875_19294)" stroke-width="0.3"/>
<path d="M25.0803 7.1452C26.9373 7.1452 28.7943 7.1452 30.6512 7.1452C30.8047 7.1452 30.9885 7.10822 31.1028 7.1777C31.2597 7.27407 31.4592 7.45338 31.4637 7.60243C31.4682 7.75596 31.2855 7.94759 31.1376 8.06302C31.0468 8.13362 30.8686 8.09888 30.7308 8.09888C26.9328 8.1 23.1348 8.1 19.338 8.09888C19.2259 8.09888 19.0791 8.13698 19.0108 8.08095C18.8539 7.95208 18.632 7.77725 18.6309 7.61924C18.6309 7.46683 18.8494 7.27744 19.0152 7.17209C19.1273 7.10149 19.3145 7.14296 19.4669 7.14296C21.3373 7.14184 23.2088 7.14296 25.0792 7.14296L25.0803 7.1452Z" fill="url(#paint12_linear_875_19294)"/>
<path d="M25.0803 7.1452C26.9373 7.1452 28.7943 7.1452 30.6512 7.1452C30.8047 7.1452 30.9885 7.10822 31.1028 7.1777C31.2597 7.27407 31.4592 7.45338 31.4637 7.60243C31.4682 7.75596 31.2855 7.94759 31.1376 8.06302C31.0468 8.13362 30.8686 8.09888 30.7308 8.09888C26.9328 8.1 23.1348 8.1 19.338 8.09888C19.2259 8.09888 19.0791 8.13698 19.0108 8.08095C18.8539 7.95208 18.632 7.77725 18.6309 7.61924C18.6309 7.46683 18.8494 7.27744 19.0152 7.17209C19.1273 7.10149 19.3145 7.14296 19.4669 7.14296C21.3373 7.14184 23.2088 7.14296 25.0792 7.14296L25.0803 7.1452Z" stroke="#303030" stroke-width="0.3"/>
<path d="M25.0803 7.1452C26.9373 7.1452 28.7943 7.1452 30.6512 7.1452C30.8047 7.1452 30.9885 7.10822 31.1028 7.1777C31.2597 7.27407 31.4592 7.45338 31.4637 7.60243C31.4682 7.75596 31.2855 7.94759 31.1376 8.06302C31.0468 8.13362 30.8686 8.09888 30.7308 8.09888C26.9328 8.1 23.1348 8.1 19.338 8.09888C19.2259 8.09888 19.0791 8.13698 19.0108 8.08095C18.8539 7.95208 18.632 7.77725 18.6309 7.61924C18.6309 7.46683 18.8494 7.27744 19.0152 7.17209C19.1273 7.10149 19.3145 7.14296 19.4669 7.14296C21.3373 7.14184 23.2088 7.14296 25.0792 7.14296L25.0803 7.1452Z" stroke="url(#paint13_linear_875_19294)" stroke-width="0.3"/>
<path d="M5.11218 35.7954C6.0838 35.7965 6.8694 36.5765 6.87724 37.5459C6.88397 38.5186 6.06364 39.3322 5.08753 39.321C4.12263 39.3098 3.34488 38.513 3.35161 37.5425C3.35833 36.5664 4.13831 35.7932 5.11218 35.7954ZM5.09873 38.364C5.53916 38.3707 5.90114 38.0199 5.91122 37.5773C5.92131 37.1189 5.55037 36.7368 5.10098 36.7424C4.66728 36.748 4.30865 37.1144 4.30753 37.5537C4.30753 37.9953 4.66055 38.3573 5.09873 38.364Z" fill="url(#paint14_linear_875_19294)"/>
<path d="M5.11218 35.7954C6.0838 35.7965 6.8694 36.5765 6.87724 37.5459C6.88397 38.5186 6.06364 39.3322 5.08753 39.321C4.12263 39.3098 3.34488 38.513 3.35161 37.5425C3.35833 36.5664 4.13831 35.7932 5.11218 35.7954ZM5.09873 38.364C5.53916 38.3707 5.90114 38.0199 5.91122 37.5773C5.92131 37.1189 5.55037 36.7368 5.10098 36.7424C4.66728 36.748 4.30865 37.1144 4.30753 37.5537C4.30753 37.9953 4.66055 38.3573 5.09873 38.364Z" stroke="#303030" stroke-width="0.3"/>
<path d="M5.11218 35.7954C6.0838 35.7965 6.8694 36.5765 6.87724 37.5459C6.88397 38.5186 6.06364 39.3322 5.08753 39.321C4.12263 39.3098 3.34488 38.513 3.35161 37.5425C3.35833 36.5664 4.13831 35.7932 5.11218 35.7954ZM5.09873 38.364C5.53916 38.3707 5.90114 38.0199 5.91122 37.5773C5.92131 37.1189 5.55037 36.7368 5.10098 36.7424C4.66728 36.748 4.30865 37.1144 4.30753 37.5537C4.30753 37.9953 4.66055 38.3573 5.09873 38.364Z" stroke="url(#paint15_linear_875_19294)" stroke-width="0.3"/>
<path d="M16.4172 39.3229C15.8031 39.3229 15.1878 39.3251 14.5737 39.3229C14.14 39.3207 13.9237 39.1582 13.936 38.8399C13.9517 38.4488 14.2173 38.3714 14.5446 38.3726C15.7874 38.3748 17.0302 38.3759 18.273 38.3726C18.6014 38.3726 18.8648 38.4555 18.8962 38.8343C18.9219 39.1413 18.681 39.3218 18.2596 39.324C17.6455 39.3274 17.0302 39.324 16.4161 39.324L16.4172 39.3229Z" fill="url(#paint16_linear_875_19294)"/>
<path d="M16.4172 39.3229C15.8031 39.3229 15.1878 39.3251 14.5737 39.3229C14.14 39.3207 13.9237 39.1582 13.936 38.8399C13.9517 38.4488 14.2173 38.3714 14.5446 38.3726C15.7874 38.3748 17.0302 38.3759 18.273 38.3726C18.6014 38.3726 18.8648 38.4555 18.8962 38.8343C18.9219 39.1413 18.681 39.3218 18.2596 39.324C17.6455 39.3274 17.0302 39.324 16.4161 39.324L16.4172 39.3229Z" stroke="#303030" stroke-width="0.3"/>
<path d="M16.4172 39.3229C15.8031 39.3229 15.1878 39.3251 14.5737 39.3229C14.14 39.3207 13.9237 39.1582 13.936 38.8399C13.9517 38.4488 14.2173 38.3714 14.5446 38.3726C15.7874 38.3748 17.0302 38.3759 18.273 38.3726C18.6014 38.3726 18.8648 38.4555 18.8962 38.8343C18.9219 39.1413 18.681 39.3218 18.2596 39.324C17.6455 39.3274 17.0302 39.324 16.4161 39.324L16.4172 39.3229Z" stroke="url(#paint17_linear_875_19294)" stroke-width="0.3"/>
<path d="M17.1429 35.7927C17.5485 35.7927 17.9531 35.7927 18.3588 35.7927C18.6715 35.7927 18.8877 35.935 18.8934 36.2532C18.9001 36.5973 18.6737 36.7385 18.3431 36.7374C17.5183 36.7351 16.6935 36.734 15.8687 36.7374C15.5515 36.7385 15.3386 36.5939 15.3341 36.279C15.3285 35.9406 15.5504 35.7893 15.8843 35.7915C16.3035 35.7949 16.7226 35.7915 17.1429 35.7915V35.7927Z" fill="url(#paint18_linear_875_19294)"/>
<path d="M17.1429 35.7927C17.5485 35.7927 17.9531 35.7927 18.3588 35.7927C18.6715 35.7927 18.8877 35.935 18.8934 36.2532C18.9001 36.5973 18.6737 36.7385 18.3431 36.7374C17.5183 36.7351 16.6935 36.734 15.8687 36.7374C15.5515 36.7385 15.3386 36.5939 15.3341 36.279C15.3285 35.9406 15.5504 35.7893 15.8843 35.7915C16.3035 35.7949 16.7226 35.7915 17.1429 35.7915V35.7927Z" stroke="#303030" stroke-width="0.3"/>
<path d="M17.1429 35.7927C17.5485 35.7927 17.9531 35.7927 18.3588 35.7927C18.6715 35.7927 18.8877 35.935 18.8934 36.2532C18.9001 36.5973 18.6737 36.7385 18.3431 36.7374C17.5183 36.7351 16.6935 36.734 15.8687 36.7374C15.5515 36.7385 15.3386 36.5939 15.3341 36.279C15.3285 35.9406 15.5504 35.7893 15.8843 35.7915C16.3035 35.7949 16.7226 35.7915 17.1429 35.7915V35.7927Z" stroke="url(#paint19_linear_875_19294)" stroke-width="0.3"/>
<path d="M37.2557 21.186C37.7712 21.186 38.2878 21.1872 38.8034 21.186C39.1194 21.1849 39.3245 21.3317 39.3289 21.65C39.3323 21.9671 39.1373 22.1274 38.8179 22.1274C37.7723 22.1274 36.7256 22.1296 35.68 22.1263C35.3662 22.1252 35.1701 21.9694 35.178 21.6433C35.1858 21.3138 35.3987 21.186 35.7069 21.186C36.2224 21.186 36.7391 21.186 37.2546 21.186H37.2557Z" fill="url(#paint20_linear_875_19294)"/>
<path d="M37.2557 21.186C37.7712 21.186 38.2878 21.1872 38.8034 21.186C39.1194 21.1849 39.3245 21.3317 39.3289 21.65C39.3323 21.9671 39.1373 22.1274 38.8179 22.1274C37.7723 22.1274 36.7256 22.1296 35.68 22.1263C35.3662 22.1252 35.1701 21.9694 35.178 21.6433C35.1858 21.3138 35.3987 21.186 35.7069 21.186C36.2224 21.186 36.7391 21.186 37.2546 21.186H37.2557Z" stroke="#303030" stroke-width="0.3"/>
<path d="M37.2557 21.186C37.7712 21.186 38.2878 21.1872 38.8034 21.186C39.1194 21.1849 39.3245 21.3317 39.3289 21.65C39.3323 21.9671 39.1373 22.1274 38.8179 22.1274C37.7723 22.1274 36.7256 22.1296 35.68 22.1263C35.3662 22.1252 35.1701 21.9694 35.178 21.6433C35.1858 21.3138 35.3987 21.186 35.7069 21.186C36.2224 21.186 36.7391 21.186 37.2546 21.186H37.2557Z" stroke="url(#paint21_linear_875_19294)" stroke-width="0.3"/>
<path d="M37.9066 19.6811C37.5995 19.6811 37.2925 19.6844 36.9854 19.6811C36.6716 19.6766 36.4665 19.5152 36.4688 19.2014C36.471 18.8854 36.6817 18.7352 36.9955 18.7363C37.6096 18.7363 38.2226 18.7363 38.8368 18.7386C39.1349 18.7397 39.3231 18.8921 39.3287 19.1902C39.3355 19.5096 39.1405 19.6721 38.8267 19.6799C38.5196 19.6878 38.2125 19.6811 37.9066 19.6822V19.6811Z" fill="url(#paint22_linear_875_19294)"/>
<path d="M37.9066 19.6811C37.5995 19.6811 37.2925 19.6844 36.9854 19.6811C36.6716 19.6766 36.4665 19.5152 36.4688 19.2014C36.471 18.8854 36.6817 18.7352 36.9955 18.7363C37.6096 18.7363 38.2226 18.7363 38.8368 18.7386C39.1349 18.7397 39.3231 18.8921 39.3287 19.1902C39.3355 19.5096 39.1405 19.6721 38.8267 19.6799C38.5196 19.6878 38.2125 19.6811 37.9066 19.6822V19.6811Z" stroke="#303030" stroke-width="0.3"/>
<path d="M37.9066 19.6811C37.5995 19.6811 37.2925 19.6844 36.9854 19.6811C36.6716 19.6766 36.4665 19.5152 36.4688 19.2014C36.471 18.8854 36.6817 18.7352 36.9955 18.7363C37.6096 18.7363 38.2226 18.7363 38.8368 18.7386C39.1349 18.7397 39.3231 18.8921 39.3287 19.1902C39.3355 19.5096 39.1405 19.6721 38.8267 19.6799C38.5196 19.6878 38.2125 19.6811 37.9066 19.6822V19.6811Z" stroke="url(#paint23_linear_875_19294)" stroke-width="0.3"/>
</g>
<defs>
<linearGradient id="paint0_linear_875_19294" x1="1.17" y1="2" x2="6.7907" y2="2.84636" gradientUnits="userSpaceOnUse">
<stop offset="0.259336" stop-color="#FFDB6E"/>
<stop offset="1" stop-color="#FFBC5E"/>
</linearGradient>
<linearGradient id="paint1_linear_875_19294" x1="1.24667" y1="28" x2="10.6304" y2="45.5356" gradientUnits="userSpaceOnUse">
<stop offset="0.259336" stop-color="#FFDB6E"/>
<stop offset="1" stop-color="#FFBC5E"/>
</linearGradient>
<linearGradient id="paint2_linear_875_19294" x1="27.85" y1="16" x2="34.4012" y2="28.0568" gradientUnits="userSpaceOnUse">
<stop offset="0.259336" stop-color="#FFDB6E"/>
<stop offset="1" stop-color="#FFBC5E"/>
</linearGradient>
<linearGradient id="paint3_linear_875_19294" x1="8.53" y1="1" x2="39.8965" y2="26.2752" gradientUnits="userSpaceOnUse">
<stop offset="0.259336" stop-color="#FFDB6E"/>
<stop offset="1" stop-color="#FFBC5E"/>
</linearGradient>
<linearGradient id="paint4_linear_875_19294" x1="2.38183" y1="1" x2="37.5885" y2="40.9195" gradientUnits="userSpaceOnUse">
<stop offset="0.259336" stop-color="#FFDB6E"/>
<stop offset="1" stop-color="#FFBC5E"/>
</linearGradient>
<linearGradient id="paint5_linear_875_19294" x1="2.38183" y1="1" x2="37.5885" y2="40.9195" gradientUnits="userSpaceOnUse">
<stop offset="0.259336" stop-color="#FFDB6E"/>
<stop offset="1" stop-color="#FFBC5E"/>
</linearGradient>
<linearGradient id="paint6_linear_875_19294" x1="0.261708" y1="1.00537" x2="8.74508" y2="2.76666" gradientUnits="userSpaceOnUse">
<stop offset="0.259336" stop-color="#FFDB6E"/>
<stop offset="1" stop-color="#FFBC5E"/>
</linearGradient>
<linearGradient id="paint7_linear_875_19294" x1="0.261708" y1="1.00537" x2="8.74508" y2="2.76666" gradientUnits="userSpaceOnUse">
<stop offset="0.259336" stop-color="#FFDB6E"/>
<stop offset="1" stop-color="#FFBC5E"/>
</linearGradient>
<linearGradient id="paint8_linear_875_19294" x1="11.0015" y1="7.14453" x2="14.9182" y2="12.1402" gradientUnits="userSpaceOnUse">
<stop offset="0.259336" stop-color="#FFDB6E"/>
<stop offset="1" stop-color="#FFBC5E"/>
</linearGradient>
<linearGradient id="paint9_linear_875_19294" x1="11.0015" y1="7.14453" x2="14.9182" y2="12.1402" gradientUnits="userSpaceOnUse">
<stop offset="0.259336" stop-color="#FFDB6E"/>
<stop offset="1" stop-color="#FFBC5E"/>
</linearGradient>
<linearGradient id="paint10_linear_875_19294" x1="19.3595" y1="10.8184" x2="19.4775" y2="12.5193" gradientUnits="userSpaceOnUse">
<stop offset="0.259336" stop-color="#FFDB6E"/>
<stop offset="1" stop-color="#FFBC5E"/>
</linearGradient>
<linearGradient id="paint11_linear_875_19294" x1="19.3595" y1="10.8184" x2="19.4775" y2="12.5193" gradientUnits="userSpaceOnUse">
<stop offset="0.259336" stop-color="#FFDB6E"/>
<stop offset="1" stop-color="#FFBC5E"/>
</linearGradient>
<linearGradient id="paint12_linear_875_19294" x1="19.3581" y1="7.13086" x2="19.4753" y2="8.82438" gradientUnits="userSpaceOnUse">
<stop offset="0.259336" stop-color="#FFDB6E"/>
<stop offset="1" stop-color="#FFBC5E"/>
</linearGradient>
<linearGradient id="paint13_linear_875_19294" x1="19.3581" y1="7.13086" x2="19.4753" y2="8.82438" gradientUnits="userSpaceOnUse">
<stop offset="0.259336" stop-color="#FFDB6E"/>
<stop offset="1" stop-color="#FFBC5E"/>
</linearGradient>
<linearGradient id="paint14_linear_875_19294" x1="3.55135" y1="35.7954" x2="6.59523" y2="39.1566" gradientUnits="userSpaceOnUse">
<stop offset="0.259336" stop-color="#FFDB6E"/>
<stop offset="1" stop-color="#FFBC5E"/>
</linearGradient>
<linearGradient id="paint15_linear_875_19294" x1="3.55135" y1="35.7954" x2="6.59523" y2="39.1566" gradientUnits="userSpaceOnUse">
<stop offset="0.259336" stop-color="#FFDB6E"/>
<stop offset="1" stop-color="#FFBC5E"/>
</linearGradient>
<linearGradient id="paint16_linear_875_19294" x1="14.2168" y1="38.3726" x2="14.4959" y2="39.9775" gradientUnits="userSpaceOnUse">
<stop offset="0.259336" stop-color="#FFDB6E"/>
<stop offset="1" stop-color="#FFBC5E"/>
</linearGradient>
<linearGradient id="paint17_linear_875_19294" x1="14.2168" y1="38.3726" x2="14.4959" y2="39.9775" gradientUnits="userSpaceOnUse">
<stop offset="0.259336" stop-color="#FFDB6E"/>
<stop offset="1" stop-color="#FFBC5E"/>
</linearGradient>
<linearGradient id="paint18_linear_875_19294" x1="15.5357" y1="35.7915" x2="15.909" y2="37.3429" gradientUnits="userSpaceOnUse">
<stop offset="0.259336" stop-color="#FFDB6E"/>
<stop offset="1" stop-color="#FFBC5E"/>
</linearGradient>
<linearGradient id="paint19_linear_875_19294" x1="15.5357" y1="35.7915" x2="15.909" y2="37.3429" gradientUnits="userSpaceOnUse">
<stop offset="0.259336" stop-color="#FFDB6E"/>
<stop offset="1" stop-color="#FFBC5E"/>
</linearGradient>
<linearGradient id="paint20_linear_875_19294" x1="35.413" y1="21.186" x2="35.7353" y2="22.7545" gradientUnits="userSpaceOnUse">
<stop offset="0.259336" stop-color="#FFDB6E"/>
<stop offset="1" stop-color="#FFBC5E"/>
</linearGradient>
<linearGradient id="paint21_linear_875_19294" x1="35.413" y1="21.186" x2="35.7353" y2="22.7545" gradientUnits="userSpaceOnUse">
<stop offset="0.259336" stop-color="#FFDB6E"/>
<stop offset="1" stop-color="#FFBC5E"/>
</linearGradient>
<linearGradient id="paint22_linear_875_19294" x1="36.6308" y1="18.7363" x2="37.0833" y2="20.2446" gradientUnits="userSpaceOnUse">
<stop offset="0.259336" stop-color="#FFDB6E"/>
<stop offset="1" stop-color="#FFBC5E"/>
</linearGradient>
<linearGradient id="paint23_linear_875_19294" x1="36.6308" y1="18.7363" x2="37.0833" y2="20.2446" gradientUnits="userSpaceOnUse">
<stop offset="0.259336" stop-color="#FFDB6E"/>
<stop offset="1" stop-color="#FFBC5E"/>
</linearGradient>
<clipPath id="clip0_875_19294">
<rect width="42" height="42" fill="white"/>
</clipPath>
</defs>
</svg>
