<svg width="42" height="42" viewBox="0 0 42 42" fill="none" xmlns="http://www.w3.org/2000/svg">
<g clip-path="url(#clip0_875_19229)">
<g opacity="0.15">
<rect x="2.13281" y="7.1499" width="38.5193" height="25.625" rx="3.14999" fill="url(#paint0_linear_875_19229)"/>
<rect width="4.47882" height="11.5237" rx="2.23941" transform="matrix(0.80384 0.594846 -0.670617 0.741804 33.7285 2)" fill="url(#paint1_linear_875_19229)"/>
<rect x="19.127" y="32.7749" width="4.53168" height="5.125" fill="url(#paint2_linear_875_19229)"/>
<rect x="13.4609" y="38.9253" width="15.8609" height="2.05" fill="url(#paint3_linear_875_19229)"/>
</g>
<path d="M34.297 2.00104C34.6211 2.0981 34.9568 2.17428 35.2694 2.29639C37.16 3.0363 38.0344 5.01395 37.2396 6.73486C37.1797 6.86635 37.1139 6.99472 37.0205 7.1857C37.2039 7.19509 37.3504 7.20553 37.498 7.20866C39.4359 7.25771 40.8294 8.4516 40.9828 10.1965C40.9944 10.3259 40.999 10.4564 40.999 10.5868C40.999 17.1605 41.0013 23.7342 40.999 30.3079C40.999 31.8723 40.1292 33.0714 38.6331 33.5024C38.1636 33.6381 37.6457 33.6871 37.1497 33.6892C32.9335 33.7038 28.7186 33.6976 24.5024 33.6976H23.9683C24.1368 34.3425 24.2936 34.9426 24.4494 35.5437C24.6005 36.126 24.7585 36.7063 24.8992 37.2907C24.95 37.5026 25.0515 37.5923 25.3064 37.585C25.8521 37.5673 26.4 37.5787 26.9467 37.5798C28.7301 37.584 29.7833 38.5305 29.8063 40.1492C29.8063 40.2264 29.8063 40.3036 29.8063 40.4362C30.4523 40.4362 31.0798 40.4362 31.7062 40.4362C31.9934 40.4362 32.2829 40.4247 32.569 40.4424C33.0443 40.4716 33.3742 40.7931 33.3788 41.2074C33.3834 41.6227 33.0604 41.9483 32.5909 41.9922C32.4629 42.0047 32.3326 41.9984 32.2022 41.9984C24.7343 41.9984 17.2675 41.9984 9.79962 41.9984C9.68427 41.9984 9.56891 42.0026 9.45472 41.9953C8.95639 41.9619 8.61611 41.6405 8.62072 41.2095C8.62418 40.7795 8.96678 40.4518 9.47087 40.4414C10.2333 40.4257 10.9958 40.4362 11.7583 40.4362C11.8852 40.4362 12.0121 40.4362 12.1563 40.4362C12.192 40.0928 12.1955 39.7682 12.2647 39.4562C12.4919 38.4397 13.3917 37.6915 14.5337 37.609C15.2489 37.5579 15.971 37.5965 16.6896 37.5694C16.82 37.5641 17.0322 37.4587 17.0587 37.3648C17.3944 36.1688 17.7024 34.9676 18.0369 33.6976H17.5017C13.2429 33.6976 8.98408 33.7007 4.72527 33.6955C2.87963 33.6934 1.49425 32.7541 1.1032 31.2409C1.02822 30.9529 1.00516 30.6481 1.00516 30.3507C0.999388 23.7509 0.998232 17.1511 1.00285 10.5513C1.00285 8.87217 2.07216 7.60836 3.7713 7.27858C4.11851 7.21179 4.48534 7.21074 4.84409 7.21074C12.3685 7.20761 19.8941 7.20657 27.4185 7.21387C27.7565 7.21387 27.9653 7.13143 28.1522 6.8674C28.7647 6.00224 29.4441 5.17466 30.0301 4.29594C30.7776 3.1751 31.697 2.28386 33.1758 2C33.5495 2 33.9244 2 34.2982 2L34.297 2.00104ZM39.2721 25.3059V24.8311C39.2721 20.1056 39.2721 15.3791 39.2721 10.6536C39.2721 10.5106 39.2722 10.3666 39.2548 10.2247C39.1522 9.37623 38.4751 8.80121 37.5315 8.77511C37.0424 8.76155 36.5521 8.79181 36.0642 8.76468C35.7239 8.74589 35.514 8.86382 35.3052 9.0955C32.9139 11.7484 30.5181 14.3981 28.1026 17.0332C27.8061 17.3567 27.6896 17.6427 27.8373 18.0445C27.9215 18.2741 27.9295 18.5308 27.9469 18.7771C28.0945 20.8403 26.5292 22.5821 24.2786 22.7887C23.4689 22.8628 22.6429 22.7981 21.8239 22.7877C20.7258 22.7731 19.7245 22.9797 18.8767 23.6779C18.3541 24.1089 17.6401 23.8991 17.4579 23.2834C17.0357 21.8568 16.7761 20.4145 16.9249 18.9253C17.2029 16.1534 19.3023 14.3167 22.3776 14.1967C22.636 14.1862 22.7895 14.1132 22.9325 13.918C24.1068 12.313 25.2949 10.7152 26.4773 9.11429C26.5453 9.02245 26.6007 8.92226 26.6941 8.77407H26.2096C19.0578 8.77407 11.906 8.77407 4.75411 8.77407C3.3918 8.77407 2.72737 9.3825 2.72737 10.6307C2.72621 15.3697 2.72737 20.1087 2.72737 24.8477C2.72737 24.9876 2.72737 25.1274 2.72737 25.309C2.95 25.309 3.12072 25.309 3.29029 25.309C3.93741 25.3122 4.58685 25.2944 5.23167 25.3257C5.74268 25.3508 6.07258 25.6972 6.05874 26.1178C6.0449 26.5436 5.7 26.8431 5.18552 26.8671C4.99865 26.8765 4.81178 26.8713 4.62491 26.8713C4.01009 26.8713 3.39641 26.8713 2.75851 26.8713C2.74582 27.032 2.72852 27.1458 2.72852 27.2595C2.72621 28.2885 2.72391 29.3165 2.72852 30.3455C2.73429 31.4935 3.44024 32.1363 4.71143 32.1374C15.5765 32.1395 26.4404 32.1395 37.3054 32.1374C38.5512 32.1374 39.2629 31.4914 39.271 30.3695C39.2779 29.3801 39.2733 28.3908 39.2721 27.4015C39.2721 27.0494 39.0799 26.8734 38.6954 26.8734C29.9747 26.8734 21.2541 26.8734 12.5346 26.8734C12.3478 26.8734 12.1586 26.8786 11.974 26.8567C11.5668 26.8087 11.2715 26.5102 11.2473 26.1439C11.2231 25.7807 11.4792 25.4416 11.8783 25.3602C12.0997 25.3153 12.3351 25.3132 12.5635 25.3132C21.2553 25.3111 29.9471 25.3111 38.6389 25.3111C38.8246 25.3111 39.0091 25.3111 39.2733 25.3111L39.2721 25.3059ZM29.5456 12.9903C29.8398 12.6657 30.1039 12.3766 30.3669 12.0865C31.9911 10.2967 33.6107 8.50482 35.2394 6.71816C35.7424 6.16609 35.9442 5.55662 35.7043 4.8668C35.4471 4.12583 34.8611 3.68752 34.0236 3.5842C33.1815 3.47984 32.5021 3.78353 32.0269 4.42431C30.3762 6.64824 28.7312 8.8753 27.0863 11.1013C27.0494 11.1514 27.0275 11.2099 26.9917 11.2756C27.8407 11.8454 28.6701 12.4027 29.5468 12.9903H29.5456ZM18.8467 21.7827C20.0833 21.2327 21.351 21.1815 22.6406 21.2525C23.0271 21.2734 23.417 21.2901 23.8034 21.2703C25.0204 21.2087 25.9143 20.6201 26.1266 19.636C26.2304 19.1559 26.1404 18.6341 26.0828 18.1373C26.0632 17.9724 25.9005 17.7856 25.7448 17.6771C24.8796 17.0749 23.9983 16.4916 23.117 15.9082C23.0063 15.8351 22.8702 15.7642 22.7387 15.7527C21.0303 15.5993 19.352 16.6137 18.8594 18.105C18.4614 19.3093 18.5814 20.5189 18.8467 21.7837V21.7827ZM13.9431 40.409H28.0507C28.1453 39.4395 27.8511 39.141 26.8256 39.14C22.944 39.14 19.0624 39.14 15.1808 39.14C14.1461 39.14 13.8681 39.4197 13.9431 40.409ZM18.8029 37.5516H23.1978C22.854 36.2471 22.5207 34.9791 22.1896 33.7195H19.8087C19.4731 34.9969 19.1432 36.2565 18.8029 37.5516ZM26.5707 16.2724C27.204 15.5742 27.8188 14.8969 28.4498 14.2008C27.6169 13.6425 26.8268 13.1124 26.0066 12.5624C25.4437 13.3232 24.9096 14.0433 24.3582 14.7884C25.0965 15.2841 25.8198 15.7694 26.5707 16.2724Z" fill="url(#paint4_linear_875_19229)" stroke="url(#paint5_linear_875_19229)" stroke-width="0.2"/>
</g>
<defs>
<linearGradient id="paint0_linear_875_19229" x1="4.31557" y1="7.1499" x2="23.9693" y2="39.7731" gradientUnits="userSpaceOnUse">
<stop offset="0.259336" stop-color="#FFDB6E"/>
<stop offset="1" stop-color="#FFBC5E"/>
</linearGradient>
<linearGradient id="paint1_linear_875_19229" x1="0.253799" y1="1.45551e-07" x2="7.5006" y2="3.11018" gradientUnits="userSpaceOnUse">
<stop offset="0.259336" stop-color="#FFDB6E"/>
<stop offset="1" stop-color="#FFBC5E"/>
</linearGradient>
<linearGradient id="paint2_linear_875_19229" x1="19.3837" y1="32.7749" x2="23.8288" y2="37.1151" gradientUnits="userSpaceOnUse">
<stop offset="0.259336" stop-color="#FFDB6E"/>
<stop offset="1" stop-color="#FFBC5E"/>
</linearGradient>
<linearGradient id="paint3_linear_875_19229" x1="14.3597" y1="38.9253" x2="14.7704" y2="42.4343" gradientUnits="userSpaceOnUse">
<stop offset="0.259336" stop-color="#FFDB6E"/>
<stop offset="1" stop-color="#FFBC5E"/>
</linearGradient>
<linearGradient id="paint4_linear_875_19229" x1="3.26666" y1="2" x2="37.8" y2="40.1333" gradientUnits="userSpaceOnUse">
<stop offset="0.259336" stop-color="#FFDB6E"/>
<stop offset="1" stop-color="#FFBC5E"/>
</linearGradient>
<linearGradient id="paint5_linear_875_19229" x1="3.26666" y1="2" x2="37.8" y2="40.1333" gradientUnits="userSpaceOnUse">
<stop offset="0.259336" stop-color="#FFDB6E"/>
<stop offset="1" stop-color="#FFBC5E"/>
</linearGradient>
<clipPath id="clip0_875_19229">
<rect width="42" height="42" fill="white"/>
</clipPath>
</defs>
</svg>
