<svg width="42" height="42" viewBox="0 0 42 42" fill="none" xmlns="http://www.w3.org/2000/svg">
<g clip-path="url(#clip0_874_19175)">
<g opacity="0.15">
<rect x="14" y="32" width="15" height="4" fill="#D9D9D9"/>
<rect x="14" y="32" width="15" height="4" fill="url(#paint0_linear_874_19175)"/>
<rect x="10" y="36" width="22" height="3" fill="#D9D9D9"/>
<rect x="10" y="36" width="22" height="3" fill="url(#paint1_linear_874_19175)"/>
</g>
<g opacity="0.15">
<path fill-rule="evenodd" clip-rule="evenodd" d="M1.01907 1.74673C1.3646 1.44741 1.77308 1.22315 2.20153 1.1098C2.50174 1.02708 6.67964 1.00226 20.9812 1.00226C23.413 1.00115 25.5237 1.0002 27.3569 0.999761H30.861C39.292 1.00264 39.5122 1.03182 39.9111 1.15944C40.2185 1.25409 40.4998 1.39053 40.7494 1.56238C41.2731 1.93891 41.6705 2.48004 41.8659 3.11005C41.9549 3.57125 41.9996 10.0617 42 16.5799V3.99976C42 3.68998 41.953 3.39117 41.8659 3.11005C41.8647 3.10411 41.8636 3.09917 41.8624 3.09524C41.6747 2.46318 41.2852 1.93122 40.7494 1.56238C40.257 1.20829 39.6528 0.999761 39 0.999761H30.861C29.8227 0.999407 28.6599 0.999452 27.3569 0.999761H3C2.24081 0.999761 1.54749 1.28176 1.01907 1.74673ZM0 3.99976C0 3.10209 0.394263 2.29651 1.01907 1.74673C0.658453 2.05912 0.366405 2.45328 0.1918 2.88842L0 3.35169V3.99976ZM0 29.2472V29.9896L0.200139 30.486C0.47533 31.1561 1.15914 31.8344 1.83461 32.1074L2.33495 32.306L7.73871 32.3308L13.1341 32.3556V34.0018V35.6481L11.6581 35.6729C10.4322 35.6895 10.1237 35.7226 9.87352 35.8466C9.15636 36.2024 8.63099 37.0131 8.63099 37.7742C8.63099 38.6676 9.06463 39.3791 9.86518 39.7679L10.3405 39.9995H21.0146H31.6887L32.0806 39.8092C32.5309 39.5859 33.0229 39.0812 33.2064 38.6511C33.5149 37.9148 33.2564 36.7401 32.6644 36.2272C32.089 35.7226 31.8304 35.6564 30.3794 35.6564H29.0618V34.0018V32.3556L34.3822 32.3308C39.394 32.306 39.7192 32.2977 40.0695 32.1488C40.9701 31.7682 41.6122 31.0899 41.8624 30.2461C41.869 30.2239 41.8753 30.1696 41.8813 30.0853C41.9586 29.8193 42 29.5381 42 29.2472V16.7614C41.9996 22.8902 41.9601 28.9945 41.8813 30.0853C41.5187 31.3343 40.3659 32.2472 39 32.2472H3C1.34315 32.2472 0 30.904 0 29.2472ZM40.4865 2.7147C40.353 2.54924 40.0612 2.32588 39.8443 2.21834L39.4441 2.02807L21.1397 2.01152C11.0744 2.01152 2.72689 2.02807 2.58513 2.06116C2.20153 2.16043 1.85962 2.35897 1.56776 2.66506C1.5341 2.69994 1.50259 2.72993 1.4731 2.75801L1.4731 2.75801C1.43774 2.79166 1.40527 2.82257 1.37546 2.85585C1.04063 3.22965 1.04075 3.90347 1.04218 12.1454L1.04239 13.982V24.4056H21.0146H40.9868V14.1227L40.9869 12.6533V12.6532V12.6531V12.653V12.6529V12.6528V12.6527V12.6526C40.9878 4.06829 40.9879 3.36012 40.6478 2.90766C40.6172 2.86701 40.5839 2.82842 40.5476 2.78637L40.5475 2.78626C40.528 2.76369 40.5077 2.74012 40.4865 2.7147ZM40.7867 30.1385C40.9284 29.8572 40.9451 29.5843 40.9701 27.6071L40.9951 25.3983H21.0229H1.04239V27.5161C1.04239 28.9473 1.07575 29.7497 1.14246 29.9813C1.27589 30.4281 1.89298 31.0402 2.34329 31.1726C2.61015 31.2471 6.8214 31.2719 21.0646 31.2719C38.6852 31.2719 39.4607 31.2636 39.7776 31.1147C40.1946 30.9327 40.5782 30.5604 40.7867 30.1385ZM28.0612 35.6564V34.0018V32.3473H21.098H14.1348V34.0018V35.6564H21.098H28.0612ZM32.2808 38.0968C32.4058 37.5839 32.0973 36.9717 31.5969 36.7649C31.1883 36.5995 10.7992 36.5995 10.4239 36.7649C9.6984 37.0875 9.45657 37.8734 9.89854 38.4939C9.91868 38.5222 9.93546 38.5489 9.95123 38.5739C9.97044 38.6045 9.98817 38.6326 10.0087 38.6586C10.2518 38.9665 10.8861 38.9654 19.0422 38.9521H19.0423H19.0424H19.0426H19.0427H19.0429H19.043H19.0431L21.098 38.9489L31.6637 38.9241L31.9388 38.618C32.0973 38.4525 32.2474 38.2126 32.2808 38.0968ZM19.8906 19.2682C19.8906 18.9622 24.4021 6.99163 24.5772 6.84273C24.6689 6.76827 24.819 6.70209 24.9024 6.70209C25.1109 6.70209 25.3944 6.99163 25.3944 7.20672C25.3944 7.38872 20.9163 19.4254 20.7829 19.5826C20.5744 19.8473 19.8906 19.6074 19.8906 19.2682ZM34.2101 8.58889C34.085 8.72952 34.0684 9.16797 34.0684 13.2464C34.0684 16.6464 34.0934 17.7798 34.1684 17.8543C34.3352 18.0197 34.8856 17.9783 34.9857 17.7963C35.0357 17.6888 35.0691 16.0922 35.0691 13.1719C35.0691 8.96116 35.0607 8.7047 34.9189 8.58062C34.7188 8.39862 34.3769 8.40689 34.2101 8.58889ZM13.8008 9.40748C13.8008 9.33303 13.8758 9.19239 13.9676 9.10139C14.1427 8.92767 14.4262 8.8863 14.6264 9.01039C14.6847 9.05176 15.1017 9.75493 15.552 10.5822C16.3359 12.0299 16.3692 12.0795 16.486 11.8975C16.5527 11.79 16.9196 11.1199 17.3116 10.3919C17.7535 9.57293 18.0788 9.05176 18.1955 9.00212C18.6708 8.77876 19.0628 9.21721 18.846 9.73011C18.7375 9.98657 17.9954 11.3846 17.2532 12.7L16.978 13.2046L17.9453 14.975C18.4707 15.9511 18.9127 16.8529 18.9127 16.977C18.9127 17.101 18.871 17.2582 18.8043 17.3244C18.6625 17.4981 18.1955 17.4899 18.0371 17.3079C17.9703 17.2334 17.5784 16.5468 17.1698 15.7857C16.7612 15.0246 16.4109 14.3959 16.3859 14.3959C16.3526 14.3959 16.044 14.9419 15.6771 15.612L15.6722 15.621C14.693 17.4403 14.6842 17.4568 14.3428 17.4568C14.0593 17.4568 13.8008 17.2334 13.8008 16.9687C13.8008 16.9108 14.2428 16.0504 14.7765 15.066C15.3102 14.0815 15.7438 13.246 15.7438 13.1964C15.7355 13.155 15.3018 12.3112 14.7681 11.335C14.2344 10.3588 13.8008 9.49021 13.8008 9.40748ZM7.08032 9.13516C6.93021 9.25097 6.92188 9.38334 6.92188 12.2622C6.92188 14.9508 6.93855 15.3066 7.07198 15.6954C7.27212 16.2745 7.84752 16.8949 8.44794 17.1844C8.87323 17.3913 9.01499 17.4161 9.75718 17.4161C10.4994 17.4161 10.6411 17.3913 11.0664 17.1844C11.6668 16.8949 12.2422 16.2745 12.4424 15.6954C12.5758 15.3066 12.5925 14.9508 12.5925 12.2622C12.5925 9.38334 12.5841 9.25097 12.434 9.13516C12.1839 8.96143 11.8336 8.98625 11.6835 9.20134C11.5668 9.35852 11.5501 9.79697 11.5501 12.2705C11.5501 14.9674 11.5417 15.1659 11.3833 15.4637C10.8579 16.4978 9.49866 16.7708 8.58136 16.0263C7.98094 15.5299 7.96427 15.4555 7.96427 12.2457C7.96427 9.79697 7.94759 9.35852 7.83084 9.20134C7.68074 8.98625 7.33049 8.96143 7.08032 9.13516ZM26.3965 12.3199C26.3965 9.43272 26.4048 9.18454 26.5466 9.11009C26.7634 8.97773 27.072 9.00254 27.2471 9.15972C27.3888 9.28381 27.3972 9.49063 27.3972 12.1792C27.3972 15.2732 27.4139 15.4138 27.8392 15.8771C28.0893 16.1418 28.7898 16.4645 29.1401 16.4645C29.582 16.4645 30.0407 16.299 30.3909 16.0012L30.3954 15.9974L30.3955 15.9973L30.3955 15.9973C30.5286 15.8839 30.6315 15.7962 30.7111 15.6908C30.983 15.3311 30.983 14.7658 30.983 12.2702C30.983 9.03564 30.983 9.01909 31.525 9.01909C32.0754 9.01909 32.0838 9.03564 32.0504 12.4274L32.0254 15.4304L31.7919 15.8937C31.525 16.4397 30.9663 16.9856 30.4159 17.2338C29.8405 17.4986 28.523 17.4903 27.9726 17.2256C27.3722 16.9277 26.9302 16.5058 26.655 15.9516L26.3965 15.4469V12.3199ZM15.5767 27.0116C14.651 27.5658 14.551 28.8233 15.3849 29.5678C16.2938 30.3785 17.8032 29.8408 18.0117 28.6164C18.1201 27.9712 17.6781 27.1687 17.0777 26.9206C16.6357 26.7303 15.9769 26.7716 15.5767 27.0116ZM16.7942 27.996C17.036 28.2524 17.0027 28.5999 16.7108 28.815C16.1771 29.2038 15.5767 28.4344 16.052 27.9629C16.2772 27.7395 16.569 27.7561 16.7942 27.996ZM19.4721 28.8235C19.2637 28.1038 19.5472 27.3841 20.1643 27.0118C20.5479 26.7884 21.19 26.7305 21.6153 26.896C21.9072 27.0035 22.2824 27.351 22.4575 27.6736C22.6243 27.9962 22.6243 28.7573 22.4575 29.08C21.7904 30.3457 19.8557 30.1802 19.4721 28.8235ZM21.2984 28.8152C21.5903 28.6001 21.6236 28.2527 21.3818 27.9962C21.1566 27.7563 20.8648 27.7398 20.6396 27.9631C20.1643 28.4347 20.7647 29.204 21.2984 28.8152ZM24.8524 26.9451C24.227 27.2678 23.9268 27.8303 23.9935 28.5417C24.1019 29.6255 25.2444 30.2542 26.2784 29.7909C26.9456 29.4931 27.2708 28.7651 27.1123 27.9213C27.0456 27.5656 26.6203 27.0692 26.2534 26.9203C25.8948 26.7631 25.161 26.7797 24.8524 26.9451ZM25.9282 27.9709C26.2034 28.186 26.2117 28.4838 25.9282 28.7568C25.703 28.9885 25.3945 28.9802 25.1526 28.7486C24.9608 28.5666 25.0025 28.1281 25.2194 27.9461C25.4695 27.7558 25.653 27.7558 25.9282 27.9709Z" fill="#D9D9D9"/>
<path fill-rule="evenodd" clip-rule="evenodd" d="M1.01907 1.74673C1.3646 1.44741 1.77308 1.22315 2.20153 1.1098C2.50174 1.02708 6.67964 1.00226 20.9812 1.00226C23.413 1.00115 25.5237 1.0002 27.3569 0.999761H30.861C39.292 1.00264 39.5122 1.03182 39.9111 1.15944C40.2185 1.25409 40.4998 1.39053 40.7494 1.56238C41.2731 1.93891 41.6705 2.48004 41.8659 3.11005C41.9549 3.57125 41.9996 10.0617 42 16.5799V3.99976C42 3.68998 41.953 3.39117 41.8659 3.11005C41.8647 3.10411 41.8636 3.09917 41.8624 3.09524C41.6747 2.46318 41.2852 1.93122 40.7494 1.56238C40.257 1.20829 39.6528 0.999761 39 0.999761H30.861C29.8227 0.999407 28.6599 0.999452 27.3569 0.999761H3C2.24081 0.999761 1.54749 1.28176 1.01907 1.74673ZM0 3.99976C0 3.10209 0.394263 2.29651 1.01907 1.74673C0.658453 2.05912 0.366405 2.45328 0.1918 2.88842L0 3.35169V3.99976ZM0 29.2472V29.9896L0.200139 30.486C0.47533 31.1561 1.15914 31.8344 1.83461 32.1074L2.33495 32.306L7.73871 32.3308L13.1341 32.3556V34.0018V35.6481L11.6581 35.6729C10.4322 35.6895 10.1237 35.7226 9.87352 35.8466C9.15636 36.2024 8.63099 37.0131 8.63099 37.7742C8.63099 38.6676 9.06463 39.3791 9.86518 39.7679L10.3405 39.9995H21.0146H31.6887L32.0806 39.8092C32.5309 39.5859 33.0229 39.0812 33.2064 38.6511C33.5149 37.9148 33.2564 36.7401 32.6644 36.2272C32.089 35.7226 31.8304 35.6564 30.3794 35.6564H29.0618V34.0018V32.3556L34.3822 32.3308C39.394 32.306 39.7192 32.2977 40.0695 32.1488C40.9701 31.7682 41.6122 31.0899 41.8624 30.2461C41.869 30.2239 41.8753 30.1696 41.8813 30.0853C41.9586 29.8193 42 29.5381 42 29.2472V16.7614C41.9996 22.8902 41.9601 28.9945 41.8813 30.0853C41.5187 31.3343 40.3659 32.2472 39 32.2472H3C1.34315 32.2472 0 30.904 0 29.2472ZM40.4865 2.7147C40.353 2.54924 40.0612 2.32588 39.8443 2.21834L39.4441 2.02807L21.1397 2.01152C11.0744 2.01152 2.72689 2.02807 2.58513 2.06116C2.20153 2.16043 1.85962 2.35897 1.56776 2.66506C1.5341 2.69994 1.50259 2.72993 1.4731 2.75801L1.4731 2.75801C1.43774 2.79166 1.40527 2.82257 1.37546 2.85585C1.04063 3.22965 1.04075 3.90347 1.04218 12.1454L1.04239 13.982V24.4056H21.0146H40.9868V14.1227L40.9869 12.6533V12.6532V12.6531V12.653V12.6529V12.6528V12.6527V12.6526C40.9878 4.06829 40.9879 3.36012 40.6478 2.90766C40.6172 2.86701 40.5839 2.82842 40.5476 2.78637L40.5475 2.78626C40.528 2.76369 40.5077 2.74012 40.4865 2.7147ZM40.7867 30.1385C40.9284 29.8572 40.9451 29.5843 40.9701 27.6071L40.9951 25.3983H21.0229H1.04239V27.5161C1.04239 28.9473 1.07575 29.7497 1.14246 29.9813C1.27589 30.4281 1.89298 31.0402 2.34329 31.1726C2.61015 31.2471 6.8214 31.2719 21.0646 31.2719C38.6852 31.2719 39.4607 31.2636 39.7776 31.1147C40.1946 30.9327 40.5782 30.5604 40.7867 30.1385ZM28.0612 35.6564V34.0018V32.3473H21.098H14.1348V34.0018V35.6564H21.098H28.0612ZM32.2808 38.0968C32.4058 37.5839 32.0973 36.9717 31.5969 36.7649C31.1883 36.5995 10.7992 36.5995 10.4239 36.7649C9.6984 37.0875 9.45657 37.8734 9.89854 38.4939C9.91868 38.5222 9.93546 38.5489 9.95123 38.5739C9.97044 38.6045 9.98817 38.6326 10.0087 38.6586C10.2518 38.9665 10.8861 38.9654 19.0422 38.9521H19.0423H19.0424H19.0426H19.0427H19.0429H19.043H19.0431L21.098 38.9489L31.6637 38.9241L31.9388 38.618C32.0973 38.4525 32.2474 38.2126 32.2808 38.0968ZM19.8906 19.2682C19.8906 18.9622 24.4021 6.99163 24.5772 6.84273C24.6689 6.76827 24.819 6.70209 24.9024 6.70209C25.1109 6.70209 25.3944 6.99163 25.3944 7.20672C25.3944 7.38872 20.9163 19.4254 20.7829 19.5826C20.5744 19.8473 19.8906 19.6074 19.8906 19.2682ZM34.2101 8.58889C34.085 8.72952 34.0684 9.16797 34.0684 13.2464C34.0684 16.6464 34.0934 17.7798 34.1684 17.8543C34.3352 18.0197 34.8856 17.9783 34.9857 17.7963C35.0357 17.6888 35.0691 16.0922 35.0691 13.1719C35.0691 8.96116 35.0607 8.7047 34.9189 8.58062C34.7188 8.39862 34.3769 8.40689 34.2101 8.58889ZM13.8008 9.40748C13.8008 9.33303 13.8758 9.19239 13.9676 9.10139C14.1427 8.92767 14.4262 8.8863 14.6264 9.01039C14.6847 9.05176 15.1017 9.75493 15.552 10.5822C16.3359 12.0299 16.3692 12.0795 16.486 11.8975C16.5527 11.79 16.9196 11.1199 17.3116 10.3919C17.7535 9.57293 18.0788 9.05176 18.1955 9.00212C18.6708 8.77876 19.0628 9.21721 18.846 9.73011C18.7375 9.98657 17.9954 11.3846 17.2532 12.7L16.978 13.2046L17.9453 14.975C18.4707 15.9511 18.9127 16.8529 18.9127 16.977C18.9127 17.101 18.871 17.2582 18.8043 17.3244C18.6625 17.4981 18.1955 17.4899 18.0371 17.3079C17.9703 17.2334 17.5784 16.5468 17.1698 15.7857C16.7612 15.0246 16.4109 14.3959 16.3859 14.3959C16.3526 14.3959 16.044 14.9419 15.6771 15.612L15.6722 15.621C14.693 17.4403 14.6842 17.4568 14.3428 17.4568C14.0593 17.4568 13.8008 17.2334 13.8008 16.9687C13.8008 16.9108 14.2428 16.0504 14.7765 15.066C15.3102 14.0815 15.7438 13.246 15.7438 13.1964C15.7355 13.155 15.3018 12.3112 14.7681 11.335C14.2344 10.3588 13.8008 9.49021 13.8008 9.40748ZM7.08032 9.13516C6.93021 9.25097 6.92188 9.38334 6.92188 12.2622C6.92188 14.9508 6.93855 15.3066 7.07198 15.6954C7.27212 16.2745 7.84752 16.8949 8.44794 17.1844C8.87323 17.3913 9.01499 17.4161 9.75718 17.4161C10.4994 17.4161 10.6411 17.3913 11.0664 17.1844C11.6668 16.8949 12.2422 16.2745 12.4424 15.6954C12.5758 15.3066 12.5925 14.9508 12.5925 12.2622C12.5925 9.38334 12.5841 9.25097 12.434 9.13516C12.1839 8.96143 11.8336 8.98625 11.6835 9.20134C11.5668 9.35852 11.5501 9.79697 11.5501 12.2705C11.5501 14.9674 11.5417 15.1659 11.3833 15.4637C10.8579 16.4978 9.49866 16.7708 8.58136 16.0263C7.98094 15.5299 7.96427 15.4555 7.96427 12.2457C7.96427 9.79697 7.94759 9.35852 7.83084 9.20134C7.68074 8.98625 7.33049 8.96143 7.08032 9.13516ZM26.3965 12.3199C26.3965 9.43272 26.4048 9.18454 26.5466 9.11009C26.7634 8.97773 27.072 9.00254 27.2471 9.15972C27.3888 9.28381 27.3972 9.49063 27.3972 12.1792C27.3972 15.2732 27.4139 15.4138 27.8392 15.8771C28.0893 16.1418 28.7898 16.4645 29.1401 16.4645C29.582 16.4645 30.0407 16.299 30.3909 16.0012L30.3954 15.9974L30.3955 15.9973L30.3955 15.9973C30.5286 15.8839 30.6315 15.7962 30.7111 15.6908C30.983 15.3311 30.983 14.7658 30.983 12.2702C30.983 9.03564 30.983 9.01909 31.525 9.01909C32.0754 9.01909 32.0838 9.03564 32.0504 12.4274L32.0254 15.4304L31.7919 15.8937C31.525 16.4397 30.9663 16.9856 30.4159 17.2338C29.8405 17.4986 28.523 17.4903 27.9726 17.2256C27.3722 16.9277 26.9302 16.5058 26.655 15.9516L26.3965 15.4469V12.3199ZM15.5767 27.0116C14.651 27.5658 14.551 28.8233 15.3849 29.5678C16.2938 30.3785 17.8032 29.8408 18.0117 28.6164C18.1201 27.9712 17.6781 27.1687 17.0777 26.9206C16.6357 26.7303 15.9769 26.7716 15.5767 27.0116ZM16.7942 27.996C17.036 28.2524 17.0027 28.5999 16.7108 28.815C16.1771 29.2038 15.5767 28.4344 16.052 27.9629C16.2772 27.7395 16.569 27.7561 16.7942 27.996ZM19.4721 28.8235C19.2637 28.1038 19.5472 27.3841 20.1643 27.0118C20.5479 26.7884 21.19 26.7305 21.6153 26.896C21.9072 27.0035 22.2824 27.351 22.4575 27.6736C22.6243 27.9962 22.6243 28.7573 22.4575 29.08C21.7904 30.3457 19.8557 30.1802 19.4721 28.8235ZM21.2984 28.8152C21.5903 28.6001 21.6236 28.2527 21.3818 27.9962C21.1566 27.7563 20.8648 27.7398 20.6396 27.9631C20.1643 28.4347 20.7647 29.204 21.2984 28.8152ZM24.8524 26.9451C24.227 27.2678 23.9268 27.8303 23.9935 28.5417C24.1019 29.6255 25.2444 30.2542 26.2784 29.7909C26.9456 29.4931 27.2708 28.7651 27.1123 27.9213C27.0456 27.5656 26.6203 27.0692 26.2534 26.9203C25.8948 26.7631 25.161 26.7797 24.8524 26.9451ZM25.9282 27.9709C26.2034 28.186 26.2117 28.4838 25.9282 28.7568C25.703 28.9885 25.3945 28.9802 25.1526 28.7486C24.9608 28.5666 25.0025 28.1281 25.2194 27.9461C25.4695 27.7558 25.653 27.7558 25.9282 27.9709Z" fill="url(#paint2_linear_874_19175)"/>
</g>
<path d="M2.20153 0.796168C1.32592 1.02967 0.533704 1.73019 0.1918 2.58915L0 3.05616V16.4827V29.9092L0.200139 30.4096C0.47533 31.0851 1.15914 31.7689 1.83461 32.0441L2.33495 32.2443L7.73871 32.2693L13.1341 32.2943V33.9539V35.6134L11.6581 35.6385C10.4322 35.6551 10.1237 35.6885 9.87352 35.8136C9.15636 36.1722 8.63099 36.9895 8.63099 37.7567C8.63099 38.6573 9.06463 39.3745 9.86518 39.7665L10.3405 40H21.0146H31.6887L32.0806 39.8082C32.5309 39.583 33.0229 39.0743 33.2064 38.6407C33.5149 37.8985 33.2564 36.7143 32.6644 36.1972C32.089 35.6885 31.8304 35.6218 30.3794 35.6218H29.0618V33.9539V32.2943L34.3822 32.2693C39.394 32.2443 39.7193 32.236 40.0695 32.0858C40.9701 31.7022 41.6122 31.0184 41.8624 30.1678C42.0459 29.5423 42.0459 3.4231 41.8624 2.79764C41.5872 1.86362 40.8784 1.14643 39.9111 0.846205C39.394 0.679415 39.1772 0.679415 20.9812 0.687755C6.67964 0.687755 2.50174 0.712773 2.20153 0.796168ZM39.8443 1.91366C40.0612 2.02207 40.353 2.24724 40.4865 2.41402C41.0118 3.04782 40.9868 2.53912 40.9868 13.9141V24.2801H21.0146H1.04239V13.7724C1.04239 2.17218 1.00903 2.94775 1.56776 2.36399C1.85962 2.05543 2.20153 1.85528 2.58513 1.75521C2.72689 1.72185 11.0744 1.70517 21.1397 1.70517L39.4441 1.72185L39.8443 1.91366ZM40.9701 27.5075C40.9451 29.5006 40.9284 29.7758 40.7867 30.0594C40.5782 30.4847 40.1946 30.8599 39.7776 31.0434C39.4607 31.1935 38.6852 31.2019 21.0646 31.2019C6.8214 31.2019 2.61015 31.1768 2.34329 31.1018C1.89298 30.9684 1.27589 30.3512 1.14246 29.9009C1.07575 29.6674 1.04239 28.8585 1.04239 27.4157V25.2808H21.0229H40.9951L40.9701 27.5075ZM28.0612 33.9539V35.6218H21.098H14.1348V33.9539V32.286H21.098H28.0612V33.9539ZM31.5969 36.7393C32.0973 36.9478 32.4058 37.5649 32.2808 38.0819C32.2474 38.1987 32.0973 38.4405 31.9388 38.6073L31.6637 38.9159L21.098 38.9409C9.5483 38.9576 10.2571 38.9909 9.89854 38.4822C9.45657 37.8568 9.6984 37.0645 10.4239 36.7393C10.7992 36.5725 31.1883 36.5725 31.5969 36.7393Z" fill="black"/>
<path d="M2.20153 0.796168C1.32592 1.02967 0.533704 1.73019 0.1918 2.58915L0 3.05616V16.4827V29.9092L0.200139 30.4096C0.47533 31.0851 1.15914 31.7689 1.83461 32.0441L2.33495 32.2443L7.73871 32.2693L13.1341 32.2943V33.9539V35.6134L11.6581 35.6385C10.4322 35.6551 10.1237 35.6885 9.87352 35.8136C9.15636 36.1722 8.63099 36.9895 8.63099 37.7567C8.63099 38.6573 9.06463 39.3745 9.86518 39.7665L10.3405 40H21.0146H31.6887L32.0806 39.8082C32.5309 39.583 33.0229 39.0743 33.2064 38.6407C33.5149 37.8985 33.2564 36.7143 32.6644 36.1972C32.089 35.6885 31.8304 35.6218 30.3794 35.6218H29.0618V33.9539V32.2943L34.3822 32.2693C39.394 32.2443 39.7193 32.236 40.0695 32.0858C40.9701 31.7022 41.6122 31.0184 41.8624 30.1678C42.0459 29.5423 42.0459 3.4231 41.8624 2.79764C41.5872 1.86362 40.8784 1.14643 39.9111 0.846205C39.394 0.679415 39.1772 0.679415 20.9812 0.687755C6.67964 0.687755 2.50174 0.712773 2.20153 0.796168ZM39.8443 1.91366C40.0612 2.02207 40.353 2.24724 40.4865 2.41402C41.0118 3.04782 40.9868 2.53912 40.9868 13.9141V24.2801H21.0146H1.04239V13.7724C1.04239 2.17218 1.00903 2.94775 1.56776 2.36399C1.85962 2.05543 2.20153 1.85528 2.58513 1.75521C2.72689 1.72185 11.0744 1.70517 21.1397 1.70517L39.4441 1.72185L39.8443 1.91366ZM40.9701 27.5075C40.9451 29.5006 40.9284 29.7758 40.7867 30.0594C40.5782 30.4847 40.1946 30.8599 39.7776 31.0434C39.4607 31.1935 38.6852 31.2019 21.0646 31.2019C6.8214 31.2019 2.61015 31.1768 2.34329 31.1018C1.89298 30.9684 1.27589 30.3512 1.14246 29.9009C1.07575 29.6674 1.04239 28.8585 1.04239 27.4157V25.2808H21.0229H40.9951L40.9701 27.5075ZM28.0612 33.9539V35.6218H21.098H14.1348V33.9539V32.286H21.098H28.0612V33.9539ZM31.5969 36.7393C32.0973 36.9478 32.4058 37.5649 32.2808 38.0819C32.2474 38.1987 32.0973 38.4405 31.9388 38.6073L31.6637 38.9159L21.098 38.9409C9.5483 38.9576 10.2571 38.9909 9.89854 38.4822C9.45657 37.8568 9.6984 37.0645 10.4239 36.7393C10.7992 36.5725 31.1883 36.5725 31.5969 36.7393Z" fill="url(#paint3_linear_874_19175)"/>
<path d="M2.20153 0.796168C1.32592 1.02967 0.533704 1.73019 0.1918 2.58915L0 3.05616V16.4827V29.9092L0.200139 30.4096C0.47533 31.0851 1.15914 31.7689 1.83461 32.0441L2.33495 32.2443L7.73871 32.2693L13.1341 32.2943V33.9539V35.6134L11.6581 35.6385C10.4322 35.6551 10.1237 35.6885 9.87352 35.8136C9.15636 36.1722 8.63099 36.9895 8.63099 37.7567C8.63099 38.6573 9.06463 39.3745 9.86518 39.7665L10.3405 40H21.0146H31.6887L32.0806 39.8082C32.5309 39.583 33.0229 39.0743 33.2064 38.6407C33.5149 37.8985 33.2564 36.7143 32.6644 36.1972C32.089 35.6885 31.8304 35.6218 30.3794 35.6218H29.0618V33.9539V32.2943L34.3822 32.2693C39.394 32.2443 39.7193 32.236 40.0695 32.0858C40.9701 31.7022 41.6122 31.0184 41.8624 30.1678C42.0459 29.5423 42.0459 3.4231 41.8624 2.79764C41.5872 1.86362 40.8784 1.14643 39.9111 0.846205C39.394 0.679415 39.1772 0.679415 20.9812 0.687755C6.67964 0.687755 2.50174 0.712773 2.20153 0.796168ZM39.8443 1.91366C40.0612 2.02207 40.353 2.24724 40.4865 2.41402C41.0118 3.04782 40.9868 2.53912 40.9868 13.9141V24.2801H21.0146H1.04239V13.7724C1.04239 2.17218 1.00903 2.94775 1.56776 2.36399C1.85962 2.05543 2.20153 1.85528 2.58513 1.75521C2.72689 1.72185 11.0744 1.70517 21.1397 1.70517L39.4441 1.72185L39.8443 1.91366ZM40.9701 27.5075C40.9451 29.5006 40.9284 29.7758 40.7867 30.0594C40.5782 30.4847 40.1946 30.8599 39.7776 31.0434C39.4607 31.1935 38.6852 31.2019 21.0646 31.2019C6.8214 31.2019 2.61015 31.1768 2.34329 31.1018C1.89298 30.9684 1.27589 30.3512 1.14246 29.9009C1.07575 29.6674 1.04239 28.8585 1.04239 27.4157V25.2808H21.0229H40.9951L40.9701 27.5075ZM28.0612 33.9539V35.6218H21.098H14.1348V33.9539V32.286H21.098H28.0612V33.9539ZM31.5969 36.7393C32.0973 36.9478 32.4058 37.5649 32.2808 38.0819C32.2474 38.1987 32.0973 38.4405 31.9388 38.6073L31.6637 38.9159L21.098 38.9409C9.5483 38.9576 10.2571 38.9909 9.89854 38.4822C9.45657 37.8568 9.6984 37.0645 10.4239 36.7393C10.7992 36.5725 31.1883 36.5725 31.5969 36.7393Z" stroke="black" stroke-width="0.419999"/>
<path d="M2.20153 0.796168C1.32592 1.02967 0.533704 1.73019 0.1918 2.58915L0 3.05616V16.4827V29.9092L0.200139 30.4096C0.47533 31.0851 1.15914 31.7689 1.83461 32.0441L2.33495 32.2443L7.73871 32.2693L13.1341 32.2943V33.9539V35.6134L11.6581 35.6385C10.4322 35.6551 10.1237 35.6885 9.87352 35.8136C9.15636 36.1722 8.63099 36.9895 8.63099 37.7567C8.63099 38.6573 9.06463 39.3745 9.86518 39.7665L10.3405 40H21.0146H31.6887L32.0806 39.8082C32.5309 39.583 33.0229 39.0743 33.2064 38.6407C33.5149 37.8985 33.2564 36.7143 32.6644 36.1972C32.089 35.6885 31.8304 35.6218 30.3794 35.6218H29.0618V33.9539V32.2943L34.3822 32.2693C39.394 32.2443 39.7193 32.236 40.0695 32.0858C40.9701 31.7022 41.6122 31.0184 41.8624 30.1678C42.0459 29.5423 42.0459 3.4231 41.8624 2.79764C41.5872 1.86362 40.8784 1.14643 39.9111 0.846205C39.394 0.679415 39.1772 0.679415 20.9812 0.687755C6.67964 0.687755 2.50174 0.712773 2.20153 0.796168ZM39.8443 1.91366C40.0612 2.02207 40.353 2.24724 40.4865 2.41402C41.0118 3.04782 40.9868 2.53912 40.9868 13.9141V24.2801H21.0146H1.04239V13.7724C1.04239 2.17218 1.00903 2.94775 1.56776 2.36399C1.85962 2.05543 2.20153 1.85528 2.58513 1.75521C2.72689 1.72185 11.0744 1.70517 21.1397 1.70517L39.4441 1.72185L39.8443 1.91366ZM40.9701 27.5075C40.9451 29.5006 40.9284 29.7758 40.7867 30.0594C40.5782 30.4847 40.1946 30.8599 39.7776 31.0434C39.4607 31.1935 38.6852 31.2019 21.0646 31.2019C6.8214 31.2019 2.61015 31.1768 2.34329 31.1018C1.89298 30.9684 1.27589 30.3512 1.14246 29.9009C1.07575 29.6674 1.04239 28.8585 1.04239 27.4157V25.2808H21.0229H40.9951L40.9701 27.5075ZM28.0612 33.9539V35.6218H21.098H14.1348V33.9539V32.286H21.098H28.0612V33.9539ZM31.5969 36.7393C32.0973 36.9478 32.4058 37.5649 32.2808 38.0819C32.2474 38.1987 32.0973 38.4405 31.9388 38.6073L31.6637 38.9159L21.098 38.9409C9.5483 38.9576 10.2571 38.9909 9.89854 38.4822C9.45657 37.8568 9.6984 37.0645 10.4239 36.7393C10.7992 36.5725 31.1883 36.5725 31.5969 36.7393Z" stroke="url(#paint4_linear_874_19175)" stroke-width="0.419999"/>
<path d="M24.5753 6.57461C24.4001 6.72472 19.8887 18.7919 19.8887 19.1005C19.8887 19.4424 20.5725 19.6842 20.781 19.4174C20.9144 19.2589 25.3925 7.12501 25.3925 6.94154C25.3925 6.72472 25.109 6.43284 24.9005 6.43284C24.8171 6.43284 24.667 6.49955 24.5753 6.57461Z" fill="black"/>
<path d="M24.5753 6.57461C24.4001 6.72472 19.8887 18.7919 19.8887 19.1005C19.8887 19.4424 20.5725 19.6842 20.781 19.4174C20.9144 19.2589 25.3925 7.12501 25.3925 6.94154C25.3925 6.72472 25.109 6.43284 24.9005 6.43284C24.8171 6.43284 24.667 6.49955 24.5753 6.57461Z" fill="url(#paint5_linear_874_19175)"/>
<path d="M24.5753 6.57461C24.4001 6.72472 19.8887 18.7919 19.8887 19.1005C19.8887 19.4424 20.5725 19.6842 20.781 19.4174C20.9144 19.2589 25.3925 7.12501 25.3925 6.94154C25.3925 6.72472 25.109 6.43284 24.9005 6.43284C24.8171 6.43284 24.667 6.49955 24.5753 6.57461Z" stroke="black" stroke-width="0.209999"/>
<path d="M24.5753 6.57461C24.4001 6.72472 19.8887 18.7919 19.8887 19.1005C19.8887 19.4424 20.5725 19.6842 20.781 19.4174C20.9144 19.2589 25.3925 7.12501 25.3925 6.94154C25.3925 6.72472 25.109 6.43284 24.9005 6.43284C24.8171 6.43284 24.667 6.49955 24.5753 6.57461Z" stroke="url(#paint6_linear_874_19175)" stroke-width="0.209999"/>
<path d="M34.2082 8.33526C34.0831 8.47703 34.0664 8.91902 34.0664 13.0304C34.0664 16.4579 34.0914 17.6004 34.1665 17.6755C34.3333 17.8422 34.8836 17.8006 34.9837 17.6171C35.0337 17.5087 35.0671 15.8992 35.0671 12.9553C35.0671 8.71053 35.0588 8.45201 34.917 8.32692C34.7169 8.14345 34.375 8.15179 34.2082 8.33526Z" fill="black"/>
<path d="M34.2082 8.33526C34.0831 8.47703 34.0664 8.91902 34.0664 13.0304C34.0664 16.4579 34.0914 17.6004 34.1665 17.6755C34.3333 17.8422 34.8836 17.8006 34.9837 17.6171C35.0337 17.5087 35.0671 15.8992 35.0671 12.9553C35.0671 8.71053 35.0588 8.45201 34.917 8.32692C34.7169 8.14345 34.375 8.15179 34.2082 8.33526Z" fill="url(#paint7_linear_874_19175)"/>
<path d="M34.2082 8.33526C34.0831 8.47703 34.0664 8.91902 34.0664 13.0304C34.0664 16.4579 34.0914 17.6004 34.1665 17.6755C34.3333 17.8422 34.8836 17.8006 34.9837 17.6171C35.0337 17.5087 35.0671 15.8992 35.0671 12.9553C35.0671 8.71053 35.0588 8.45201 34.917 8.32692C34.7169 8.14345 34.375 8.15179 34.2082 8.33526Z" stroke="black" stroke-width="0.209999"/>
<path d="M34.2082 8.33526C34.0831 8.47703 34.0664 8.91902 34.0664 13.0304C34.0664 16.4579 34.0914 17.6004 34.1665 17.6755C34.3333 17.8422 34.8836 17.8006 34.9837 17.6171C35.0337 17.5087 35.0671 15.8992 35.0671 12.9553C35.0671 8.71053 35.0588 8.45201 34.917 8.32692C34.7169 8.14345 34.375 8.15179 34.2082 8.33526Z" stroke="url(#paint8_linear_874_19175)" stroke-width="0.209999"/>
<path d="M13.9676 8.85155C13.8758 8.94329 13.8008 9.08506 13.8008 9.16011C13.8008 9.24351 14.2344 10.1192 14.7681 11.1032C15.3018 12.0873 15.7355 12.9379 15.7438 12.9796C15.7438 13.0296 15.3102 13.8719 14.7765 14.8643C14.2428 15.8567 13.8008 16.724 13.8008 16.7824C13.8008 17.0492 14.0593 17.2744 14.3428 17.2744C14.6847 17.2744 14.6931 17.2577 15.6771 15.4147C16.044 14.7392 16.3526 14.1888 16.3859 14.1888C16.4109 14.1888 16.7612 14.8226 17.1698 15.5898C17.5784 16.3571 17.9703 17.0492 18.0371 17.1243C18.1955 17.3078 18.6625 17.3161 18.8043 17.141C18.871 17.0743 18.9127 16.9158 18.9127 16.7907C18.9127 16.6656 18.4707 15.7566 17.9453 14.7726L16.978 12.9879L17.2532 12.4792C17.9954 11.1532 18.7375 9.74388 18.846 9.48535C19.0628 8.96831 18.6708 8.52631 18.1955 8.75148C18.0788 8.80152 17.7535 9.3269 17.3116 10.1525C16.9196 10.8864 16.5527 11.5619 16.486 11.6703C16.3692 11.8538 16.3359 11.8037 15.552 10.3443C15.1017 9.51037 14.6847 8.80152 14.6264 8.75982C14.4262 8.63473 14.1427 8.67643 13.9676 8.85155Z" fill="black"/>
<path d="M13.9676 8.85155C13.8758 8.94329 13.8008 9.08506 13.8008 9.16011C13.8008 9.24351 14.2344 10.1192 14.7681 11.1032C15.3018 12.0873 15.7355 12.9379 15.7438 12.9796C15.7438 13.0296 15.3102 13.8719 14.7765 14.8643C14.2428 15.8567 13.8008 16.724 13.8008 16.7824C13.8008 17.0492 14.0593 17.2744 14.3428 17.2744C14.6847 17.2744 14.6931 17.2577 15.6771 15.4147C16.044 14.7392 16.3526 14.1888 16.3859 14.1888C16.4109 14.1888 16.7612 14.8226 17.1698 15.5898C17.5784 16.3571 17.9703 17.0492 18.0371 17.1243C18.1955 17.3078 18.6625 17.3161 18.8043 17.141C18.871 17.0743 18.9127 16.9158 18.9127 16.7907C18.9127 16.6656 18.4707 15.7566 17.9453 14.7726L16.978 12.9879L17.2532 12.4792C17.9954 11.1532 18.7375 9.74388 18.846 9.48535C19.0628 8.96831 18.6708 8.52631 18.1955 8.75148C18.0788 8.80152 17.7535 9.3269 17.3116 10.1525C16.9196 10.8864 16.5527 11.5619 16.486 11.6703C16.3692 11.8538 16.3359 11.8037 15.552 10.3443C15.1017 9.51037 14.6847 8.80152 14.6264 8.75982C14.4262 8.63473 14.1427 8.67643 13.9676 8.85155Z" fill="url(#paint9_linear_874_19175)"/>
<path d="M13.9676 8.85155C13.8758 8.94329 13.8008 9.08506 13.8008 9.16011C13.8008 9.24351 14.2344 10.1192 14.7681 11.1032C15.3018 12.0873 15.7355 12.9379 15.7438 12.9796C15.7438 13.0296 15.3102 13.8719 14.7765 14.8643C14.2428 15.8567 13.8008 16.724 13.8008 16.7824C13.8008 17.0492 14.0593 17.2744 14.3428 17.2744C14.6847 17.2744 14.6931 17.2577 15.6771 15.4147C16.044 14.7392 16.3526 14.1888 16.3859 14.1888C16.4109 14.1888 16.7612 14.8226 17.1698 15.5898C17.5784 16.3571 17.9703 17.0492 18.0371 17.1243C18.1955 17.3078 18.6625 17.3161 18.8043 17.141C18.871 17.0743 18.9127 16.9158 18.9127 16.7907C18.9127 16.6656 18.4707 15.7566 17.9453 14.7726L16.978 12.9879L17.2532 12.4792C17.9954 11.1532 18.7375 9.74388 18.846 9.48535C19.0628 8.96831 18.6708 8.52631 18.1955 8.75148C18.0788 8.80152 17.7535 9.3269 17.3116 10.1525C16.9196 10.8864 16.5527 11.5619 16.486 11.6703C16.3692 11.8538 16.3359 11.8037 15.552 10.3443C15.1017 9.51037 14.6847 8.80152 14.6264 8.75982C14.4262 8.63473 14.1427 8.67643 13.9676 8.85155Z" stroke="black" stroke-width="0.209999"/>
<path d="M13.9676 8.85155C13.8758 8.94329 13.8008 9.08506 13.8008 9.16011C13.8008 9.24351 14.2344 10.1192 14.7681 11.1032C15.3018 12.0873 15.7355 12.9379 15.7438 12.9796C15.7438 13.0296 15.3102 13.8719 14.7765 14.8643C14.2428 15.8567 13.8008 16.724 13.8008 16.7824C13.8008 17.0492 14.0593 17.2744 14.3428 17.2744C14.6847 17.2744 14.6931 17.2577 15.6771 15.4147C16.044 14.7392 16.3526 14.1888 16.3859 14.1888C16.4109 14.1888 16.7612 14.8226 17.1698 15.5898C17.5784 16.3571 17.9703 17.0492 18.0371 17.1243C18.1955 17.3078 18.6625 17.3161 18.8043 17.141C18.871 17.0743 18.9127 16.9158 18.9127 16.7907C18.9127 16.6656 18.4707 15.7566 17.9453 14.7726L16.978 12.9879L17.2532 12.4792C17.9954 11.1532 18.7375 9.74388 18.846 9.48535C19.0628 8.96831 18.6708 8.52631 18.1955 8.75148C18.0788 8.80152 17.7535 9.3269 17.3116 10.1525C16.9196 10.8864 16.5527 11.5619 16.486 11.6703C16.3692 11.8538 16.3359 11.8037 15.552 10.3443C15.1017 9.51037 14.6847 8.80152 14.6264 8.75982C14.4262 8.63473 14.1427 8.67643 13.9676 8.85155Z" stroke="url(#paint10_linear_874_19175)" stroke-width="0.209999"/>
<path d="M7.07837 8.88559C6.92826 9.00234 6.91992 9.13578 6.91992 12.0379C6.91992 14.7482 6.9366 15.1068 7.07003 15.4988C7.27017 16.0826 7.84556 16.708 8.44598 16.9999C8.87128 17.2084 9.01304 17.2334 9.75522 17.2334C10.4974 17.2334 10.6392 17.2084 11.0645 16.9999C11.6649 16.708 12.2403 16.0826 12.4404 15.4988C12.5738 15.1068 12.5905 14.7482 12.5905 12.0379C12.5905 9.13578 12.5822 9.00234 12.4321 8.88559C12.1819 8.71046 11.8317 8.73548 11.6816 8.95231C11.5648 9.11076 11.5481 9.55275 11.5481 12.0462C11.5481 14.7649 11.5398 14.9651 11.3814 15.2653C10.856 16.3077 9.49671 16.5829 8.57941 15.8324C7.97899 15.332 7.96231 15.2569 7.96231 12.0212C7.96231 9.55275 7.94563 9.11076 7.82889 8.95231C7.67878 8.73548 7.32854 8.71046 7.07837 8.88559Z" fill="black"/>
<path d="M7.07837 8.88559C6.92826 9.00234 6.91992 9.13578 6.91992 12.0379C6.91992 14.7482 6.9366 15.1068 7.07003 15.4988C7.27017 16.0826 7.84556 16.708 8.44598 16.9999C8.87128 17.2084 9.01304 17.2334 9.75522 17.2334C10.4974 17.2334 10.6392 17.2084 11.0645 16.9999C11.6649 16.708 12.2403 16.0826 12.4404 15.4988C12.5738 15.1068 12.5905 14.7482 12.5905 12.0379C12.5905 9.13578 12.5822 9.00234 12.4321 8.88559C12.1819 8.71046 11.8317 8.73548 11.6816 8.95231C11.5648 9.11076 11.5481 9.55275 11.5481 12.0462C11.5481 14.7649 11.5398 14.9651 11.3814 15.2653C10.856 16.3077 9.49671 16.5829 8.57941 15.8324C7.97899 15.332 7.96231 15.2569 7.96231 12.0212C7.96231 9.55275 7.94563 9.11076 7.82889 8.95231C7.67878 8.73548 7.32854 8.71046 7.07837 8.88559Z" fill="url(#paint11_linear_874_19175)"/>
<path d="M7.07837 8.88559C6.92826 9.00234 6.91992 9.13578 6.91992 12.0379C6.91992 14.7482 6.9366 15.1068 7.07003 15.4988C7.27017 16.0826 7.84556 16.708 8.44598 16.9999C8.87128 17.2084 9.01304 17.2334 9.75522 17.2334C10.4974 17.2334 10.6392 17.2084 11.0645 16.9999C11.6649 16.708 12.2403 16.0826 12.4404 15.4988C12.5738 15.1068 12.5905 14.7482 12.5905 12.0379C12.5905 9.13578 12.5822 9.00234 12.4321 8.88559C12.1819 8.71046 11.8317 8.73548 11.6816 8.95231C11.5648 9.11076 11.5481 9.55275 11.5481 12.0462C11.5481 14.7649 11.5398 14.9651 11.3814 15.2653C10.856 16.3077 9.49671 16.5829 8.57941 15.8324C7.97899 15.332 7.96231 15.2569 7.96231 12.0212C7.96231 9.55275 7.94563 9.11076 7.82889 8.95231C7.67878 8.73548 7.32854 8.71046 7.07837 8.88559Z" stroke="black" stroke-width="0.209999"/>
<path d="M7.07837 8.88559C6.92826 9.00234 6.91992 9.13578 6.91992 12.0379C6.91992 14.7482 6.9366 15.1068 7.07003 15.4988C7.27017 16.0826 7.84556 16.708 8.44598 16.9999C8.87128 17.2084 9.01304 17.2334 9.75522 17.2334C10.4974 17.2334 10.6392 17.2084 11.0645 16.9999C11.6649 16.708 12.2403 16.0826 12.4404 15.4988C12.5738 15.1068 12.5905 14.7482 12.5905 12.0379C12.5905 9.13578 12.5822 9.00234 12.4321 8.88559C12.1819 8.71046 11.8317 8.73548 11.6816 8.95231C11.5648 9.11076 11.5481 9.55275 11.5481 12.0462C11.5481 14.7649 11.5398 14.9651 11.3814 15.2653C10.856 16.3077 9.49671 16.5829 8.57941 15.8324C7.97899 15.332 7.96231 15.2569 7.96231 12.0212C7.96231 9.55275 7.94563 9.11076 7.82889 8.95231C7.67878 8.73548 7.32854 8.71046 7.07837 8.88559Z" stroke="url(#paint12_linear_874_19175)" stroke-width="0.209999"/>
<path d="M26.5466 8.8612C26.4048 8.93625 26.3965 9.18644 26.3965 12.0969V15.2492L26.655 15.7579C26.9302 16.3167 27.3722 16.742 27.9726 17.0422C28.523 17.3091 29.8405 17.3174 30.4159 17.0506C30.9663 16.8004 31.525 16.25 31.7919 15.6996L32.0254 15.2326L32.0504 12.2053C32.0838 8.78614 32.0754 8.76947 31.525 8.76947C30.983 8.76947 30.983 8.78614 30.983 12.0469C30.983 15.3076 30.983 15.2993 30.3909 15.808C30.0407 16.1082 29.582 16.275 29.1401 16.275C28.7898 16.275 28.0893 15.9497 27.8392 15.6829C27.4139 15.2159 27.3972 15.0741 27.3972 11.9551C27.3972 9.24482 27.3888 9.03633 27.2471 8.91124C27.072 8.75279 26.7634 8.72777 26.5466 8.8612Z" fill="black"/>
<path d="M26.5466 8.8612C26.4048 8.93625 26.3965 9.18644 26.3965 12.0969V15.2492L26.655 15.7579C26.9302 16.3167 27.3722 16.742 27.9726 17.0422C28.523 17.3091 29.8405 17.3174 30.4159 17.0506C30.9663 16.8004 31.525 16.25 31.7919 15.6996L32.0254 15.2326L32.0504 12.2053C32.0838 8.78614 32.0754 8.76947 31.525 8.76947C30.983 8.76947 30.983 8.78614 30.983 12.0469C30.983 15.3076 30.983 15.2993 30.3909 15.808C30.0407 16.1082 29.582 16.275 29.1401 16.275C28.7898 16.275 28.0893 15.9497 27.8392 15.6829C27.4139 15.2159 27.3972 15.0741 27.3972 11.9551C27.3972 9.24482 27.3888 9.03633 27.2471 8.91124C27.072 8.75279 26.7634 8.72777 26.5466 8.8612Z" fill="url(#paint13_linear_874_19175)"/>
<path d="M26.5466 8.8612C26.4048 8.93625 26.3965 9.18644 26.3965 12.0969V15.2492L26.655 15.7579C26.9302 16.3167 27.3722 16.742 27.9726 17.0422C28.523 17.3091 29.8405 17.3174 30.4159 17.0506C30.9663 16.8004 31.525 16.25 31.7919 15.6996L32.0254 15.2326L32.0504 12.2053C32.0838 8.78614 32.0754 8.76947 31.525 8.76947C30.983 8.76947 30.983 8.78614 30.983 12.0469C30.983 15.3076 30.983 15.2993 30.3909 15.808C30.0407 16.1082 29.582 16.275 29.1401 16.275C28.7898 16.275 28.0893 15.9497 27.8392 15.6829C27.4139 15.2159 27.3972 15.0741 27.3972 11.9551C27.3972 9.24482 27.3888 9.03633 27.2471 8.91124C27.072 8.75279 26.7634 8.72777 26.5466 8.8612Z" stroke="black" stroke-width="0.209999"/>
<path d="M26.5466 8.8612C26.4048 8.93625 26.3965 9.18644 26.3965 12.0969V15.2492L26.655 15.7579C26.9302 16.3167 27.3722 16.742 27.9726 17.0422C28.523 17.3091 29.8405 17.3174 30.4159 17.0506C30.9663 16.8004 31.525 16.25 31.7919 15.6996L32.0254 15.2326L32.0504 12.2053C32.0838 8.78614 32.0754 8.76947 31.525 8.76947C30.983 8.76947 30.983 8.78614 30.983 12.0469C30.983 15.3076 30.983 15.2993 30.3909 15.808C30.0407 16.1082 29.582 16.275 29.1401 16.275C28.7898 16.275 28.0893 15.9497 27.8392 15.6829C27.4139 15.2159 27.3972 15.0741 27.3972 11.9551C27.3972 9.24482 27.3888 9.03633 27.2471 8.91124C27.072 8.75279 26.7634 8.72777 26.5466 8.8612Z" stroke="url(#paint14_linear_874_19175)" stroke-width="0.209999"/>
<path d="M15.5786 26.9071C14.653 27.4659 14.5529 28.7335 15.3868 29.484C16.2958 30.3013 17.8052 29.7592 18.0136 28.525C18.1221 27.8745 17.6801 27.0656 17.0797 26.8154C16.6377 26.6236 15.9789 26.6653 15.5786 26.9071ZM16.7961 27.8995C17.038 28.1581 17.0046 28.5083 16.7127 28.7251C16.179 29.1171 15.5786 28.3415 16.054 27.8662C16.2791 27.641 16.571 27.6577 16.7961 27.8995Z" fill="black"/>
<path d="M15.5786 26.9071C14.653 27.4659 14.5529 28.7335 15.3868 29.484C16.2958 30.3013 17.8052 29.7592 18.0136 28.525C18.1221 27.8745 17.6801 27.0656 17.0797 26.8154C16.6377 26.6236 15.9789 26.6653 15.5786 26.9071ZM16.7961 27.8995C17.038 28.1581 17.0046 28.5083 16.7127 28.7251C16.179 29.1171 15.5786 28.3415 16.054 27.8662C16.2791 27.641 16.571 27.6577 16.7961 27.8995Z" fill="url(#paint15_linear_874_19175)"/>
<path d="M15.5786 26.9071C14.653 27.4659 14.5529 28.7335 15.3868 29.484C16.2958 30.3013 17.8052 29.7592 18.0136 28.525C18.1221 27.8745 17.6801 27.0656 17.0797 26.8154C16.6377 26.6236 15.9789 26.6653 15.5786 26.9071ZM16.7961 27.8995C17.038 28.1581 17.0046 28.5083 16.7127 28.7251C16.179 29.1171 15.5786 28.3415 16.054 27.8662C16.2791 27.641 16.571 27.6577 16.7961 27.8995Z" stroke="black" stroke-width="0.105"/>
<path d="M15.5786 26.9071C14.653 27.4659 14.5529 28.7335 15.3868 29.484C16.2958 30.3013 17.8052 29.7592 18.0136 28.525C18.1221 27.8745 17.6801 27.0656 17.0797 26.8154C16.6377 26.6236 15.9789 26.6653 15.5786 26.9071ZM16.7961 27.8995C17.038 28.1581 17.0046 28.5083 16.7127 28.7251C16.179 29.1171 15.5786 28.3415 16.054 27.8662C16.2791 27.641 16.571 27.6577 16.7961 27.8995Z" stroke="url(#paint16_linear_874_19175)" stroke-width="0.105"/>
<path d="M20.1662 26.907C19.5491 27.2823 19.2656 28.0078 19.4741 28.7333C19.8577 30.101 21.7924 30.2678 22.4595 28.9919C22.6263 28.6666 22.6263 27.8994 22.4595 27.5742C22.2844 27.2489 21.9091 26.8987 21.6172 26.7902C21.192 26.6235 20.5498 26.6818 20.1662 26.907ZM21.3838 27.8994C21.6256 28.1579 21.5922 28.5082 21.3004 28.725C20.7667 29.117 20.1662 28.3414 20.6416 27.866C20.8667 27.6409 21.1586 27.6575 21.3838 27.8994Z" fill="black"/>
<path d="M20.1662 26.907C19.5491 27.2823 19.2656 28.0078 19.4741 28.7333C19.8577 30.101 21.7924 30.2678 22.4595 28.9919C22.6263 28.6666 22.6263 27.8994 22.4595 27.5742C22.2844 27.2489 21.9091 26.8987 21.6172 26.7902C21.192 26.6235 20.5498 26.6818 20.1662 26.907ZM21.3838 27.8994C21.6256 28.1579 21.5922 28.5082 21.3004 28.725C20.7667 29.117 20.1662 28.3414 20.6416 27.866C20.8667 27.6409 21.1586 27.6575 21.3838 27.8994Z" fill="url(#paint17_linear_874_19175)"/>
<path d="M20.1662 26.907C19.5491 27.2823 19.2656 28.0078 19.4741 28.7333C19.8577 30.101 21.7924 30.2678 22.4595 28.9919C22.6263 28.6666 22.6263 27.8994 22.4595 27.5742C22.2844 27.2489 21.9091 26.8987 21.6172 26.7902C21.192 26.6235 20.5498 26.6818 20.1662 26.907ZM21.3838 27.8994C21.6256 28.1579 21.5922 28.5082 21.3004 28.725C20.7667 29.117 20.1662 28.3414 20.6416 27.866C20.8667 27.6409 21.1586 27.6575 21.3838 27.8994Z" stroke="black" stroke-width="0.105"/>
<path d="M20.1662 26.907C19.5491 27.2823 19.2656 28.0078 19.4741 28.7333C19.8577 30.101 21.7924 30.2678 22.4595 28.9919C22.6263 28.6666 22.6263 27.8994 22.4595 27.5742C22.2844 27.2489 21.9091 26.8987 21.6172 26.7902C21.192 26.6235 20.5498 26.6818 20.1662 26.907ZM21.3838 27.8994C21.6256 28.1579 21.5922 28.5082 21.3004 28.725C20.7667 29.117 20.1662 28.3414 20.6416 27.866C20.8667 27.6409 21.1586 27.6575 21.3838 27.8994Z" stroke="url(#paint18_linear_874_19175)" stroke-width="0.105"/>
<path d="M24.8505 26.8396C24.225 27.1649 23.9248 27.7319 23.9916 28.4491C24.1 29.5416 25.2424 30.1754 26.2765 29.7084C26.9436 29.4082 27.2688 28.6743 27.1104 27.8237C27.0437 27.4651 26.6184 26.9647 26.2515 26.8146C25.8929 26.6562 25.159 26.6728 24.8505 26.8396ZM25.9262 27.8737C26.2014 28.0905 26.2098 28.3908 25.9262 28.666C25.7011 28.8995 25.3925 28.8911 25.1507 28.6576C24.9589 28.4742 25.0006 28.0322 25.2174 27.8487C25.4676 27.6569 25.651 27.6569 25.9262 27.8737Z" fill="black"/>
<path d="M24.8505 26.8396C24.225 27.1649 23.9248 27.7319 23.9916 28.4491C24.1 29.5416 25.2424 30.1754 26.2765 29.7084C26.9436 29.4082 27.2688 28.6743 27.1104 27.8237C27.0437 27.4651 26.6184 26.9647 26.2515 26.8146C25.8929 26.6562 25.159 26.6728 24.8505 26.8396ZM25.9262 27.8737C26.2014 28.0905 26.2098 28.3908 25.9262 28.666C25.7011 28.8995 25.3925 28.8911 25.1507 28.6576C24.9589 28.4742 25.0006 28.0322 25.2174 27.8487C25.4676 27.6569 25.651 27.6569 25.9262 27.8737Z" fill="url(#paint19_linear_874_19175)"/>
<path d="M24.8505 26.8396C24.225 27.1649 23.9248 27.7319 23.9916 28.4491C24.1 29.5416 25.2424 30.1754 26.2765 29.7084C26.9436 29.4082 27.2688 28.6743 27.1104 27.8237C27.0437 27.4651 26.6184 26.9647 26.2515 26.8146C25.8929 26.6562 25.159 26.6728 24.8505 26.8396ZM25.9262 27.8737C26.2014 28.0905 26.2098 28.3908 25.9262 28.666C25.7011 28.8995 25.3925 28.8911 25.1507 28.6576C24.9589 28.4742 25.0006 28.0322 25.2174 27.8487C25.4676 27.6569 25.651 27.6569 25.9262 27.8737Z" stroke="black" stroke-width="0.105"/>
<path d="M24.8505 26.8396C24.225 27.1649 23.9248 27.7319 23.9916 28.4491C24.1 29.5416 25.2424 30.1754 26.2765 29.7084C26.9436 29.4082 27.2688 28.6743 27.1104 27.8237C27.0437 27.4651 26.6184 26.9647 26.2515 26.8146C25.8929 26.6562 25.159 26.6728 24.8505 26.8396ZM25.9262 27.8737C26.2014 28.0905 26.2098 28.3908 25.9262 28.666C25.7011 28.8995 25.3925 28.8911 25.1507 28.6576C24.9589 28.4742 25.0006 28.0322 25.2174 27.8487C25.4676 27.6569 25.651 27.6569 25.9262 27.8737Z" stroke="url(#paint20_linear_874_19175)" stroke-width="0.105"/>
</g>
<defs>
<linearGradient id="paint0_linear_874_19175" x1="14.85" y1="32" x2="16.4337" y2="38.5582" gradientUnits="userSpaceOnUse">
<stop offset="0.259336" stop-color="#FFDB6E"/>
<stop offset="1" stop-color="#FFBC5E"/>
</linearGradient>
<linearGradient id="paint1_linear_874_19175" x1="11.2467" y1="36" x2="11.8798" y2="41.1273" gradientUnits="userSpaceOnUse">
<stop offset="0.259336" stop-color="#FFDB6E"/>
<stop offset="1" stop-color="#FFBC5E"/>
</linearGradient>
<linearGradient id="paint2_linear_874_19175" x1="2.38" y1="0.999512" x2="35.714" y2="40.64" gradientUnits="userSpaceOnUse">
<stop offset="0.259336" stop-color="#FFDB6E"/>
<stop offset="1" stop-color="#FFBC5E"/>
</linearGradient>
<linearGradient id="paint3_linear_874_19175" x1="2.38" y1="40" x2="36.0286" y2="0.306045" gradientUnits="userSpaceOnUse">
<stop offset="0.259336" stop-color="#FFDB6E"/>
<stop offset="1" stop-color="#FFBC5E"/>
</linearGradient>
<linearGradient id="paint4_linear_874_19175" x1="2.38" y1="40" x2="36.0286" y2="0.306045" gradientUnits="userSpaceOnUse">
<stop offset="0.259336" stop-color="#FFDB6E"/>
<stop offset="1" stop-color="#FFBC5E"/>
</linearGradient>
<linearGradient id="paint5_linear_874_19175" x1="20.2006" y1="19.5312" x2="28.878" y2="15.505" gradientUnits="userSpaceOnUse">
<stop offset="0.259336" stop-color="#FFDB6E"/>
<stop offset="1" stop-color="#FFBC5E"/>
</linearGradient>
<linearGradient id="paint6_linear_874_19175" x1="20.2006" y1="19.5312" x2="28.878" y2="15.505" gradientUnits="userSpaceOnUse">
<stop offset="0.259336" stop-color="#FFDB6E"/>
<stop offset="1" stop-color="#FFBC5E"/>
</linearGradient>
<linearGradient id="paint7_linear_874_19175" x1="34.1231" y1="17.7803" x2="36.0154" y2="17.5622" gradientUnits="userSpaceOnUse">
<stop offset="0.259336" stop-color="#FFDB6E"/>
<stop offset="1" stop-color="#FFBC5E"/>
</linearGradient>
<linearGradient id="paint8_linear_874_19175" x1="34.1231" y1="17.7803" x2="36.0154" y2="17.5622" gradientUnits="userSpaceOnUse">
<stop offset="0.259336" stop-color="#FFDB6E"/>
<stop offset="1" stop-color="#FFBC5E"/>
</linearGradient>
<linearGradient id="paint9_linear_874_19175" x1="14.0905" y1="17.2744" x2="20.9296" y2="12.7785" gradientUnits="userSpaceOnUse">
<stop offset="0.259336" stop-color="#FFDB6E"/>
<stop offset="1" stop-color="#FFBC5E"/>
</linearGradient>
<linearGradient id="paint10_linear_874_19175" x1="14.0905" y1="17.2744" x2="20.9296" y2="12.7785" gradientUnits="userSpaceOnUse">
<stop offset="0.259336" stop-color="#FFDB6E"/>
<stop offset="1" stop-color="#FFBC5E"/>
</linearGradient>
<linearGradient id="paint11_linear_874_19175" x1="7.24126" y1="17.2334" x2="14.2629" y2="12.0384" gradientUnits="userSpaceOnUse">
<stop offset="0.259336" stop-color="#FFDB6E"/>
<stop offset="1" stop-color="#FFBC5E"/>
</linearGradient>
<linearGradient id="paint12_linear_874_19175" x1="7.24126" y1="17.2334" x2="14.2629" y2="12.0384" gradientUnits="userSpaceOnUse">
<stop offset="0.259336" stop-color="#FFDB6E"/>
<stop offset="1" stop-color="#FFBC5E"/>
</linearGradient>
<linearGradient id="paint13_linear_874_19175" x1="26.7175" y1="17.2466" x2="33.7451" y2="12.0607" gradientUnits="userSpaceOnUse">
<stop offset="0.259336" stop-color="#FFDB6E"/>
<stop offset="1" stop-color="#FFBC5E"/>
</linearGradient>
<linearGradient id="paint14_linear_874_19175" x1="26.7175" y1="17.2466" x2="33.7451" y2="12.0607" gradientUnits="userSpaceOnUse">
<stop offset="0.259336" stop-color="#FFDB6E"/>
<stop offset="1" stop-color="#FFBC5E"/>
</linearGradient>
<linearGradient id="paint15_linear_874_19175" x1="15.0004" y1="29.873" x2="17.7412" y2="26.8146" gradientUnits="userSpaceOnUse">
<stop offset="0.259336" stop-color="#FFDB6E"/>
<stop offset="1" stop-color="#FFBC5E"/>
</linearGradient>
<linearGradient id="paint16_linear_874_19175" x1="15.0004" y1="29.873" x2="17.7412" y2="26.8146" gradientUnits="userSpaceOnUse">
<stop offset="0.259336" stop-color="#FFDB6E"/>
<stop offset="1" stop-color="#FFBC5E"/>
</linearGradient>
<linearGradient id="paint17_linear_874_19175" x1="19.5864" y1="29.8604" x2="22.3186" y2="26.8315" gradientUnits="userSpaceOnUse">
<stop offset="0.259336" stop-color="#FFDB6E"/>
<stop offset="1" stop-color="#FFBC5E"/>
</linearGradient>
<linearGradient id="paint18_linear_874_19175" x1="19.5864" y1="29.8604" x2="22.3186" y2="26.8315" gradientUnits="userSpaceOnUse">
<stop offset="0.259336" stop-color="#FFDB6E"/>
<stop offset="1" stop-color="#FFBC5E"/>
</linearGradient>
<linearGradient id="paint19_linear_874_19175" x1="24.1619" y1="29.8638" x2="26.8886" y2="26.8449" gradientUnits="userSpaceOnUse">
<stop offset="0.259336" stop-color="#FFDB6E"/>
<stop offset="1" stop-color="#FFBC5E"/>
</linearGradient>
<linearGradient id="paint20_linear_874_19175" x1="24.1619" y1="29.8638" x2="26.8886" y2="26.8449" gradientUnits="userSpaceOnUse">
<stop offset="0.259336" stop-color="#FFDB6E"/>
<stop offset="1" stop-color="#FFBC5E"/>
</linearGradient>
<clipPath id="clip0_874_19175">
<rect width="42" height="42" fill="white"/>
</clipPath>
</defs>
</svg>
