<svg width="40" height="32" viewBox="0 0 40 32" fill="none" xmlns="http://www.w3.org/2000/svg">
<g clip-path="url(#clip0_311_3794)">
<mask id="mask0_311_3794" style="mask-type:luminance" maskUnits="userSpaceOnUse" x="0" y="0" width="40" height="32">
<path d="M40 0H0V32H40V0Z" fill="black" fill-opacity="0.1"/>
</mask>
<g mask="url(#mask0_311_3794)">
<mask id="mask1_311_3794" style="mask-type:luminance" maskUnits="userSpaceOnUse" x="5" y="4" width="29" height="23">
<path d="M33.4688 4.44531H5.29102V26.2053H33.4688V4.44531Z" fill="white"/>
</mask>
<g mask="url(#mask1_311_3794)">
<mask id="mask2_311_3794" style="mask-type:luminance" maskUnits="userSpaceOnUse" x="5" y="4" width="29" height="23">
<path d="M5.36719 4.46094H33.3769V26.1351H5.36719V4.46094Z" fill="white"/>
</mask>
<g mask="url(#mask2_311_3794)">
<mask id="mask3_311_3794" style="mask-type:luminance" maskUnits="userSpaceOnUse" x="5" y="4" width="29" height="23">
<path d="M6.90247 4.46094H31.8011C32.2077 4.46094 32.5976 4.5901 32.8855 4.82038C33.173 5.05038 33.3344 5.36233 33.3344 5.6876V24.9084C33.3344 25.234 33.173 25.5459 32.8855 25.7759C32.5976 26.0059 32.2077 26.1351 31.8011 26.1351H6.90247C6.49588 26.1351 6.1056 26.0059 5.8181 25.7759C5.5306 25.5459 5.36914 25.234 5.36914 24.9084V5.6876C5.36914 5.36233 5.5306 5.05038 5.8181 4.82038C6.1056 4.5901 6.49588 4.46094 6.90247 4.46094Z" fill="white"/>
</mask>
<g mask="url(#mask3_311_3794)">
<path d="M5.36914 4.46094H33.3084V26.1351H5.36914V4.46094Z" fill="#FFDB6E"/>
</g>
</g>
</g>
</g>
<mask id="mask4_311_3794" style="mask-type:luminance" maskUnits="userSpaceOnUse" x="1" y="1" width="36" height="29">
<path d="M1 1H37V30H1V1Z" fill="white"/>
</mask>
<g mask="url(#mask4_311_3794)">
<path d="M20.568 28.3537H9.30725V2.56323H28.6907V13.317C28.6907 13.3682 28.6965 13.4193 28.7085 13.4694C28.7201 13.5199 28.7374 13.5686 28.7606 13.6162C28.7842 13.6635 28.8123 13.7087 28.8463 13.7511C28.8798 13.7938 28.9178 13.8334 28.9609 13.8695C29.0039 13.9059 29.0503 13.9382 29.1007 13.9669C29.1512 13.9953 29.2042 14.0195 29.2604 14.0391C29.3163 14.0587 29.3742 14.0734 29.4334 14.0836C29.493 14.0934 29.553 14.0986 29.6134 14.0986C29.6742 14.0986 29.7342 14.0934 29.7938 14.0836C29.853 14.0734 29.9109 14.0587 29.9667 14.0391C30.0226 14.0195 30.076 13.9953 30.1265 13.9669C30.1769 13.9382 30.2233 13.9059 30.2663 13.8695C30.3089 13.8334 30.3474 13.7938 30.3809 13.7511C30.4149 13.7087 30.443 13.6635 30.4662 13.6162C30.4893 13.5686 30.5071 13.5199 30.5187 13.4694C30.5307 13.4193 30.5365 13.3682 30.5365 13.317V8.03384H35.1517V9.90187C35.1517 9.95302 35.1575 10.0038 35.1695 10.0543C35.1811 10.1044 35.1989 10.1534 35.222 10.2007C35.2452 10.2484 35.2738 10.2932 35.3073 10.3359C35.3408 10.3787 35.3793 10.4179 35.4219 10.4544C35.4649 10.4908 35.5117 10.523 35.5617 10.5514C35.6122 10.5801 35.6656 10.604 35.7215 10.6239C35.7773 10.6435 35.8352 10.6583 35.8948 10.6681C35.954 10.6782 36.014 10.6831 36.0748 10.6831C36.1352 10.6831 36.1952 10.6782 36.2548 10.6681C36.3144 10.6583 36.3719 10.6435 36.4278 10.6239C36.484 10.604 36.537 10.5801 36.5875 10.5514C36.638 10.523 36.6847 10.4908 36.7273 10.4544C36.7704 10.4179 36.8084 10.3787 36.8424 10.3359C36.8759 10.2932 36.9044 10.2484 36.9276 10.2007C36.9508 10.1534 36.9681 10.1044 36.9801 10.0543C36.9917 10.0038 36.9979 9.95302 36.9979 9.90187V4.90773C36.9975 4.77985 36.9901 4.65233 36.9752 4.5248C36.9599 4.39763 36.9379 4.27115 36.9081 4.14573C36.8784 4.02031 36.8419 3.89629 36.7977 3.77402C36.7538 3.6514 36.7029 3.53123 36.645 3.41316C36.5871 3.29475 36.5225 3.17948 36.4513 3.06667C36.3798 2.95386 36.3024 2.84421 36.2184 2.7377C36.1344 2.63155 36.0442 2.5289 35.9486 2.4301C35.8526 2.33095 35.7512 2.23636 35.6445 2.14597C35.5377 2.05558 35.4256 1.96975 35.3089 1.88847C35.1922 1.80719 35.071 1.73117 34.9452 1.66005C34.8199 1.58893 34.6903 1.52306 34.5571 1.4628C34.4239 1.40254 34.2873 1.34789 34.1479 1.29884C34.0084 1.24979 33.8661 1.2067 33.7217 1.16922C33.5773 1.13208 33.4308 1.1009 33.2827 1.07602C33.1346 1.0508 32.9852 1.03188 32.835 1.01927C32.6844 1.00666 32.5338 1.00035 32.3827 1H5.61518C5.46416 1.00035 5.31313 1.00666 5.16293 1.01927C5.01232 1.03188 4.86336 1.0508 4.71523 1.07602C4.56711 1.1009 4.42063 1.13208 4.27581 1.16922C4.13141 1.2067 3.98948 1.24979 3.84963 1.29884C3.71019 1.34789 3.57365 1.40254 3.44041 1.4628C3.30718 1.52306 3.17808 1.58893 3.0523 1.66005C2.92692 1.73117 2.80569 1.80719 2.68859 1.88847C2.57191 1.96975 2.46019 2.05558 2.35344 2.14597C2.24627 2.23636 2.1449 2.33095 2.04932 2.4301C1.95332 2.5289 1.86354 2.63155 1.77954 2.7377C1.69555 2.84421 1.61776 2.95386 1.54659 3.06667C1.47542 3.17948 1.41046 3.29475 1.35295 3.41316C1.29502 3.53123 1.24371 3.6514 1.19985 3.77402C1.15599 3.89629 1.11917 4.02031 1.08937 4.14573C1.06 4.27115 1.03765 4.39763 1.02276 4.5248C1.00786 4.65233 1 4.77985 1 4.90773V26.0092C1 26.1371 1.00786 26.2646 1.02276 26.3918C1.03765 26.5193 1.06 26.6458 1.08937 26.7712C1.11917 26.8967 1.15599 27.0203 1.19985 27.143C1.24371 27.2652 1.29502 27.3857 1.35295 27.5038C1.41046 27.6219 1.47542 27.7375 1.54659 27.8503C1.61776 27.9631 1.69555 28.0728 1.77954 28.1789C1.86354 28.2854 1.95332 28.3881 2.04932 28.4869C2.1449 28.5857 2.24627 28.6803 2.35344 28.771C2.46019 28.8614 2.57191 28.9472 2.68859 29.0282C2.80569 29.1094 2.92692 29.1858 3.0523 29.2566C3.17808 29.3277 3.30718 29.3936 3.44041 29.4538C3.57365 29.5144 3.71019 29.5691 3.84963 29.6181C3.98948 29.6672 4.13141 29.7103 4.27581 29.7474C4.42063 29.7845 4.56711 29.8157 4.71523 29.8409C4.86336 29.8658 5.01232 29.8847 5.16293 29.8974C5.31313 29.9103 5.46416 29.9166 5.61518 29.9166H20.568C20.6284 29.9166 20.6888 29.9117 20.748 29.9016C20.8076 29.8917 20.8651 29.877 20.9213 29.8574C20.9772 29.8374 21.0306 29.8136 21.0806 29.7849C21.1311 29.7565 21.1779 29.7243 21.2205 29.6878C21.2635 29.6514 21.3016 29.6122 21.3355 29.5694C21.369 29.5267 21.3976 29.4818 21.4208 29.4342C21.4439 29.3869 21.4613 29.3379 21.4733 29.2878C21.4849 29.2373 21.4911 29.1865 21.4911 29.1354C21.4911 29.0839 21.4849 29.0331 21.4733 28.9826C21.4613 28.9325 21.4439 28.8835 21.4208 28.8362C21.3976 28.7889 21.369 28.7437 21.3355 28.7009C21.3016 28.6582 21.2635 28.6189 21.2205 28.5825C21.1779 28.5464 21.1311 28.5138 21.0806 28.4855C21.0306 28.4567 20.9772 28.4329 20.9213 28.4133C20.8651 28.3937 20.8076 28.3786 20.748 28.3688C20.6888 28.3586 20.6284 28.3537 20.568 28.3537ZM32.3827 2.56323C32.4734 2.56323 32.564 2.56673 32.6542 2.57444C32.7444 2.5818 32.8338 2.59336 32.9227 2.60807C33.0117 2.62314 33.0998 2.64171 33.1863 2.66413C33.2732 2.68655 33.3584 2.71213 33.4424 2.74156C33.526 2.77098 33.6079 2.80392 33.6878 2.84C33.768 2.87609 33.8458 2.91568 33.9211 2.95842C33.9964 3.00081 34.0693 3.0467 34.1392 3.0954C34.2095 3.1441 34.2766 3.1956 34.3407 3.2499C34.4048 3.30421 34.4657 3.36096 34.5232 3.42017C34.5807 3.47973 34.6345 3.54139 34.685 3.60515C34.7354 3.66891 34.7818 3.73478 34.8248 3.80239C34.8674 3.87036 34.9063 3.93938 34.9411 4.0105C34.9754 4.08127 35.006 4.15379 35.0325 4.22701C35.0586 4.30058 35.0809 4.37486 35.0983 4.45018C35.1161 4.5255 35.1293 4.60153 35.1385 4.6779C35.1471 4.75428 35.1517 4.831 35.1517 4.90773V6.47096H30.5365V2.56323H32.3827ZM2.84582 13.5044H7.46101V17.4122H2.84582V13.5044ZM7.46101 11.9416H2.84582V8.03384H7.46101V11.9416ZM2.84582 18.9754H7.46101V22.8828H2.84582V18.9754ZM2.84582 4.90773C2.84582 4.831 2.85038 4.75428 2.85948 4.6779C2.86817 4.60153 2.88141 4.5255 2.8992 4.45018C2.91699 4.37486 2.93892 4.30058 2.9654 4.22701C2.99147 4.15379 3.02209 4.08127 3.05685 4.0105C3.0916 3.93938 3.13008 3.87036 3.17312 3.80239C3.21573 3.73478 3.26249 3.66891 3.31256 3.60515C3.36304 3.54139 3.41683 3.47973 3.47434 3.42017C3.53227 3.36096 3.59309 3.30421 3.65723 3.2499C3.72136 3.1956 3.78839 3.1441 3.85832 3.0954C3.92866 3.0467 4.00107 3.00081 4.07679 2.95842C4.15209 2.91568 4.22988 2.87609 4.30974 2.84C4.3896 2.80392 4.47152 2.77098 4.55552 2.74156C4.6391 2.71213 4.72434 2.68655 4.81123 2.66413C4.89812 2.64171 4.98584 2.62314 5.0748 2.60807C5.16376 2.59336 5.25355 2.5818 5.34375 2.57444C5.43395 2.56673 5.52457 2.56323 5.61518 2.56323H7.46101V6.47096H2.84582V4.90773ZM5.61518 28.3537C5.52457 28.3537 5.43395 28.3499 5.34375 28.3425C5.25355 28.3348 5.16376 28.3236 5.0748 28.3085C4.98584 28.2935 4.89812 28.2749 4.81123 28.2528C4.72434 28.2304 4.6391 28.2045 4.55552 28.1751C4.47152 28.146 4.3896 28.1131 4.30974 28.077C4.22988 28.0405 4.15209 28.0013 4.07679 27.9586C4.00107 27.9158 3.92866 27.8703 3.85832 27.8216C3.78839 27.7729 3.72136 27.7214 3.65723 27.6671C3.59309 27.6128 3.53227 27.556 3.47434 27.4965C3.41683 27.4372 3.36304 27.3756 3.31256 27.3118C3.26208 27.2477 3.21573 27.1822 3.17312 27.1142C3.13008 27.0466 3.0916 26.9772 3.05685 26.9065C3.02209 26.8354 2.99147 26.7632 2.9654 26.6896C2.93892 26.616 2.91699 26.5418 2.8992 26.4664C2.88141 26.3911 2.86817 26.3154 2.85948 26.2387C2.85038 26.1623 2.84582 26.086 2.84582 26.0092V24.446H7.46101V28.3537H5.61518Z" fill="#FFDB6E"/>
</g>
<path d="M36.0699 23C36.0086 23 35.9482 23.0045 35.8885 23.0129C35.8285 23.0216 35.7702 23.0342 35.7139 23.051C35.6576 23.0678 35.6038 23.0885 35.553 23.1127C35.5025 23.1373 35.4554 23.1649 35.4121 23.1961C35.3691 23.227 35.3303 23.2609 35.2966 23.2974C35.2628 23.334 35.2341 23.3724 35.2107 23.4129C35.1874 23.4537 35.1694 23.4953 35.1578 23.5385C35.1457 23.5817 35.1398 23.6252 35.1398 23.669V23.9166C35.1407 24.009 35.1323 24.101 35.1152 24.1925C35.0982 24.2842 35.0723 24.3745 35.0377 24.4635C35.0027 24.5523 34.9597 24.6392 34.9081 24.7238C34.8564 24.8087 34.7968 24.8902 34.7296 24.9688C34.6621 25.0476 34.5871 25.1223 34.5049 25.1937C34.4228 25.2647 34.3344 25.3313 34.2394 25.3934C34.1443 25.4557 34.0439 25.5127 33.9376 25.5649C33.8313 25.617 33.7208 25.6635 33.6053 25.7043C33.5545 25.7181 33.5057 25.7349 33.459 25.7547C33.4119 25.7745 33.3681 25.7969 33.3269 25.8221C33.2852 25.8476 33.2472 25.8752 33.2131 25.9055C33.1785 25.9355 33.1476 25.9676 33.1209 26.0017C33.0942 26.0356 33.0717 26.071 33.0534 26.1079C33.0355 26.1448 33.0217 26.1822 33.013 26.2209C33.0038 26.2593 32.9996 26.2983 33 26.3373C33.0009 26.3762 33.0059 26.4149 33.0159 26.4533C33.0259 26.4917 33.0405 26.5292 33.0592 26.5657C33.0784 26.6023 33.1017 26.6374 33.1293 26.6713C33.1568 26.7049 33.1885 26.7364 33.2235 26.766C33.2589 26.7957 33.2977 26.823 33.3394 26.8479C33.3815 26.8728 33.4261 26.8947 33.4736 26.9139C33.5207 26.9331 33.5699 26.9493 33.6212 26.9621C33.6724 26.975 33.725 26.9846 33.7783 26.9912C33.8321 26.9975 33.8859 27.0005 33.9401 26.9999C34.0789 26.9999 34.2106 26.9786 34.3365 26.9364C34.5354 26.8701 34.7267 26.7939 34.9101 26.7079C35.094 26.6218 35.2682 26.5268 35.4333 26.4227C35.598 26.3187 35.7518 26.2068 35.8944 26.0872C36.0369 25.9673 36.167 25.8407 36.2842 25.7076C36.4017 25.5745 36.5055 25.4359 36.5951 25.292C36.6852 25.1484 36.7606 25.0006 36.8211 24.8491C36.8815 24.6974 36.927 24.5436 36.9566 24.3874C36.9866 24.2312 37.0012 24.074 36.9999 23.9166V23.669C36.9999 23.6252 36.9937 23.5817 36.982 23.5385C36.9699 23.4953 36.9524 23.4537 36.9291 23.4129C36.9057 23.3724 36.8769 23.334 36.8432 23.2974C36.809 23.2609 36.7706 23.227 36.7273 23.1961C36.6844 23.1649 36.6372 23.1373 36.5864 23.1127C36.5355 23.0885 36.4822 23.0678 36.4255 23.051C36.3692 23.0342 36.3113 23.0216 36.2512 23.0129C36.1912 23.0045 36.1307 23 36.0699 23Z" fill="#FFDB6E"/>
<mask id="mask5_311_3794" style="mask-type:luminance" maskUnits="userSpaceOnUse" x="24" y="13" width="15" height="17">
<path d="M24 13H39V30H24V13Z" fill="white"/>
</mask>
<g mask="url(#mask5_311_3794)">
<path d="M38.869 15.2902C38.8122 15.1224 38.7166 14.9693 38.5818 14.8315C38.4473 14.6934 38.2841 14.5812 38.0925 14.4945L35.2066 13.1837C35.1592 13.1623 35.1107 13.1426 35.061 13.1249C35.0113 13.107 34.9609 13.0914 34.909 13.0776C34.8574 13.0638 34.8052 13.0521 34.7518 13.0421C34.6987 13.0324 34.6453 13.0247 34.5912 13.0192C34.537 13.0136 34.4825 13.0101 34.4279 13.0086C34.3734 13.0071 34.3189 13.0077 34.2647 13.0106C34.2102 13.0133 34.1561 13.0183 34.1023 13.0253C34.0485 13.0324 33.9951 13.0412 33.9424 13.0524C33.8898 13.0635 33.8379 13.0765 33.7867 13.0917C33.7355 13.1067 33.6855 13.1238 33.6365 13.1429C33.5876 13.1617 33.5402 13.1825 33.4939 13.2052C33.4472 13.2278 33.4024 13.2522 33.3591 13.2783C33.3161 13.3045 33.2743 13.3324 33.2347 13.3615C33.1947 13.3909 33.1566 13.4217 33.1208 13.454C33.0849 13.4864 33.0509 13.5199 33.0192 13.5548C32.9874 13.5895 32.9576 13.6256 32.9303 13.6627L24.5282 25.1133C24.3769 25.3187 24.2637 25.5364 24.1879 25.7665C24.1125 25.9963 24.077 26.2299 24.0826 26.4673L24.1293 28.652C24.1297 28.6802 24.1315 28.7084 24.1345 28.7363C24.1371 28.7645 24.1412 28.7924 24.1465 28.8203C24.1517 28.8479 24.158 28.8759 24.1655 28.9032C24.173 28.9308 24.1816 28.9581 24.1913 28.9852C24.201 29.0122 24.2118 29.0392 24.2238 29.0657C24.2354 29.0921 24.2484 29.1186 24.2626 29.1444C24.2764 29.1703 24.2918 29.1958 24.3078 29.2208C24.3239 29.2461 24.3411 29.2708 24.3594 29.2949C24.3773 29.3193 24.3963 29.3431 24.4165 29.3663C24.4367 29.3895 24.4576 29.4124 24.4796 29.4344C24.5016 29.4568 24.5244 29.4782 24.5483 29.4994C24.5719 29.5205 24.5965 29.5408 24.6219 29.5608C24.6473 29.5805 24.6734 29.5996 24.7003 29.6181C24.7272 29.6366 24.7552 29.6545 24.7836 29.6716C24.812 29.6886 24.8411 29.7051 24.8706 29.7206C24.9005 29.7362 24.9308 29.7512 24.9618 29.7653C24.9928 29.7791 25.0245 29.7926 25.0566 29.805C25.0884 29.8176 25.1212 29.8291 25.1541 29.8399C25.187 29.8508 25.2206 29.8608 25.2546 29.8699C25.2882 29.879 25.3226 29.8872 25.3569 29.8946C25.3913 29.9022 25.4264 29.9087 25.4611 29.9143C25.4962 29.9198 25.5317 29.9246 25.5672 29.9284C25.6023 29.9325 25.6381 29.9354 25.6736 29.9375C25.7095 29.9395 25.745 29.9404 25.7808 29.9407C25.8167 29.941 25.8525 29.9404 25.888 29.9387C25.9239 29.9372 25.9593 29.9348 25.9948 29.9313C26.0303 29.9281 26.0658 29.9237 26.1009 29.9187C26.136 29.9134 26.1711 29.9072 26.2058 29.9005C26.2406 29.8934 26.2749 29.8858 26.3089 29.8769C26.3429 29.8684 26.3765 29.8587 26.4097 29.8484C26.443 29.8382 26.4759 29.8267 26.508 29.8147C26.5405 29.8026 26.5722 29.79 26.6036 29.7762L29.0323 28.7157C29.2964 28.6 29.5358 28.4589 29.7513 28.292C29.9664 28.1251 30.1494 27.9385 30.3003 27.7326L38.7017 16.286C38.813 16.1356 38.8832 15.9739 38.9123 15.8015C38.9411 15.6287 38.9269 15.4583 38.869 15.2902ZM28.8579 27.0791C28.704 27.2886 28.4923 27.4519 28.223 27.5692L25.7954 28.6311L25.7487 26.4464C25.7435 26.2043 25.8174 25.9784 25.9713 25.7686L34.3734 14.3197L37.2593 15.6305L28.8579 27.0791Z" fill="#FFDB6E"/>
</g>
<path d="M16.6723 10.3568C16.5546 10.2987 16.4326 10.2473 16.3069 10.2027C16.1813 10.1581 16.0523 10.1207 15.9211 10.0904C15.7893 10.0605 15.6562 10.0378 15.5212 10.0227C15.3863 10.0076 15.2503 10 15.1144 10C14.978 10 14.8426 10.0076 14.7076 10.0227C14.5726 10.0378 14.4395 10.0605 14.3078 10.0908C14.1765 10.1211 14.0481 10.1585 13.9219 10.2031C13.7962 10.2477 13.6743 10.2991 13.5565 10.3572C13.4388 10.4158 13.3257 10.4803 13.2177 10.5512C13.1097 10.6221 13.0077 10.6989 12.9114 10.7814C12.815 10.8638 12.7257 10.951 12.6428 11.0434C12.56 11.1358 12.4846 11.2326 12.4166 11.3338C12.3486 11.4345 12.2886 11.5389 12.2365 11.6464C12.1843 11.7539 12.1406 11.8643 12.1057 11.9766C12.0703 12.0893 12.0442 12.2032 12.0265 12.3187C12.0084 12.4342 12 12.5505 12 12.6667V21.3289C11.9996 21.4456 12.0079 21.5619 12.0252 21.6774C12.0424 21.7932 12.0684 21.9075 12.1034 22.0203C12.1383 22.133 12.1815 22.2433 12.2332 22.3512C12.2853 22.4591 12.3449 22.5635 12.4129 22.6646C12.4808 22.7658 12.5562 22.863 12.6391 22.9554C12.722 23.0482 12.8113 23.1358 12.9077 23.2182C13.004 23.3011 13.106 23.3779 13.2144 23.4488C13.3224 23.5201 13.4355 23.5846 13.5533 23.6432C13.6715 23.7013 13.7934 23.7527 13.9196 23.7977C14.0453 23.8423 14.1742 23.8793 14.3059 23.9096C14.4376 23.9399 14.5712 23.9622 14.7062 23.9773C14.8417 23.9924 14.9771 24 15.1135 24C15.2499 23.9996 15.3858 23.9916 15.5208 23.9765C15.6558 23.961 15.7893 23.9379 15.9211 23.9076C16.0523 23.8769 16.1813 23.8391 16.3069 23.7941C16.4326 23.7495 16.5546 23.6973 16.6723 23.6388L25.4393 19.3061C25.5571 19.248 25.6702 19.1835 25.7786 19.1126C25.8866 19.0417 25.989 18.9648 26.0854 18.8824C26.1822 18.8003 26.2716 18.7127 26.3549 18.6203C26.4377 18.5279 26.5136 18.4311 26.5815 18.3304C26.65 18.2292 26.71 18.1249 26.7621 18.0174C26.8147 17.9094 26.8585 17.7995 26.8934 17.6868C26.9288 17.5741 26.9553 17.4602 26.9735 17.3443C26.9912 17.2288 27 17.1125 27 16.9962C27 16.8795 26.9912 16.7632 26.9735 16.6477C26.9553 16.5322 26.9288 16.4179 26.8934 16.3052C26.8585 16.1929 26.8147 16.0826 26.7621 15.9751C26.71 15.8672 26.65 15.7628 26.5815 15.662C26.5136 15.5609 26.4377 15.4645 26.3549 15.3717C26.2716 15.2793 26.1822 15.1921 26.0854 15.1097C25.989 15.0272 25.8866 14.9508 25.7786 14.8799C25.6702 14.809 25.5571 14.7445 25.4393 14.6863L16.6723 10.3568ZM24.4009 17.7653L15.6339 22.0955C15.5948 22.115 15.5543 22.1322 15.5124 22.1469C15.4705 22.162 15.4277 22.1744 15.3839 22.1843C15.3402 22.1943 15.2955 22.2019 15.2508 22.207C15.2057 22.2122 15.1605 22.2146 15.1154 22.2146C15.0697 22.2146 15.0246 22.2122 14.9799 22.207C14.9348 22.2019 14.8905 22.1943 14.8468 22.1843C14.8026 22.1744 14.7597 22.162 14.7179 22.1473C14.676 22.1322 14.6355 22.115 14.5964 22.0959C14.5568 22.0764 14.5191 22.0549 14.4833 22.0314C14.4474 22.0079 14.4134 21.9824 14.3813 21.9549C14.3492 21.9275 14.3194 21.8984 14.2915 21.8677C14.264 21.8367 14.2389 21.8048 14.2161 21.7709C14.1933 21.7375 14.1733 21.7028 14.156 21.667C14.1384 21.6312 14.1239 21.5945 14.1123 21.5571C14.1006 21.5196 14.0913 21.4814 14.0858 21.4432C14.0797 21.4045 14.0764 21.3659 14.0764 21.3273V12.6651C14.0755 12.5871 14.0867 12.5102 14.11 12.4346C14.1332 12.3589 14.1677 12.2872 14.2133 12.2195C14.2589 12.1518 14.3143 12.0905 14.379 12.0355C14.4442 11.9805 14.5163 11.9339 14.5959 11.8957C14.7565 11.8169 14.9296 11.7762 15.1149 11.7738C15.3011 11.7738 15.4742 11.8145 15.6339 11.8965L24.4009 16.2268C24.44 16.2463 24.4777 16.2678 24.5135 16.2913C24.5498 16.3148 24.5838 16.3403 24.6159 16.3678C24.648 16.3952 24.6778 16.4243 24.7053 16.4554C24.7327 16.486 24.7579 16.5183 24.7807 16.5518C24.8035 16.5856 24.8235 16.6203 24.8407 16.6561C24.8584 16.6919 24.8728 16.7286 24.8845 16.766C24.8961 16.8035 24.905 16.8417 24.911 16.8803C24.9171 16.9186 24.9198 16.9572 24.9198 16.9962C24.9198 17.0348 24.9171 17.0735 24.911 17.1121C24.905 17.1503 24.8961 17.1886 24.8845 17.226C24.8728 17.2634 24.8584 17.3001 24.8407 17.3359C24.8235 17.3718 24.8035 17.4068 24.7807 17.4403C24.7579 17.4737 24.7327 17.506 24.7053 17.5371C24.6778 17.5677 24.648 17.5968 24.6159 17.6243C24.5838 17.6518 24.5498 17.6772 24.5135 17.7007C24.4777 17.7246 24.44 17.7461 24.4009 17.7657V17.7653Z" fill="#FFDB6E"/>
</g>
<defs>
<clipPath id="clip0_311_3794">
<rect width="40" height="32" fill="white"/>
</clipPath>
</defs>
</svg>
