<svg width="185" height="185" viewBox="0 0 185 185" fill="none" xmlns="http://www.w3.org/2000/svg">
<g clip-path="url(#clip0_403_5)">
<path d="M185 92.5C185 41.4137 143.586 5.98305e-08 92.5 1.33635e-07L50 1.95035e-07C22.386 2.34929e-07 3.23408e-08 22.3858 7.22351e-08 50L1.33635e-07 92.5C2.07439e-07 143.586 41.414 185 92.5 185C143.586 185 185 143.586 185 92.5Z" fill="url(#paint0_linear_403_5)"/>
<path d="M122.57 90.6065C122.57 90.6065 122.605 90.7505 122.674 91.0382L122.63 91.3648C122.6 91.5824 122.57 91.8001 122.54 92.0177C122.51 92.2354 122.442 92.3362 122.336 92.3205L122.017 92.2733C122.002 92.3822 121.934 92.4831 121.813 92.5764C121.6 92.5448 121.388 92.7077 121.176 93.065C121.018 93.4303 120.791 93.8964 120.496 94.4634C119.846 95.2554 119.173 96.4049 118.479 97.9123C117.792 99.3651 116.912 101.039 115.839 102.934C113.746 106.733 111.275 111.503 108.429 117.243C108.098 118.083 107.727 118.805 107.319 119.411C106.964 120.024 106.617 120.778 106.277 121.672C105.762 122.262 105.312 122.973 104.927 123.804C104.55 124.581 104.135 125.435 103.682 126.368C103.379 126.99 102.956 127.704 102.412 128.512C101.928 129.273 101.456 130.147 100.995 131.133C100.481 131.723 100.004 132.43 99.5653 133.253C99.1349 134.022 98.6138 134.861 98.0012 135.769L96.5598 137.972C96.2734 138.484 95.9137 138.931 95.482 139.311C95.0503 139.691 94.7017 140.056 94.4375 140.406C94.1945 140.591 93.9514 140.778 93.7095 140.964C93.5197 141.158 93.304 141.348 93.0619 141.535L92.6539 142.14L92.1751 142.069C92.1602 142.178 92.092 142.279 91.9704 142.373L91.6516 142.326C91.5449 142.31 91.4619 142.519 91.4024 142.954L91.0836 142.907L90.9236 142.884L90.6048 142.836L90.3654 142.801L90.0466 142.754L89.5678 142.683L89.4078 142.659L88.9302 142.589C88.7169 142.557 88.6251 142.432 88.6548 142.215C88.6847 141.997 88.6461 141.881 88.5406 141.866C88.3273 141.834 88.1759 141.756 88.0842 141.631C87.9925 141.506 87.84 141.428 87.6278 141.397L86.9728 139.635C87.0025 139.418 86.9952 139.277 86.9491 139.216C86.9033 139.153 86.8004 138.915 86.6403 138.503C86.67 138.286 86.6726 138.064 86.6489 137.839C86.6255 137.613 86.629 137.392 86.6589 137.174C86.4456 137.142 86.3698 136.909 86.4293 136.474L86.4741 136.147C86.3674 136.131 86.3288 136.015 86.3587 135.797L86.4033 135.471C86.4777 134.926 86.5224 134.6 86.5373 134.491C86.5447 134.436 86.4567 134.285 86.2743 134.035L86.3636 133.383L86.4082 133.057L86.9104 129.384L87.1895 127.343C87.491 126.721 87.6943 126.03 87.7985 125.268C87.9101 124.452 88.0639 123.725 88.2599 123.088C88.6581 121.758 88.9656 120.5 89.1826 119.311C89.4071 118.068 89.7148 116.808 90.1066 115.534C91.2168 110.59 92.5699 105.655 94.1661 100.729C94.728 98.2029 95.3443 95.685 96.0129 93.1747C96.6814 90.6644 97.4033 88.162 98.1785 85.6675C98.7415 83.1416 99.3642 80.569 100.048 77.95C100.784 75.3387 101.434 72.7702 101.997 70.2443C102.574 67.6095 103.117 65.0251 103.627 62.4914C104.143 59.9031 104.599 57.1671 104.994 54.2832C105.343 51.7258 105.598 49.2653 105.759 46.9021C105.919 44.5387 105.955 42.49 105.867 40.756C105.788 39.7452 105.672 38.812 105.517 37.9563C105.37 37.0464 105.102 36.2297 104.713 35.5059C104.208 34.4321 103.389 33.284 102.254 32.0613L101.217 31.908C101.247 31.6904 101.235 31.5776 101.181 31.5697C101.128 31.5618 101.109 31.5035 101.124 31.3947L101.147 31.2314L100.668 31.1606L99.7102 31.019L98.6732 30.8657L97.7157 30.7241L96.4404 30.5355C96.3338 30.5197 96.1861 30.609 95.9964 30.803C95.8067 30.997 95.6057 31.0782 95.3936 31.0469C95.0736 30.9996 94.7138 31.0575 94.3119 31.2201L93.3543 31.0785C93.203 31.3891 93.0442 31.56 92.8768 31.5908C92.7105 31.6217 92.5059 31.7302 92.2628 31.9163C91.8374 31.8534 91.4616 32.0198 91.1365 32.4159C91.0299 32.4001 90.8897 32.4349 90.716 32.5203C90.5411 32.6054 90.3476 32.6324 90.1343 32.6008C89.7709 32.8801 89.4372 33.1362 89.1345 33.3689C88.8393 33.5473 88.456 33.7682 87.9859 34.0318C87.6373 34.2024 87.2769 34.4544 86.9057 34.7881C86.5878 35.1296 86.19 35.4594 85.7124 35.7774C84.318 36.848 82.9199 37.9459 81.5182 39.0709C80.1695 40.2038 78.8482 41.535 77.5538 43.0645C76.1148 44.4616 74.7636 46.0105 73.5001 47.7111C72.2973 49.3652 71.0869 51.0737 69.8693 52.8367C68.6812 54.3819 67.4518 56.032 66.1809 57.7871C64.9707 59.4955 63.7301 61.2273 62.4592 62.9824C61.3776 64.5434 60.2582 66.182 59.1012 67.8984C58.0047 69.5681 56.8699 71.1213 55.6967 72.5578C54.5854 74.3364 53.4963 75.9518 52.4296 77.404C51.4236 78.8095 50.3531 80.2889 49.2183 81.842C48.1516 83.2942 47.0658 84.688 45.9607 86.0234C44.9164 87.3123 43.8757 88.5741 42.8387 89.8085C40.7511 92.7749 38.8292 95.3223 37.0735 97.449C36.5736 97.9305 36.1157 98.5012 35.6998 99.1621C35.2915 99.7673 34.8372 100.311 34.3373 100.793C34.0354 101.414 33.6573 101.996 33.2032 102.54C32.8097 103.036 32.3406 103.689 31.7961 104.497C30.1614 106.531 28.6555 108.418 27.2783 110.158C25.9011 111.896 24.5497 113.446 23.2246 114.803C22.0069 116.567 20.9704 117.996 20.1154 119.09C19.2145 120.124 18.435 121.062 17.7766 121.909C17.2767 122.39 16.9322 122.728 16.743 122.921C16.5004 123.108 16.2505 123.348 15.9932 123.643L15.6292 123.923C15.2976 124.762 15.0847 124.731 14.9912 123.829L15.1251 122.849L15.1475 122.685C15.1623 122.577 15.2038 122.472 15.2719 122.371C15.3399 122.27 15.3888 122.111 15.4186 121.893C15.5399 121.8 15.9967 120.84 16.7888 119.015C17.3482 118.098 18.0093 116.835 18.7718 115.227C19.481 113.611 20.3679 111.689 21.4324 109.459C22.4523 107.556 23.5818 105.447 24.8206 103.133C26.1129 100.825 27.4996 98.4209 28.9811 95.9196C29.3129 95.0805 29.7095 94.3622 30.1711 93.7637C30.6402 93.1119 31.0443 92.3391 31.3835 91.4454L32.6885 89.64C32.8692 89.1116 33.0542 88.7504 33.2435 88.5562C33.4402 88.3078 33.6822 87.9272 33.9694 87.4146C35.4423 84.5791 37.3141 81.8027 39.5847 79.0852C40.5897 77.2909 41.5459 75.6558 42.4529 74.18C43.4133 72.7121 44.4571 71.2288 45.5845 69.7302C46.6512 68.278 47.7748 66.8065 48.9553 65.3156C50.1965 63.7783 51.4036 62.2913 52.5767 60.855C53.7647 59.3096 54.9909 57.8812 56.2555 56.5692C57.5275 55.2029 58.8564 53.8173 60.2422 52.4123C61.4919 51.2094 62.7985 49.9869 64.1619 48.7452C65.5329 47.4491 66.9075 46.1257 68.2859 44.7751C69.6802 43.7045 71.082 42.5795 72.4912 41.4C73.961 40.174 75.3704 38.9946 76.7189 37.8616C78.158 36.4645 79.5709 35.2579 80.9578 34.2416C82.4053 33.1789 83.8868 32.0656 85.4025 30.9018C86.8414 29.5048 88.3034 28.3331 89.7893 27.3871C91.2753 26.441 92.8605 25.5651 94.5437 24.7593C94.6504 24.775 94.798 24.6859 94.9878 24.4919C95.1764 24.2977 95.3773 24.2164 95.5906 24.2479C95.8028 24.2793 95.9963 24.2523 96.1711 24.1672C96.3993 24.0899 96.6189 24.0669 96.8322 24.0985C97.1039 23.6945 97.4525 23.524 97.8779 23.5869C98.2277 23.4166 98.668 23.3706 99.199 23.4491C99.5785 23.0611 100.01 22.8752 100.496 22.8916L101.817 22.7538L101.977 22.7774L102.296 22.8246L102.775 22.8954L104.291 23.1195C105.035 23.2296 105.799 23.5924 106.583 24.208C107.428 24.777 108.23 25.4508 108.992 26.2295C109.604 27.3193 110.206 28.6575 110.803 30.2445C111.034 30.9448 111.278 31.7304 111.54 32.6017C111.808 33.4186 112.03 34.173 112.206 34.8652C112.3 35.7674 112.401 36.615 112.51 37.4083C112.626 38.1471 112.666 39.0413 112.632 40.0909C112.725 40.9929 112.803 41.8094 112.866 42.5405C112.937 43.2171 112.966 43.9984 112.952 44.8846C112.935 46.6031 112.886 48.3445 112.808 50.1094C112.736 51.8197 112.594 53.464 112.378 55.042C112.253 56.7444 112.086 58.3575 111.878 59.881C111.677 61.3502 111.469 62.8737 111.253 64.4517C110.931 66.014 110.674 67.5025 110.48 68.9173C110.287 70.332 109.976 71.8126 109.547 73.3591C109.032 76.3362 108.463 79.3052 107.84 82.2664C107.226 85.1734 106.615 88.0529 106.008 90.9055C105.43 93.5402 104.767 96.2177 104.014 98.9375C103.27 101.604 102.59 104.195 101.975 106.713C101.351 108.897 100.768 110.976 100.226 112.95C99.6851 114.924 99.1741 116.875 98.693 118.801C99.055 117.745 99.5313 117.039 100.123 116.682C101.083 115.213 101.967 113.902 102.777 112.744C103.647 111.54 104.567 110.372 105.536 109.239C107.079 107.079 108.574 105.08 110.019 103.24C111.471 101.345 112.811 99.6832 114.037 98.2547C115.254 96.4917 116.341 95.098 117.295 94.0732C118.309 93.002 119.195 92.0781 119.953 91.302C120.301 91.1314 120.624 90.9571 120.919 90.7787C121.223 90.5461 121.48 90.4453 121.693 90.4769L122.092 90.5359L122.251 90.5594L122.57 90.6065Z" fill="black" fill-opacity="0.86"/>
<path d="M104.475 129.512C104.687 129.502 105.038 129.593 105.527 129.784C106.043 129.974 106.307 130.203 106.321 130.47C106.33 130.657 106.274 130.847 106.15 131.04L103.375 135.346C103.052 135.789 102.891 136.037 102.894 136.091C102.897 136.144 102.911 136.17 102.938 136.169L103.131 136.04C106.101 133.733 108.541 131.719 110.45 129.997C110.808 129.713 111.107 129.565 111.346 129.554C111.611 129.542 111.785 129.56 111.868 129.61L113 129.879C113.272 130 113.414 130.167 113.425 130.381C113.436 130.594 113.391 130.771 113.292 130.909C112.816 131.493 112.264 132.161 111.637 132.913C111.035 133.637 110.585 134.194 110.285 134.583C109.984 134.945 109.646 135.362 109.271 135.834C108.895 136.307 108.621 136.668 108.447 136.917C108.3 137.164 108.129 137.454 107.933 137.784C107.735 138.088 107.602 138.348 107.533 138.565C107.405 139.187 107.353 139.725 107.376 140.179C107.388 140.419 107.541 140.533 107.833 140.519C108.151 140.504 108.7 140.291 109.477 139.88C110.282 139.468 111.222 138.849 112.298 138.023C113.4 137.195 114.845 136.03 116.632 134.528C118.444 132.999 120.029 131.707 121.386 130.653C121.635 130.829 121.766 131.05 121.779 131.318C121.793 131.585 121.686 131.831 121.458 132.055C120.65 132.923 119.627 134.014 118.39 135.33C117.151 136.619 115.244 138.368 112.668 140.575C110.118 142.782 108.312 143.91 107.25 143.959C105.205 144.055 104.126 143.007 104.014 140.817C103.972 139.989 104.246 139.106 104.837 138.169L106.43 135.726C106.577 135.478 106.65 135.341 106.648 135.314C106.645 135.26 106.568 135.304 106.415 135.445C101.992 139.533 99.1594 141.94 97.9186 142.667C97.7129 142.81 97.4508 142.889 97.132 142.904C96.2555 142.945 95.7968 142.565 95.7559 141.763C95.7422 141.496 95.7963 141.253 95.9182 141.033C97.7909 139.125 99.0963 137.579 99.8344 136.394C100.439 135.723 101.057 134.797 101.689 133.617C102.348 132.435 102.897 131.459 103.337 130.689C103.803 129.918 104.183 129.526 104.475 129.512ZM121.758 140.313L121.946 137.735C121.942 137.655 121.913 137.616 121.86 137.618C121.834 137.619 121.77 137.676 121.669 137.788C121.343 138.178 120.929 138.665 120.426 139.251C119.922 139.81 119.043 140.587 117.79 141.582C116.561 142.549 115.548 143.052 114.752 143.089C114.617 143.068 114.455 143.022 114.265 142.951C114.05 142.907 113.774 142.706 113.436 142.347C113.098 141.988 112.911 141.461 112.876 140.767C112.84 140.072 113.318 138.993 114.308 137.528C115.27 136.037 116.446 134.577 117.838 133.147C119.228 131.69 120.786 130.413 122.514 129.316C124.268 128.217 125.809 127.637 127.138 127.575C127.644 127.578 128.06 127.92 128.388 128.601C128.64 128.321 128.872 128.177 129.085 128.167C129.297 128.157 129.558 128.306 129.866 128.612C130.027 128.632 130.191 128.718 130.359 128.871C130.525 128.997 130.615 129.193 130.628 129.46C130.642 129.728 130.471 130.03 130.116 130.368C129.593 131.088 128.983 131.906 128.284 132.822C127.586 133.738 127.087 134.404 126.789 134.819C126.489 135.208 126.179 135.651 125.858 136.147C125.316 137.002 125.032 137.685 125.005 138.195C127.647 136.76 131.766 133.744 137.362 129.147C137.61 129.323 137.741 129.545 137.755 129.812C137.769 130.079 137.674 130.311 137.471 130.508C137.268 130.704 137.014 130.944 136.709 131.226C136.43 131.506 135.859 132.055 134.996 132.871C134.132 133.688 133.294 134.476 132.481 135.237C131.693 135.97 130.777 136.802 129.733 137.734C128.715 138.638 127.796 139.417 126.977 140.071C125.007 141.635 123.77 142.428 123.265 142.452C122.761 142.475 122.394 142.332 122.165 142.021C121.936 141.711 121.801 141.141 121.758 140.313ZM117.608 138.82C117.927 138.805 118.863 138.106 120.417 136.722C121.996 135.336 123.483 133.955 124.877 132.579L127.008 130.512C127.109 130.4 127.159 130.331 127.157 130.305C127.154 130.251 127.113 130.226 127.034 130.23C126.024 130.277 124.74 130.926 123.179 132.176C121.618 133.4 120.273 134.694 119.145 136.058C118.041 137.394 117.501 138.289 117.525 138.743C117.527 138.797 117.555 138.822 117.608 138.82ZM135.023 138.452C135.952 138.409 136.774 137.808 137.487 136.651C138.225 135.465 138.724 134.291 138.984 133.128C139.243 131.938 139.354 130.996 139.319 130.301C139.309 130.114 139.158 130.028 138.866 130.041C138.601 130.054 138.289 130.215 137.932 130.526L132.92 134.815C132.559 135.046 132.14 135.173 131.662 135.195C131.183 135.217 130.936 135.055 130.918 134.707C130.905 134.467 130.924 134.306 130.973 134.223C131.048 134.139 131.241 133.996 131.55 133.795C133.446 132.341 136.015 130 139.258 126.77C139.629 126.218 139.974 125.934 140.293 125.919C140.612 125.904 141.148 125.986 141.903 126.166C142.656 126.318 143.04 126.528 143.053 126.795C143.135 128.397 143.063 129.859 142.838 131.182C142.613 132.504 142.359 133.52 142.075 134.229C141.817 134.91 141.69 135.277 141.692 135.331C141.695 135.384 141.723 135.41 141.776 135.407C141.829 135.405 141.933 135.36 142.089 135.272C144.029 134.165 146.481 132.391 149.444 129.951L150.364 129.185C150.612 129.361 150.744 129.583 150.757 129.85C150.771 130.117 150.664 130.363 150.435 130.587C150.382 130.59 149.72 131.183 148.45 132.366C147.206 133.549 145.807 134.845 144.256 136.256C142.729 137.638 141.077 138.92 139.3 140.1C137.524 141.28 136.131 141.894 135.121 141.941C132.625 142.057 131.299 140.606 131.145 137.588C131.133 137.348 131.215 137.13 131.391 136.934C131.593 136.711 131.853 136.591 132.171 136.577C132.178 136.71 132.256 136.921 132.403 137.208C132.576 137.468 132.747 137.688 132.916 137.867C133.418 138.299 134.12 138.494 135.023 138.452Z" fill="#241D0E"/>
<path d="M125.854 145.9C127.043 145.303 128.289 144.655 129.592 143.953C129.017 143.425 128.669 142.94 128.546 142.498C128.506 142.351 128.489 142.247 128.497 142.188C128.55 141.791 128.713 141.552 128.986 141.47C129.262 141.368 129.687 141.359 130.26 141.442C130.478 141.473 131.085 141.834 132.082 142.524C133.078 143.214 133.715 143.579 133.992 143.619C134.289 143.662 134.705 143.641 135.24 143.557C135.778 143.453 136.196 143.422 136.492 143.465C136.809 143.511 137.027 143.613 137.147 143.772C137.554 144.498 137.748 144.93 137.73 145.069C137.711 145.208 137.626 145.317 137.475 145.396C137.345 145.459 136.903 145.678 136.147 146.054C135.411 146.432 134.683 146.823 133.964 147.224C133.245 147.626 132.558 148.093 131.902 148.625C131.246 149.157 130.893 149.611 130.843 149.988C130.835 150.047 130.88 150.084 130.979 150.099C132.047 150.253 135.937 148.601 142.65 145.144C142.788 145.164 142.84 145.303 142.806 145.561C142.774 145.799 141.879 146.539 140.12 147.781C138.364 149.003 136.403 150.175 134.237 151.297C132.093 152.403 130.576 152.891 129.686 152.763C128.301 152.562 127.701 151.768 127.887 150.379C127.988 149.626 128.332 148.937 128.919 148.315C129.528 147.675 130.724 146.877 132.505 145.921C132.169 145.873 131.724 145.728 131.172 145.486C130.622 145.225 130.284 144.963 130.157 144.702C129.582 145.084 128.59 145.719 127.181 146.607C126.855 146.783 126.455 146.836 125.98 146.767C125.505 146.699 125.277 146.595 125.296 146.456C125.317 146.298 125.503 146.112 125.854 145.9ZM148.71 139.863C148.907 139.891 149.031 139.95 149.079 140.038C149.311 140.415 149.413 140.713 149.384 140.931C149.357 141.129 149.274 141.299 149.134 141.441C148.997 141.562 148.826 141.71 148.621 141.882C148.439 142.038 148.069 142.247 147.509 142.51C146.972 142.756 146.466 142.844 145.992 142.776C145.644 142.665 145.495 142.421 145.545 142.044C145.625 141.449 146.057 140.925 146.844 140.473C147.633 140 148.255 139.797 148.71 139.863ZM140.023 150.557C139.827 150.812 139.715 151.048 139.686 151.266C139.657 151.485 139.761 151.611 139.998 151.645C140.137 151.665 140.382 151.64 140.734 151.57C144.693 150.16 148.619 148.393 152.512 146.266C152.671 146.431 152.738 146.612 152.711 146.811C152.685 147.009 152.561 147.183 152.339 147.333C152.117 147.483 151.796 147.7 151.375 147.982C150.974 148.268 150.201 148.773 149.056 149.497C147.911 150.221 146.845 150.876 145.86 151.462C143.274 153.009 141.405 153.871 140.252 154.048C139.883 154.095 139.49 154.089 139.075 154.029C137.552 153.809 136.899 152.886 137.116 151.259C137.201 150.624 137.668 149.772 138.516 148.701C139.368 147.611 140.219 146.673 141.07 145.886C141.924 145.079 142.476 144.643 142.726 144.579C143.112 144.412 143.512 144.358 143.927 144.419C144.343 144.479 144.728 144.615 145.082 144.828C145.193 144.905 145.242 144.993 145.229 145.092C145.215 145.191 145.097 145.326 144.872 145.495C144.668 145.668 144.34 145.934 143.889 146.293C143.457 146.656 142.787 147.297 141.878 148.217C140.991 149.12 140.372 149.9 140.023 150.557Z" fill="#241D0E"/>
<path d="M156.609 134.889L156.611 134.888C157.837 134.808 158.811 134.583 159.937 134.179L159.94 134.178L159.94 134.178C160.196 134.084 160.376 134.016 160.54 133.955C160.798 133.858 161.013 133.777 161.413 133.634C161.414 133.634 161.414 133.634 161.414 133.634L161.247 133.163C161.294 133.147 161.351 133.125 161.416 133.102C161.847 132.942 162.617 132.657 162.928 132.823C163.675 133.22 162.645 134.029 162.087 134.469C162.005 134.533 161.933 134.589 161.879 134.635L156.609 134.889ZM156.609 134.889C155.755 134.941 154.915 134.885 154.11 134.832C153.918 134.819 153.728 134.806 153.541 134.795C152.731 134.749 151.899 134.796 151.094 134.938C150.259 135.085 149.327 135.448 148.65 135.876C148.013 136.279 147.403 136.827 147.006 137.363C146.534 138.249 146.177 139.424 146.03 140.643C145.899 141.736 145.941 142.83 146.197 143.762C147.643 143.685 149.227 143.757 150.737 143.834C150.838 143.839 150.939 143.844 151.04 143.849C152.592 143.929 154.044 144.003 155.228 143.929C155.857 143.89 156.382 143.81 156.791 143.678C157.202 143.546 157.449 143.376 157.583 143.191C157.707 143.02 157.781 142.772 157.711 142.369C157.64 141.953 157.419 141.4 156.979 140.678L156.889 140.53L156.909 140.358C157.102 138.751 158.078 137.369 159.301 136.18L159.303 136.178C159.971 135.533 160.381 135.204 160.93 134.762C161.118 134.61 161.322 134.446 161.559 134.251M156.609 134.889L161.559 134.251M161.559 134.251C161.635 134.187 161.721 134.119 161.813 134.047C162.045 133.865 162.309 133.657 162.513 133.43C162.566 133.371 162.607 133.319 162.638 133.274C162.629 133.274 162.62 133.275 162.61 133.276L161.559 134.251Z" fill="#241C0E" stroke="#241C0E"/>
<path d="M148.098 138.901C147.492 139.673 148.007 142.325 149.347 143.045C150.132 143.464 151.306 143.328 152.238 143.264C153.277 143.2 154.296 143.192 155.327 143.212C156.318 143.221 156.114 142.455 155.094 142.065C153.577 141.484 150.08 141.722 148.705 138.794C148.654 138.684 148.445 138.459 148.098 138.901Z" fill="#E8DFD2"/>
<path d="M153.205 138.718C152.338 139.364 150.911 139.296 150.024 138.562C149.146 137.832 149.141 136.711 150.016 136.063C150.891 135.416 152.324 135.478 153.203 136.213C154.082 136.943 154.086 138.064 153.205 138.718Z" fill="#E8DFD2"/>
<path d="M152.01 137.2C151.585 136.854 150.922 136.817 150.534 137.117C150.161 137.408 150.198 137.924 150.629 138.264C151.061 138.609 151.717 138.648 152.097 138.349C152.478 138.056 152.441 137.54 152.01 137.2Z" fill="#231F20"/>
</g>
<defs>
<linearGradient id="paint0_linear_403_5" x1="185" y1="92" x2="1.32913e-07" y2="92" gradientUnits="userSpaceOnUse">
<stop stop-color="#FFDB6E"/>
<stop offset="1" stop-color="#FFBC5E"/>
</linearGradient>
<clipPath id="clip0_403_5">
<rect width="185" height="185" fill="white"/>
</clipPath>
</defs>
</svg>
