<svg xmlns="http://www.w3.org/2000/svg" xmlns:xlink="http://www.w3.org/1999/xlink" width="500" zoomAndPan="magnify" viewBox="0 0 375 374.999991" height="500" preserveAspectRatio="xMidYMid meet" version="1.0"><defs><filter x="0%" y="0%" width="100%" height="100%" id="8f415d441c"><feColorMatrix values="0 0 0 0 1 0 0 0 0 1 0 0 0 0 1 0 0 0 1 0" color-interpolation-filters="sRGB"/></filter><mask id="9b09df39af"><g filter="url(#8f415d441c)"><rect x="-37.5" width="450" fill="#000000" y="-37.499999" height="449.999989" fill-opacity="0.1"/></g></mask><clipPath id="f0c47ed07d"><path d="M 1 1.003906 L 231.207031 1.003906 L 231.207031 311.5 L 1 311.5 Z M 1 1.003906 " clip-rule="nonzero"/></clipPath><clipPath id="b1f69cf36d"><rect x="0" width="232" y="0" height="313"/></clipPath><clipPath id="dbee119d9b"><path d="M 64.597656 13.789062 L 315.847656 13.789062 L 315.847656 361.039062 L 64.597656 361.039062 Z M 64.597656 13.789062 " clip-rule="nonzero"/></clipPath></defs><g mask="url(#9b09df39af)"><g transform="matrix(1, 0, 0, 1, 74, 26)"><g clip-path="url(#b1f69cf36d)"><g clip-path="url(#f0c47ed07d)"><path fill="#ffdb6e" d="M 1 1.003906 L 231.207031 1.003906 L 231.207031 311.246094 L 1 311.246094 Z M 1 1.003906 " fill-opacity="1" fill-rule="nonzero"/></g></g></g></g><g clip-path="url(#dbee119d9b)"><path fill="#ffdb6e" d="M 309.121094 13.789062 L 231.929688 13.789062 C 231.929688 13.789062 231.925781 13.789062 231.917969 13.789062 L 96.207031 13.789062 C 64.644531 13.789062 64.644531 13.789062 64.644531 20.222656 L 64.644531 335.46875 C 64.644531 339.027344 67.527344 341.902344 71.078125 341.902344 L 289.820312 341.902344 C 293.378906 341.902344 296.253906 339.027344 296.253906 335.46875 L 296.253906 78.125 C 296.253906 78.042969 296.210938 77.96875 296.203125 77.878906 C 296.171875 77.109375 296.046875 76.347656 295.757812 75.648438 C 295.425781 74.863281 294.953125 74.15625 294.355469 73.5625 L 247.449219 26.65625 L 302.6875 26.65625 L 302.6875 348.335938 L 90.378906 348.335938 C 86.828125 348.335938 83.945312 351.210938 83.945312 354.769531 C 83.945312 358.328125 86.828125 361.203125 90.378906 361.203125 L 309.121094 361.203125 C 312.679688 361.203125 315.554688 358.328125 315.554688 354.769531 L 315.554688 20.222656 C 315.554688 16.664062 312.679688 13.789062 309.121094 13.789062 Z M 238.351562 35.746094 L 274.289062 71.691406 L 238.351562 71.691406 Z M 77.511719 329.035156 L 77.511719 26.65625 C 103.363281 26.65625 199.640625 26.65625 225.472656 26.65625 C 225.472656 26.65625 225.476562 26.65625 225.484375 26.65625 L 225.484375 78.125 C 225.484375 81.675781 228.359375 84.558594 231.917969 84.558594 L 283.386719 84.558594 L 283.386719 329.035156 Z M 77.511719 329.035156 " fill-opacity="1" fill-rule="nonzero"/></g><path fill="#ffdb6e" d="M 161.148438 103.859375 L 199.75 103.859375 C 203.308594 103.859375 206.183594 100.976562 206.183594 97.425781 L 206.183594 90.992188 C 206.183594 94.542969 209.058594 97.425781 212.617188 97.425781 C 216.175781 97.425781 219.050781 94.542969 219.050781 90.992188 L 219.050781 78.125 C 219.050781 74.574219 216.175781 71.691406 212.617188 71.691406 C 209.058594 71.691406 206.183594 74.574219 206.183594 78.125 L 206.183594 71.691406 C 206.183594 68.140625 203.308594 65.257812 199.75 65.257812 L 161.148438 65.257812 C 157.597656 65.257812 154.714844 68.140625 154.714844 71.691406 L 154.714844 97.425781 C 154.714844 100.976562 157.597656 103.859375 161.148438 103.859375 Z M 167.582031 78.125 L 193.316406 78.125 L 193.316406 90.992188 L 167.582031 90.992188 Z M 167.582031 78.125 " fill-opacity="1" fill-rule="nonzero"/><path fill="#ffdb6e" d="M 141.847656 136.027344 L 219.050781 136.027344 C 222.609375 136.027344 225.484375 133.144531 225.484375 129.59375 C 225.484375 126.042969 222.609375 123.160156 219.050781 123.160156 L 141.847656 123.160156 C 138.296875 123.160156 135.414062 126.042969 135.414062 129.59375 C 135.414062 133.144531 138.296875 136.027344 141.847656 136.027344 Z M 141.847656 136.027344 " fill-opacity="1" fill-rule="nonzero"/><path fill="#ffdb6e" d="M 251.21875 155.328125 L 109.679688 155.328125 C 106.128906 155.328125 103.246094 158.210938 103.246094 161.761719 C 103.246094 165.3125 106.128906 168.195312 109.679688 168.195312 L 251.21875 168.195312 C 254.777344 168.195312 257.652344 165.3125 257.652344 161.761719 C 257.652344 158.210938 254.777344 155.328125 251.21875 155.328125 Z M 251.21875 155.328125 " fill-opacity="1" fill-rule="nonzero"/><path fill="#ffdb6e" d="M 251.21875 181.0625 L 109.679688 181.0625 C 106.128906 181.0625 103.246094 183.945312 103.246094 187.496094 C 103.246094 191.046875 106.128906 193.929688 109.679688 193.929688 L 251.21875 193.929688 C 254.777344 193.929688 257.652344 191.046875 257.652344 187.496094 C 257.652344 183.945312 254.777344 181.0625 251.21875 181.0625 Z M 251.21875 181.0625 " fill-opacity="1" fill-rule="nonzero"/><path fill="#ffdb6e" d="M 251.21875 206.796875 L 109.679688 206.796875 C 106.128906 206.796875 103.246094 209.671875 103.246094 213.230469 C 103.246094 216.789062 106.128906 219.664062 109.679688 219.664062 L 251.21875 219.664062 C 254.777344 219.664062 257.652344 216.789062 257.652344 213.230469 C 257.652344 209.671875 254.777344 206.796875 251.21875 206.796875 Z M 251.21875 206.796875 " fill-opacity="1" fill-rule="nonzero"/><path fill="#ffdb6e" d="M 251.21875 232.53125 L 109.679688 232.53125 C 106.128906 232.53125 103.246094 235.40625 103.246094 238.964844 C 103.246094 242.523438 106.128906 245.398438 109.679688 245.398438 L 251.21875 245.398438 C 254.777344 245.398438 257.652344 242.523438 257.652344 238.964844 C 257.652344 235.40625 254.777344 232.53125 251.21875 232.53125 Z M 251.21875 232.53125 " fill-opacity="1" fill-rule="nonzero"/><path fill="#ffdb6e" d="M 251.21875 258.265625 L 109.679688 258.265625 C 106.128906 258.265625 103.246094 261.140625 103.246094 264.699219 C 103.246094 268.257812 106.128906 271.132812 109.679688 271.132812 L 251.21875 271.132812 C 254.777344 271.132812 257.652344 268.257812 257.652344 264.699219 C 257.652344 261.140625 254.777344 258.265625 251.21875 258.265625 Z M 251.21875 258.265625 " fill-opacity="1" fill-rule="nonzero"/><path fill="#ffdb6e" d="M 251.21875 284 L 109.679688 284 C 106.128906 284 103.246094 286.875 103.246094 290.433594 C 103.246094 293.992188 106.128906 296.867188 109.679688 296.867188 L 251.21875 296.867188 C 254.777344 296.867188 257.652344 293.992188 257.652344 290.433594 C 257.652344 286.875 254.777344 284 251.21875 284 Z M 251.21875 284 " fill-opacity="1" fill-rule="nonzero"/></svg>