<svg xmlns="http://www.w3.org/2000/svg" xmlns:xlink="http://www.w3.org/1999/xlink" width="500" zoomAndPan="magnify" viewBox="0 0 375 374.999991" height="500" preserveAspectRatio="xMidYMid meet" version="1.0"><defs><filter x="0%" y="0%" width="100%" height="100%" id="39a3a3a06f"><feColorMatrix values="0 0 0 0 1 0 0 0 0 1 0 0 0 0 1 0 0 0 1 0" color-interpolation-filters="sRGB"/></filter><mask id="be7df95097"><g filter="url(#39a3a3a06f)"><rect x="-37.5" width="450" fill="#000000" y="-37.499999" height="449.999989" fill-opacity="0.1"/></g></mask><clipPath id="be8ea881af"><path d="M 0.890625 0.324219 L 316 0.324219 L 316 305.117188 L 0.890625 305.117188 Z M 0.890625 0.324219 " clip-rule="nonzero"/></clipPath><clipPath id="845388de6e"><path d="M 18.140625 0.324219 L 298.25 0.324219 C 302.824219 0.324219 307.210938 2.140625 310.449219 5.378906 C 313.683594 8.613281 315.5 13 315.5 17.574219 L 315.5 287.867188 C 315.5 292.445312 313.683594 296.832031 310.449219 300.066406 C 307.210938 303.300781 302.824219 305.117188 298.25 305.117188 L 18.140625 305.117188 C 13.566406 305.117188 9.175781 303.300781 5.941406 300.066406 C 2.707031 296.832031 0.890625 292.445312 0.890625 287.867188 L 0.890625 17.574219 C 0.890625 13 2.707031 8.613281 5.941406 5.378906 C 9.175781 2.140625 13.566406 0.324219 18.140625 0.324219 Z M 18.140625 0.324219 " clip-rule="nonzero"/></clipPath><clipPath id="95a89e1d3e"><rect x="0" width="317" y="0" height="306"/></clipPath><clipPath id="a7f13f7235"><path d="M 8.136719 16.65625 L 348 16.65625 L 348 340 L 8.136719 340 Z M 8.136719 16.65625 " clip-rule="nonzero"/></clipPath><clipPath id="0416d4322e"><path d="M 218 140 L 374.886719 140 L 374.886719 366 L 218 366 Z M 218 140 " clip-rule="nonzero"/></clipPath></defs><g mask="url(#be7df95097)"><g transform="matrix(1, 0, 0, 1, 22, 25)"><g clip-path="url(#95a89e1d3e)"><g clip-path="url(#be8ea881af)"><g clip-path="url(#845388de6e)"><path fill="#ffdb6e" d="M 0.890625 0.324219 L 315.207031 0.324219 L 315.207031 305.117188 L 0.890625 305.117188 Z M 0.890625 0.324219 " fill-opacity="1" fill-rule="nonzero"/></g></g></g></g></g><g clip-path="url(#a7f13f7235)"><path fill="#ffdb6e" d="M 192.871094 321.644531 L 86.5625 321.644531 L 86.5625 34.085938 L 269.554688 34.085938 L 269.554688 153.988281 C 269.554688 154.558594 269.609375 155.128906 269.722656 155.6875 C 269.832031 156.25 269.996094 156.792969 270.214844 157.324219 C 270.4375 157.851562 270.703125 158.355469 271.023438 158.828125 C 271.339844 159.304688 271.699219 159.746094 272.105469 160.148438 C 272.511719 160.554688 272.949219 160.914062 273.425781 161.234375 C 273.902344 161.550781 274.402344 161.820312 274.933594 162.039062 C 275.460938 162.257812 276.007812 162.421875 276.566406 162.535156 C 277.128906 162.644531 277.695312 162.703125 278.265625 162.703125 C 278.839844 162.703125 279.40625 162.644531 279.96875 162.535156 C 280.527344 162.421875 281.074219 162.257812 281.601562 162.039062 C 282.128906 161.820312 282.632812 161.550781 283.109375 161.234375 C 283.585938 160.914062 284.023438 160.554688 284.429688 160.148438 C 284.832031 159.746094 285.195312 159.304688 285.511719 158.828125 C 285.832031 158.355469 286.097656 157.851562 286.316406 157.324219 C 286.535156 156.792969 286.703125 156.25 286.8125 155.6875 C 286.925781 155.128906 286.980469 154.558594 286.980469 153.988281 L 286.980469 95.082031 L 330.550781 95.082031 L 330.550781 115.910156 C 330.550781 116.480469 330.605469 117.046875 330.71875 117.609375 C 330.828125 118.167969 330.996094 118.714844 331.214844 119.242188 C 331.433594 119.773438 331.703125 120.273438 332.019531 120.75 C 332.335938 121.226562 332.699219 121.664062 333.101562 122.070312 C 333.507812 122.476562 333.949219 122.835938 334.421875 123.152344 C 334.898438 123.472656 335.402344 123.738281 335.929688 123.960938 C 336.457031 124.179688 337.003906 124.34375 337.566406 124.453125 C 338.125 124.566406 338.691406 124.621094 339.265625 124.621094 C 339.835938 124.621094 340.402344 124.566406 340.964844 124.453125 C 341.527344 124.34375 342.070312 124.179688 342.597656 123.960938 C 343.128906 123.738281 343.628906 123.472656 344.105469 123.152344 C 344.582031 122.835938 345.023438 122.476562 345.425781 122.070312 C 345.832031 121.664062 346.191406 121.226562 346.511719 120.75 C 346.828125 120.273438 347.097656 119.773438 347.316406 119.242188 C 347.535156 118.714844 347.699219 118.167969 347.8125 117.609375 C 347.921875 117.046875 347.980469 116.480469 347.980469 115.910156 L 347.980469 60.226562 C 347.976562 58.800781 347.90625 57.378906 347.765625 55.957031 C 347.621094 54.539062 347.414062 53.128906 347.132812 51.730469 C 346.851562 50.332031 346.507812 48.949219 346.089844 47.585938 C 345.675781 46.21875 345.195312 44.878906 344.648438 43.5625 C 344.101562 42.242188 343.492188 40.957031 342.820312 39.699219 C 342.144531 38.441406 341.414062 37.21875 340.621094 36.03125 C 339.828125 34.847656 338.976562 33.703125 338.074219 32.601562 C 337.167969 31.496094 336.210938 30.441406 335.203125 29.433594 C 334.195312 28.425781 333.136719 27.46875 332.035156 26.5625 C 330.933594 25.65625 329.789062 24.808594 328.601562 24.015625 C 327.417969 23.222656 326.195312 22.488281 324.9375 21.816406 C 323.679688 21.144531 322.390625 20.535156 321.074219 19.988281 C 319.757812 19.441406 318.414062 18.960938 317.050781 18.542969 C 315.6875 18.128906 314.304688 17.78125 312.90625 17.503906 C 311.507812 17.222656 310.097656 17.011719 308.679688 16.871094 C 307.257812 16.730469 305.835938 16.660156 304.410156 16.65625 L 51.707031 16.65625 C 50.28125 16.660156 48.855469 16.730469 47.4375 16.871094 C 46.015625 17.011719 44.609375 17.222656 43.210938 17.503906 C 41.8125 17.78125 40.429688 18.128906 39.0625 18.542969 C 37.699219 18.960938 36.359375 19.441406 35.039062 19.988281 C 33.722656 20.535156 32.433594 21.144531 31.175781 21.816406 C 29.917969 22.488281 28.699219 23.222656 27.511719 24.015625 C 26.328125 24.808594 25.183594 25.65625 24.078125 26.5625 C 22.976562 27.46875 21.921875 28.425781 20.914062 29.433594 C 19.902344 30.441406 18.945312 31.496094 18.042969 32.601562 C 17.136719 33.703125 16.289062 34.847656 15.496094 36.03125 C 14.703125 37.21875 13.96875 38.441406 13.296875 39.699219 C 12.625 40.957031 12.011719 42.242188 11.46875 43.5625 C 10.921875 44.878906 10.4375 46.21875 10.023438 47.585938 C 9.609375 48.949219 9.261719 50.332031 8.980469 51.730469 C 8.703125 53.128906 8.492188 54.539062 8.351562 55.957031 C 8.210938 57.378906 8.136719 58.800781 8.136719 60.226562 L 8.136719 295.503906 C 8.136719 296.929688 8.210938 298.351562 8.351562 299.769531 C 8.492188 301.191406 8.703125 302.601562 8.980469 304 C 9.261719 305.398438 9.609375 306.777344 10.023438 308.144531 C 10.4375 309.507812 10.921875 310.851562 11.46875 312.167969 C 12.011719 313.484375 12.625 314.773438 13.296875 316.03125 C 13.96875 317.289062 14.703125 318.511719 15.496094 319.695312 C 16.289062 320.882812 17.136719 322.027344 18.042969 323.128906 C 18.945312 324.230469 19.902344 325.285156 20.914062 326.296875 C 21.921875 327.304688 22.976562 328.261719 24.078125 329.164062 C 25.183594 330.070312 26.328125 330.921875 27.511719 331.710938 C 28.699219 332.503906 29.917969 333.238281 31.175781 333.910156 C 32.433594 334.585938 33.722656 335.195312 35.039062 335.742188 C 36.359375 336.289062 37.699219 336.769531 39.0625 337.183594 C 40.429688 337.597656 41.8125 337.945312 43.210938 338.226562 C 44.609375 338.503906 46.015625 338.714844 47.4375 338.855469 C 48.855469 339 50.28125 339.070312 51.707031 339.070312 L 192.871094 339.070312 C 193.441406 339.070312 194.011719 339.015625 194.570312 338.902344 C 195.132812 338.792969 195.675781 338.628906 196.207031 338.410156 C 196.734375 338.1875 197.238281 337.921875 197.710938 337.601562 C 198.1875 337.285156 198.628906 336.925781 199.03125 336.519531 C 199.4375 336.113281 199.796875 335.675781 200.117188 335.199219 C 200.433594 334.722656 200.703125 334.222656 200.921875 333.691406 C 201.140625 333.164062 201.304688 332.617188 201.417969 332.058594 C 201.527344 331.496094 201.585938 330.929688 201.585938 330.359375 C 201.585938 329.785156 201.527344 329.21875 201.417969 328.65625 C 201.304688 328.097656 201.140625 327.550781 200.921875 327.023438 C 200.703125 326.496094 200.433594 325.992188 200.117188 325.515625 C 199.796875 325.039062 199.4375 324.601562 199.03125 324.195312 C 198.628906 323.792969 198.1875 323.429688 197.710938 323.113281 C 197.238281 322.792969 196.734375 322.527344 196.207031 322.308594 C 195.675781 322.089844 195.132812 321.921875 194.570312 321.8125 C 194.011719 321.699219 193.441406 321.644531 192.871094 321.644531 Z M 304.410156 34.085938 C 305.265625 34.085938 306.121094 34.125 306.972656 34.210938 C 307.824219 34.292969 308.667969 34.421875 309.507812 34.585938 C 310.347656 34.753906 311.179688 34.960938 311.996094 35.210938 C 312.816406 35.460938 313.621094 35.746094 314.414062 36.074219 C 315.203125 36.402344 315.976562 36.769531 316.730469 37.171875 C 317.488281 37.574219 318.222656 38.015625 318.933594 38.492188 C 319.644531 38.964844 320.332031 39.476562 320.992188 40.019531 C 321.65625 40.5625 322.289062 41.136719 322.894531 41.742188 C 323.5 42.347656 324.074219 42.980469 324.617188 43.640625 C 325.160156 44.304688 325.667969 44.992188 326.144531 45.703125 C 326.621094 46.414062 327.058594 47.148438 327.464844 47.902344 C 327.867188 48.660156 328.234375 49.429688 328.5625 50.222656 C 328.886719 51.011719 329.175781 51.820312 329.425781 52.636719 C 329.671875 53.457031 329.882812 54.285156 330.046875 55.125 C 330.214844 55.964844 330.339844 56.8125 330.425781 57.664062 C 330.507812 58.515625 330.550781 59.371094 330.550781 60.226562 L 330.550781 77.65625 L 286.980469 77.65625 L 286.980469 34.085938 Z M 25.5625 156.078125 L 69.132812 156.078125 L 69.132812 199.648438 L 25.5625 199.648438 Z M 69.132812 138.652344 L 25.5625 138.652344 L 25.5625 95.082031 L 69.132812 95.082031 Z M 25.5625 217.078125 L 69.132812 217.078125 L 69.132812 260.644531 L 25.5625 260.644531 Z M 25.5625 60.226562 C 25.5625 59.371094 25.605469 58.515625 25.691406 57.664062 C 25.773438 56.8125 25.898438 55.964844 26.066406 55.125 C 26.234375 54.285156 26.441406 53.457031 26.691406 52.636719 C 26.9375 51.820312 27.226562 51.011719 27.554688 50.222656 C 27.882812 49.429688 28.246094 48.660156 28.652344 47.902344 C 29.054688 47.148438 29.496094 46.414062 29.96875 45.703125 C 30.445312 44.992188 30.953125 44.304688 31.496094 43.640625 C 32.042969 42.980469 32.617188 42.347656 33.222656 41.742188 C 33.828125 41.136719 34.460938 40.5625 35.121094 40.019531 C 35.785156 39.476562 36.46875 38.964844 37.183594 38.492188 C 37.894531 38.015625 38.628906 37.574219 39.382812 37.171875 C 40.136719 36.769531 40.910156 36.402344 41.703125 36.074219 C 42.492188 35.746094 43.296875 35.460938 44.117188 35.210938 C 44.9375 34.960938 45.765625 34.753906 46.605469 34.585938 C 47.445312 34.421875 48.292969 34.292969 49.144531 34.210938 C 49.996094 34.125 50.851562 34.085938 51.707031 34.085938 L 69.132812 34.085938 L 69.132812 77.65625 L 25.5625 77.65625 Z M 51.707031 321.644531 C 50.851562 321.644531 49.996094 321.601562 49.144531 321.519531 C 48.292969 321.433594 47.445312 321.308594 46.605469 321.140625 C 45.765625 320.972656 44.9375 320.765625 44.117188 320.519531 C 43.296875 320.269531 42.492188 319.980469 41.703125 319.652344 C 40.910156 319.328125 40.136719 318.960938 39.382812 318.558594 C 38.628906 318.152344 37.894531 317.714844 37.183594 317.238281 C 36.46875 316.761719 35.785156 316.253906 35.121094 315.710938 C 34.460938 315.167969 33.828125 314.59375 33.222656 313.988281 C 32.617188 313.382812 32.042969 312.75 31.496094 312.085938 C 30.953125 311.425781 30.445312 310.738281 29.96875 310.027344 C 29.492188 309.3125 29.054688 308.582031 28.652344 307.824219 C 28.246094 307.070312 27.882812 306.296875 27.554688 305.507812 C 27.226562 304.714844 26.9375 303.910156 26.691406 303.089844 C 26.441406 302.269531 26.234375 301.441406 26.066406 300.601562 C 25.898438 299.761719 25.773438 298.917969 25.691406 298.0625 C 25.605469 297.210938 25.5625 296.359375 25.5625 295.503906 L 25.5625 278.074219 L 69.132812 278.074219 L 69.132812 321.644531 Z M 51.707031 321.644531 " fill-opacity="1" fill-rule="nonzero"/></g><path fill="#ffdb6e" d="M 339.265625 283.5625 C 338.691406 283.5625 338.125 283.621094 337.566406 283.730469 C 337.003906 283.84375 336.457031 284.007812 335.929688 284.226562 C 335.402344 284.445312 334.898438 284.714844 334.421875 285.03125 C 333.949219 285.351562 333.507812 285.710938 333.101562 286.117188 C 332.699219 286.519531 332.335938 286.960938 332.019531 287.4375 C 331.703125 287.914062 331.433594 288.414062 331.214844 288.941406 C 330.996094 289.472656 330.828125 290.015625 330.71875 290.578125 C 330.605469 291.140625 330.550781 291.707031 330.550781 292.277344 L 330.550781 295.503906 C 330.558594 296.707031 330.480469 297.90625 330.320312 299.097656 C 330.160156 300.292969 329.917969 301.46875 329.59375 302.628906 C 329.265625 303.785156 328.863281 304.917969 328.378906 306.019531 C 327.894531 307.125 327.335938 308.1875 326.707031 309.210938 C 326.074219 310.238281 325.371094 311.210938 324.601562 312.140625 C 323.832031 313.066406 323.003906 313.933594 322.113281 314.742188 C 321.222656 315.554688 320.28125 316.296875 319.285156 316.976562 C 318.289062 317.65625 317.253906 318.261719 316.171875 318.792969 C 315.695312 318.972656 315.238281 319.191406 314.800781 319.449219 C 314.359375 319.707031 313.949219 320 313.5625 320.328125 C 313.171875 320.660156 312.816406 321.019531 312.496094 321.414062 C 312.171875 321.804688 311.882812 322.222656 311.632812 322.667969 C 311.382812 323.109375 311.171875 323.570312 311 324.050781 C 310.832031 324.53125 310.703125 325.019531 310.621094 325.523438 C 310.535156 326.023438 310.496094 326.53125 310.5 327.039062 C 310.507812 327.546875 310.554688 328.050781 310.648438 328.550781 C 310.742188 329.050781 310.878906 329.539062 311.054688 330.015625 C 311.234375 330.492188 311.453125 330.949219 311.710938 331.390625 C 311.96875 331.828125 312.265625 332.238281 312.59375 332.625 C 312.925781 333.011719 313.289062 333.367188 313.679688 333.691406 C 314.074219 334.015625 314.492188 334.300781 314.9375 334.550781 C 315.378906 334.800781 315.839844 335.011719 316.320312 335.179688 C 316.800781 335.347656 317.292969 335.472656 317.792969 335.558594 C 318.296875 335.640625 318.800781 335.679688 319.308594 335.671875 C 320.609375 335.671875 321.84375 335.394531 323.023438 334.84375 C 324.886719 333.980469 326.679688 332.988281 328.398438 331.867188 C 330.121094 330.746094 331.753906 329.507812 333.300781 328.152344 C 334.84375 326.796875 336.285156 325.339844 337.621094 323.78125 C 338.957031 322.21875 340.175781 320.570312 341.273438 318.835938 C 342.375 317.101562 343.347656 315.296875 344.1875 313.421875 C 345.03125 311.550781 345.738281 309.625 346.304688 307.652344 C 346.871094 305.675781 347.296875 303.671875 347.574219 301.636719 C 347.855469 299.601562 347.992188 297.554688 347.980469 295.503906 L 347.980469 292.277344 C 347.980469 291.707031 347.921875 291.140625 347.8125 290.578125 C 347.699219 290.015625 347.535156 289.472656 347.316406 288.941406 C 347.097656 288.414062 346.828125 287.914062 346.511719 287.4375 C 346.191406 286.960938 345.832031 286.519531 345.425781 286.117188 C 345.023438 285.710938 344.582031 285.351562 344.105469 285.03125 C 343.628906 284.714844 343.128906 284.445312 342.597656 284.226562 C 342.070312 284.007812 341.527344 283.84375 340.964844 283.730469 C 340.402344 283.621094 339.835938 283.5625 339.265625 283.5625 Z M 339.265625 283.5625 " fill-opacity="1" fill-rule="nonzero"/><path fill="#ffdb6e" d="M 160.628906 117.101562 C 159.640625 116.53125 158.617188 116.027344 157.5625 115.589844 C 156.507812 115.152344 155.425781 114.785156 154.324219 114.488281 C 153.21875 114.195312 152.101562 113.972656 150.96875 113.824219 C 149.835938 113.675781 148.695312 113.601562 147.554688 113.601562 C 146.410156 113.601562 145.273438 113.675781 144.140625 113.824219 C 143.007812 113.972656 141.890625 114.195312 140.785156 114.492188 C 139.683594 114.789062 138.605469 115.15625 137.546875 115.59375 C 136.492188 116.03125 135.46875 116.535156 134.480469 117.105469 C 133.492188 117.679688 132.542969 118.3125 131.636719 119.007812 C 130.730469 119.703125 129.875 120.457031 129.066406 121.265625 C 128.257812 122.074219 127.507812 122.929688 126.8125 123.835938 C 126.117188 124.742188 125.484375 125.691406 124.914062 126.683594 C 124.34375 127.671875 123.839844 128.695312 123.402344 129.75 C 122.964844 130.804688 122.597656 131.886719 122.304688 132.988281 C 122.007812 134.09375 121.789062 135.210938 121.640625 136.34375 C 121.488281 137.476562 121.417969 138.617188 121.417969 139.757812 L 121.417969 224.71875 C 121.414062 225.863281 121.484375 227.003906 121.628906 228.136719 C 121.773438 229.273438 121.992188 230.394531 122.285156 231.5 C 122.578125 232.605469 122.941406 233.6875 123.375 234.746094 C 123.8125 235.804688 124.3125 236.828125 124.882812 237.820312 C 125.453125 238.8125 126.085938 239.765625 126.78125 240.671875 C 127.476562 241.582031 128.226562 242.441406 129.035156 243.25 C 129.84375 244.0625 130.699219 244.816406 131.609375 245.511719 C 132.515625 246.210938 133.464844 246.84375 134.453125 247.417969 C 135.445312 247.988281 136.46875 248.492188 137.527344 248.933594 C 138.582031 249.371094 139.664062 249.734375 140.769531 250.03125 C 141.875 250.328125 142.996094 250.546875 144.128906 250.695312 C 145.265625 250.84375 146.402344 250.917969 147.546875 250.917969 C 148.691406 250.914062 149.832031 250.835938 150.964844 250.6875 C 152.097656 250.535156 153.21875 250.308594 154.324219 250.011719 C 155.425781 249.710938 156.507812 249.339844 157.5625 248.898438 C 158.617188 248.460938 159.640625 247.949219 160.628906 247.375 L 234.203125 204.878906 C 235.191406 204.308594 236.140625 203.675781 237.050781 202.980469 C 237.957031 202.285156 238.816406 201.53125 239.625 200.722656 C 240.4375 199.917969 241.1875 199.058594 241.886719 198.152344 C 242.582031 197.246094 243.21875 196.296875 243.789062 195.308594 C 244.363281 194.316406 244.867188 193.292969 245.304688 192.238281 C 245.746094 191.179688 246.113281 190.101562 246.40625 188.996094 C 246.703125 187.890625 246.925781 186.773438 247.078125 185.636719 C 247.226562 184.503906 247.300781 183.363281 247.300781 182.222656 C 247.300781 181.078125 247.226562 179.9375 247.078125 178.804688 C 246.925781 177.671875 246.703125 176.550781 246.40625 175.445312 C 246.113281 174.34375 245.746094 173.261719 245.304688 172.207031 C 244.867188 171.148438 244.363281 170.125 243.789062 169.136719 C 243.21875 168.144531 242.582031 167.199219 241.886719 166.289062 C 241.1875 165.382812 240.4375 164.527344 239.625 163.71875 C 238.816406 162.910156 237.957031 162.160156 237.050781 161.464844 C 236.140625 160.769531 235.191406 160.136719 234.203125 159.566406 Z M 225.488281 189.765625 L 151.914062 232.238281 C 151.585938 232.429688 151.246094 232.597656 150.894531 232.742188 C 150.542969 232.890625 150.183594 233.011719 149.816406 233.109375 C 149.449219 233.207031 149.074219 233.28125 148.699219 233.332031 C 148.320312 233.382812 147.941406 233.40625 147.5625 233.40625 C 147.179688 233.40625 146.800781 233.382812 146.425781 233.332031 C 146.046875 233.28125 145.675781 233.207031 145.308594 233.109375 C 144.9375 233.011719 144.578125 232.890625 144.226562 232.746094 C 143.875 232.597656 143.535156 232.429688 143.207031 232.242188 C 142.875 232.050781 142.558594 231.839844 142.257812 231.609375 C 141.957031 231.378906 141.671875 231.128906 141.402344 230.859375 C 141.132812 230.589844 140.882812 230.304688 140.648438 230.003906 C 140.417969 229.699219 140.207031 229.386719 140.015625 229.054688 C 139.824219 228.726562 139.65625 228.386719 139.511719 228.035156 C 139.363281 227.683594 139.242188 227.324219 139.144531 226.957031 C 139.046875 226.589844 138.96875 226.214844 138.921875 225.839844 C 138.871094 225.460938 138.84375 225.082031 138.84375 224.703125 L 138.84375 139.742188 C 138.835938 138.976562 138.929688 138.222656 139.125 137.480469 C 139.320312 136.738281 139.609375 136.035156 139.992188 135.371094 C 140.375 134.707031 140.839844 134.105469 141.382812 133.566406 C 141.929688 133.027344 142.535156 132.570312 143.203125 132.195312 C 144.550781 131.421875 146.003906 131.023438 147.558594 131 C 149.121094 131 150.574219 131.398438 151.914062 132.203125 L 225.488281 174.675781 C 225.816406 174.867188 226.132812 175.078125 226.433594 175.308594 C 226.738281 175.539062 227.023438 175.789062 227.292969 176.058594 C 227.5625 176.328125 227.8125 176.613281 228.042969 176.917969 C 228.273438 177.21875 228.484375 177.535156 228.675781 177.863281 C 228.867188 178.195312 229.035156 178.535156 229.179688 178.886719 C 229.328125 179.238281 229.449219 179.597656 229.546875 179.964844 C 229.644531 180.332031 229.71875 180.707031 229.769531 181.085938 C 229.820312 181.460938 229.84375 181.839844 229.84375 182.222656 C 229.84375 182.601562 229.820312 182.980469 229.769531 183.359375 C 229.71875 183.734375 229.644531 184.109375 229.546875 184.476562 C 229.449219 184.84375 229.328125 185.203125 229.179688 185.554688 C 229.035156 185.90625 228.867188 186.25 228.675781 186.578125 C 228.484375 186.90625 228.273438 187.222656 228.042969 187.527344 C 227.8125 187.828125 227.5625 188.113281 227.292969 188.382812 C 227.023438 188.652344 226.738281 188.902344 226.433594 189.132812 C 226.132812 189.367188 225.816406 189.578125 225.488281 189.769531 Z M 225.488281 189.765625 " fill-opacity="1" fill-rule="nonzero"/><g clip-path="url(#0416d4322e)"><path fill="#ffdb6e" d="M 373.527344 170.429688 C 372.933594 168.199219 371.933594 166.164062 370.523438 164.332031 C 369.117188 162.496094 367.410156 161.003906 365.40625 159.851562 L 335.222656 142.425781 C 334.726562 142.140625 334.21875 141.878906 333.699219 141.644531 C 333.179688 141.40625 332.652344 141.199219 332.109375 141.015625 C 331.570312 140.832031 331.023438 140.675781 330.464844 140.542969 C 329.910156 140.414062 329.351562 140.3125 328.785156 140.238281 C 328.21875 140.164062 327.648438 140.117188 327.078125 140.097656 C 326.507812 140.078125 325.9375 140.085938 325.371094 140.125 C 324.800781 140.160156 324.234375 140.226562 323.671875 140.320312 C 323.109375 140.414062 322.550781 140.53125 322 140.679688 C 321.449219 140.828125 320.90625 141 320.371094 141.203125 C 319.835938 141.402344 319.3125 141.628906 318.800781 141.882812 C 318.289062 142.132812 317.792969 142.410156 317.308594 142.710938 C 316.820312 143.011719 316.351562 143.335938 315.898438 143.683594 C 315.449219 144.03125 315.011719 144.402344 314.597656 144.789062 C 314.179688 145.179688 313.78125 145.589844 313.40625 146.019531 C 313.03125 146.449219 312.675781 146.894531 312.34375 147.359375 C 312.011719 147.820312 311.699219 148.300781 311.414062 148.792969 L 223.535156 301.019531 C 221.953125 303.75 220.769531 306.644531 219.976562 309.703125 C 219.1875 312.757812 218.816406 315.863281 218.875 319.019531 L 219.363281 348.0625 C 219.367188 348.4375 219.386719 348.8125 219.417969 349.183594 C 219.445312 349.558594 219.488281 349.929688 219.542969 350.300781 C 219.597656 350.667969 219.664062 351.039062 219.742188 351.402344 C 219.820312 351.769531 219.910156 352.132812 220.011719 352.492188 C 220.113281 352.851562 220.226562 353.210938 220.351562 353.5625 C 220.472656 353.914062 220.609375 354.265625 220.757812 354.609375 C 220.902344 354.953125 221.0625 355.292969 221.230469 355.625 C 221.398438 355.960938 221.578125 356.289062 221.769531 356.609375 C 221.957031 356.933594 222.15625 357.25 222.367188 357.558594 C 222.578125 357.867188 222.796875 358.171875 223.027344 358.464844 C 223.257812 358.761719 223.496094 359.046875 223.746094 359.328125 C 223.992188 359.609375 224.25 359.878906 224.515625 360.144531 C 224.78125 360.40625 225.054688 360.660156 225.335938 360.90625 C 225.617188 361.152344 225.910156 361.390625 226.207031 361.617188 C 226.503906 361.84375 226.808594 362.0625 227.117188 362.269531 C 227.429688 362.476562 227.746094 362.675781 228.070312 362.863281 C 228.394531 363.046875 228.726562 363.226562 229.0625 363.390625 C 229.394531 363.558594 229.738281 363.710938 230.082031 363.855469 C 230.425781 364 230.777344 364.132812 231.132812 364.253906 C 231.484375 364.375 231.84375 364.484375 232.203125 364.582031 C 232.5625 364.683594 232.929688 364.769531 233.292969 364.84375 C 233.660156 364.917969 234.03125 364.980469 234.402344 365.03125 C 234.769531 365.085938 235.144531 365.125 235.515625 365.152344 C 235.890625 365.179688 236.261719 365.191406 236.636719 365.195312 C 237.011719 365.199219 237.386719 365.191406 237.757812 365.167969 C 238.132812 365.148438 238.503906 365.117188 238.875 365.070312 C 239.246094 365.027344 239.617188 364.96875 239.984375 364.902344 C 240.351562 364.832031 240.71875 364.75 241.082031 364.660156 C 241.445312 364.566406 241.804688 364.464844 242.160156 364.347656 C 242.515625 364.234375 242.867188 364.105469 243.214844 363.96875 C 243.5625 363.832031 243.90625 363.679688 244.242188 363.519531 C 244.582031 363.359375 244.914062 363.191406 245.242188 363.007812 L 270.644531 348.910156 C 273.40625 347.371094 275.910156 345.496094 278.164062 343.277344 C 280.414062 341.058594 282.328125 338.578125 283.90625 335.839844 L 371.777344 183.667969 C 372.941406 181.667969 373.675781 179.519531 373.980469 177.226562 C 374.28125 174.929688 374.132812 172.664062 373.527344 170.429688 Z M 268.820312 327.152344 C 267.210938 329.9375 264.996094 332.109375 262.179688 333.667969 L 236.789062 347.785156 L 236.300781 318.742188 C 236.246094 315.523438 237.019531 312.519531 238.628906 309.730469 L 326.507812 157.527344 L 356.691406 174.953125 Z M 268.820312 327.152344 " fill-opacity="1" fill-rule="nonzero"/></g></svg>